<svg xmlns="http://www.w3.org/2000/svg" fill="none" viewBox="0 0 123 22" height="22" width="123">
<g clip-path="url(#clip0_1044_5590)">
<path fill="white" d="M29.7008 6.66409C27.3073 9.05763 27.3088 12.9384 29.7008 15.3304C31.7829 17.411 34.9878 17.6835 37.3611 16.1449L38.7269 17.5106L40.5256 15.7119L39.1645 14.3509C40.7218 11.9744 40.457 8.7524 38.3672 6.66254C35.9736 4.27053 32.0928 4.27053 29.7008 6.66254V6.66409ZM34.9193 10.1057L37.2802 12.4665C37.8735 11.1537 37.6321 9.55598 36.5529 8.47678C35.1607 7.08456 32.9057 7.08456 31.5135 8.47678C30.1213 9.86899 30.1213 12.1239 31.5135 13.5162C32.5849 14.586 34.1671 14.8336 35.4721 14.2574L33.1191 11.9044L34.9177 10.1057H34.9193ZM68.8761 10.6305H69.9535V14.7168C69.9535 16.4532 70.8692 17.0653 72.7039 17.0653C73.3145 17.0653 73.7972 17.0169 74.2473 16.9531V14.8461H74.2361C73.9545 14.8788 73.8095 14.8944 73.5076 14.8944C72.8644 14.8944 72.4953 14.7666 72.4953 14.0581V10.6321H74.1519V8.50947H72.4953V6.1611H69.9535V8.50793H68.8761V10.6305ZM60.1647 8.50793H62.7369V9.36131C63.2031 8.8147 63.9908 8.33192 65.0687 8.33192C66.8047 8.33192 67.898 9.53731 67.898 11.3873V16.9842H65.3252V12.1271C65.3252 11.2737 64.9721 10.6477 64.1359 10.6477C63.4271 10.6477 62.7359 11.146 62.7359 12.1426V16.9842H60.1631V8.50793H60.1647ZM53.7376 11.9013C51.9529 12.1582 50.4735 12.8652 50.4735 14.6188C50.4735 16.1153 51.696 17.1447 53.4013 17.1447C54.5113 17.1447 55.3465 16.8067 55.9103 16.229C56.3444 16.9531 57.3412 17.2272 58.8207 16.9858V15.0875C58.3225 15.1529 58.1604 15.0236 58.1604 14.5892V11.325C58.1604 9.34574 56.7289 8.33352 54.5737 8.33352C52.4186 8.33352 51.084 9.55598 50.7134 11.051L53.1739 11.42C53.3343 10.7286 53.7205 10.4078 54.4601 10.4078C55.2964 10.4078 55.6345 10.8096 55.6345 11.4372V11.582L53.7376 11.9028V11.9013ZM54.1551 13.5084L55.6345 13.2359V13.9429C55.6345 14.8118 54.8463 15.2619 53.9929 15.2619C53.3825 15.2619 52.9808 14.9722 52.9808 14.4412C52.9808 13.8463 53.4791 13.6205 54.1551 13.5084ZM46.7578 16.9827H49.3305V8.50793H46.7578V13.4134C46.7578 14.4101 46.0819 14.9084 45.375 14.9084C44.5387 14.9084 44.1696 14.3618 44.1696 13.51V8.50793H41.597V14.1204C41.597 15.9704 42.7385 17.1602 44.4764 17.1602C45.5369 17.1602 46.2938 16.6775 46.7594 16.148V16.9842L46.7578 16.9827ZM76.5471 14.0067L75.2127 15.7415C75.9993 16.6572 77.6729 17.1571 79.1524 17.1571C81.3081 17.1571 83.0132 16.1449 83.0132 14.2294C83.0132 12.314 81.3081 11.9464 79.7801 11.6396L79.7193 11.6287C79.6836 11.6225 79.6479 11.6147 79.6121 11.6085H79.6089C78.6948 11.4388 78.2511 11.3562 78.2511 10.9155C78.2511 10.5293 78.6527 10.2879 79.2804 10.2879C80.1167 10.2879 80.9529 10.6585 81.5961 11.3328L82.8825 9.67587C82.1737 8.90344 80.8233 8.32574 79.2959 8.32574C77.2057 8.32574 75.6767 9.46723 75.6767 11.1896C75.6767 13.0225 77.1732 13.3932 78.5716 13.6657L78.6591 13.6813C78.7071 13.6906 78.7556 13.6984 78.802 13.7062C79.9871 13.9164 80.4857 14.0036 80.4857 14.5331C80.4857 14.9831 79.922 15.2089 79.2473 15.2089C78.3321 15.2089 77.2372 14.7589 76.5455 14.0036L76.5471 14.0067ZM83.7044 10.6289H84.7823V14.7153C84.7823 16.4517 85.6996 17.0637 87.5321 17.0637C88.1428 17.0637 88.6255 17.0154 89.0756 16.9516V14.8445H89.0649C88.7828 14.8773 88.6383 14.8928 88.3359 14.8928C87.6927 14.8928 87.3236 14.7651 87.3236 14.0566V10.6305H88.9807V8.50793H87.3236V6.1595H84.7823V8.50638H83.7044V10.6289ZM90.122 14.6188C90.122 12.8652 91.6015 12.1582 93.386 11.9013L95.2847 11.5805V11.4356C95.2847 10.808 94.9465 10.4063 94.1103 10.4063C93.3705 10.4063 92.9844 10.7271 92.8239 11.4185L90.3636 11.0494C90.7327 9.55443 92.0687 8.33192 94.2239 8.33192C96.3796 8.33192 97.8105 9.34419 97.8105 11.3235V14.5876C97.8105 15.0221 97.9711 15.1513 98.4708 15.0859V16.9842C96.9913 17.2256 95.9945 16.9531 95.5588 16.2274C94.9967 16.8067 94.1604 17.1431 93.05 17.1431C91.3444 17.1431 90.122 16.1137 90.122 14.6188ZM93.8036 13.5084L95.2831 13.2359V13.9429C95.2831 14.8118 94.4948 15.2619 93.6431 15.2619C93.0329 15.2619 92.6308 14.9722 92.6308 14.4412C92.6308 13.8463 93.1295 13.6205 93.8052 13.5084H93.8036ZM99.6639 16.9827H102.238V12.1411C102.238 11.1444 102.898 10.6461 103.573 10.6461C104.409 10.6461 104.729 11.2737 104.729 12.1255V16.9827H107.302V12.1411C107.302 11.1444 107.963 10.6461 108.637 10.6461C109.457 10.6461 109.794 11.2737 109.794 12.1255V16.9827H112.366V11.3858C112.366 9.53571 111.225 8.33038 109.503 8.33038C108.201 8.33038 107.365 8.95795 106.881 9.48744C106.399 8.76334 105.563 8.33038 104.55 8.33038C103.473 8.33038 102.7 8.81315 102.235 9.35976V8.50638H99.6623V16.9812L99.6639 16.9827ZM116.224 16.148V19.8138H113.651V8.50793H116.224V9.36131C116.707 8.75086 117.51 8.33192 118.524 8.33192C120.855 8.33192 122.174 10.3253 122.174 12.7546C122.174 15.184 120.855 17.1618 118.524 17.1618C117.512 17.1618 116.707 16.7444 116.224 16.1495V16.148ZM116.207 12.9789C116.207 14.2496 116.898 14.9722 117.864 14.9722C118.99 14.9722 119.584 14.055 119.584 12.7531C119.584 11.4512 118.99 10.534 117.864 10.534C116.9 10.534 116.207 11.2409 116.207 12.5273V12.9774V12.9789Z" clip-rule="evenodd" fill-rule="evenodd"></path>
<path fill="white" d="M19.8145 10.9992C19.8145 9.32985 19.3349 7.68532 18.416 6.28692L21.7985 2.88577L19.2632 0.333374L15.8792 3.7345C13.0294 1.86419 9.34169 1.86419 6.49187 3.7345L3.10165 0.333374L0.558594 2.88577L3.94103 6.28692C2.07851 9.15385 2.07851 12.854 3.94103 15.7209L0.558594 19.1143L3.10165 21.6667L6.48409 18.2656C9.3339 20.1359 13.0216 20.1359 15.8714 18.2656L19.2538 21.6667L21.7969 19.1143L18.4145 15.7132C19.3333 14.3148 19.8223 12.6796 19.8129 11.0008L19.8145 10.9992ZM6.14462 10.9992C6.14462 8.93583 7.38574 7.07332 9.29187 6.30404C11.198 5.53473 13.3829 5.99881 14.8078 7.48447C16.2327 8.97167 16.6174 11.183 15.7702 13.0627L12.4485 9.72228L9.91326 12.2747L13.2349 15.6151C11.6792 16.3143 9.86963 16.1835 8.43694 15.2476C7.01198 14.3116 6.14617 12.7107 6.14617 10.9992H6.14462Z"></path>
</g>
<defs>
<clipPath id="clip0_1044_5590">
<rect transform="translate(0.558594 0.333374)" fill="white" height="21.3333" width="122.133"></rect>
</clipPath>
</defs>
</svg>
