<svg xmlns="http://www.w3.org/2000/svg" fill="none" viewBox="0 0 83 24" height="24" width="83">
<g clip-path="url(#clip0_1044_5576)">
<path fill="#FAFFFA" d="M78.4228 15.35C76.5987 15.35 75.1299 13.7511 75.1299 11.7977C75.1299 9.84437 76.6153 8.24546 78.4228 8.24546C80.2302 8.24546 81.7165 9.84437 81.7165 11.7977C81.7165 13.7511 80.2479 15.35 78.4228 15.35ZM81.7321 7.30767V8.72881C80.9245 7.74435 79.7459 7.12988 78.4228 7.12988C76.001 7.12988 74.0469 9.21325 74.0469 11.7811C74.0469 14.3489 76.0165 16.4311 78.4228 16.4311C79.747 16.4311 80.9257 15.8177 81.7321 14.8322V16.2533H82.8142V7.30767H81.7321Z"></path>
<path fill="#FAFFFA" d="M69.8477 8.9868V7.30677H68.7656V16.2536H69.8477V11.9091C69.8477 10.2946 70.9609 8.87346 72.5117 8.51791C72.8994 8.43679 73.3192 8.3879 73.7881 8.3879V7.30566C73.2549 7.30566 72.7383 7.35343 72.2872 7.46677C71.303 7.709 70.4631 8.24123 69.8498 8.98569H69.8488L69.8477 8.9868Z"></path>
<path fill="#FAFFFA" d="M63.0213 15.3499C61.0517 15.3499 59.4697 13.7511 59.4697 11.7977C59.4697 9.8443 61.0684 8.24539 63.0213 8.24539C64.9743 8.24539 66.573 9.8443 66.573 11.7977C66.573 13.7511 64.991 15.3499 63.0213 15.3499ZM63.0213 7.14648C60.4551 7.14648 58.3711 9.22985 58.3711 11.7965C58.3711 14.3632 60.454 16.4478 63.0213 16.4478C65.5887 16.4478 67.6705 14.3644 67.6705 11.7965C67.6705 9.22874 65.5876 7.14648 63.0213 7.14648Z"></path>
<path fill="#FAFFFA" d="M54.8331 8.39107H57.658V7.30883H54.8331V5.32324H53.751V7.30883H52.5234V8.39107H53.751V16.2556H57.658V15.1734H54.8331V8.39218V8.39107Z"></path>
<path fill="#FAFFFA" d="M47.4102 8.9868V7.30677H46.3281V16.2536H47.4102V11.9091C47.4102 10.2946 48.5232 8.87346 50.074 8.51791C50.4617 8.43679 50.8817 8.3879 51.3505 8.3879V7.30566C50.8173 7.30566 50.3008 7.35343 49.8497 7.46677C48.8643 7.709 48.0256 8.24123 47.4112 8.98569L47.4102 8.9868Z"></path>
<path fill="#FAFFFA" d="M40.6754 8.24421C42.3873 8.24421 43.8237 9.55313 44.0815 11.2476H37.2849C37.5271 9.53535 38.9646 8.24421 40.6754 8.24421ZM40.6754 15.3344C38.9635 15.3344 37.5271 14.0254 37.2693 12.3309H45.1968V11.7976C45.1968 9.24645 43.1616 7.16309 40.6765 7.16309C38.1914 7.16309 36.1562 9.24645 36.1562 11.7976C36.1562 14.3487 38.1914 16.4321 40.6765 16.4321C42.4684 16.4321 44.0825 15.3498 44.8091 13.671H43.5982C42.9694 14.7032 41.8718 15.351 40.6765 15.3344H40.6754Z"></path>
<path fill="#FAFFFA" d="M30.989 15.3342C29.0994 15.3342 27.5508 13.7354 27.5508 11.782C27.5508 9.82862 29.1006 8.22971 30.989 8.22971C32.2166 8.22971 33.2975 8.89083 33.9108 9.89306H35.1216C34.4119 8.27859 32.8287 7.14746 30.989 7.14746C28.5017 7.14746 26.4688 9.23083 26.4688 11.782C26.4688 14.3331 28.504 16.4165 30.989 16.4165C32.781 16.4165 34.3951 15.3354 35.1216 13.6709H33.9108C33.2975 14.7042 32.2 15.3342 30.989 15.3342Z"></path>
<path fill="#FAFFFA" d="M0.757314 0H0.40625V0.351064V6.15033H0.757325L0.585234 6.45634L5.42646 9.17885L0.455296 17.5677L0.757245 17.7467L0.929437 18.0527L10.7147 12.5481V23.5445H11.4169V12.5488L21.2015 18.0527L21.3736 17.7467L21.6756 17.5677L16.7049 9.17971L21.5463 6.45633L21.3742 6.15033H21.7246V0.351064V0H21.3736H0.757314ZM20.4034 16.7982L16.0928 9.52403L11.7822 11.9488L20.4034 16.7982ZM5.7845 8.57465L1.10838 5.945V0.702128H10.4497L5.7845 8.57465ZM1.72742 16.7982L6.03862 9.5231L10.35 11.9477L1.72742 16.7982ZM6.39665 8.9189L10.7147 11.3472V1.63208L6.39665 8.9189ZM15.7347 8.91984L11.4169 11.3487V1.63337L15.7347 8.91984ZM21.0225 5.94543L16.3468 8.57552L11.6812 0.702128H21.0225V5.94543Z" clip-rule="evenodd" fill-rule="evenodd"></path>
<path stroke-miterlimit="10" stroke-width="1.32" stroke="#FAFFFA" d="M21.3741 6.15039V17.7468L11.0677 23.5447L0.757812 17.7468V6.15039"></path>
<path stroke-miterlimit="10" stroke-width="1.32" stroke="#FAFFFA" d="M0.757812 8.15504V6.14985L11.0663 0.350586"></path>
<path stroke-miterlimit="10" stroke-width="1.32" stroke="#FAFFFA" d="M21.371 8.15504V6.14985L11.0625 0.350586"></path>
</g>
<defs>
<clipPath id="clip0_1044_5576">
<rect transform="translate(0.375)" fill="white" height="24" width="82.4681"></rect>
</clipPath>
</defs>
</svg>
