<svg xmlns="http://www.w3.org/2000/svg" fill="none" viewBox="0 0 121 22" height="22" width="121">
<path fill="white" d="M110.984 16.4166V8.57501H112.833V9.52914H112.937C113.25 8.94773 114.026 8.38123 115.144 8.38123C116.903 8.38123 117.976 9.61858 117.976 11.2883V16.4166H116.038V11.7951C116.038 10.841 115.427 10.2 114.532 10.2C113.593 10.2 112.922 10.9454 112.922 11.9293V16.4166H110.984Z"></path>
<path fill="white" d="M109.013 7.87744C108.312 7.87744 107.82 7.44511 107.82 6.74444C107.82 6.07359 108.312 5.62634 109.013 5.62634C109.714 5.62634 110.206 6.07359 110.206 6.74444C110.206 7.44511 109.714 7.87744 109.013 7.87744ZM108.044 16.4167V8.57507H109.982V16.4167H108.044Z"></path>
<path fill="white" d="M100.298 16.6104C97.9876 16.6104 96.3477 14.8811 96.3477 12.5405C96.3477 10.0658 98.0025 8.38123 100.298 8.38123C102.818 8.38123 104.189 10.2447 104.189 12.4511V13.0623H98.2261C98.2858 14.255 99.1056 15.06 100.358 15.06C101.312 15.06 102.043 14.6127 102.311 13.9717H104.115C103.727 15.5668 102.326 16.6104 100.298 16.6104ZM98.256 11.6908H102.341C102.251 10.6323 101.431 9.93165 100.298 9.93165C99.21 9.93165 98.3752 10.7069 98.256 11.6908Z"></path>
<path fill="white" d="M87.2969 19.339V8.57501H89.2052V9.57385H89.3095C89.5183 9.24589 90.2338 8.38123 91.6649 8.38123C93.8565 8.38123 95.3623 10.0211 95.3623 12.466C95.3623 14.9109 93.8714 16.6104 91.7246 16.6104C90.3381 16.6104 89.5928 15.8352 89.3394 15.4029H89.235V19.339H87.2969ZM91.2924 14.8513C92.5446 14.8513 93.3943 13.8822 93.3943 12.4958C93.3943 11.0647 92.5446 10.1404 91.2775 10.1404C89.9954 10.1404 89.1903 11.169 89.1903 12.4958C89.1903 13.9568 90.0847 14.8513 91.2924 14.8513Z"></path>
<path fill="white" d="M73.3688 16.6104C71.0579 16.6104 69.418 14.8811 69.418 12.5405C69.418 10.0658 71.0728 8.38123 73.3688 8.38123C75.8882 8.38123 77.2597 10.2447 77.2597 12.4511V13.0623H71.2964C71.3561 14.255 72.1759 15.06 73.4284 15.06C74.3824 15.06 75.1128 14.6127 75.3812 13.9717H77.1851C76.7975 15.5668 75.3961 16.6104 73.3688 16.6104ZM71.3263 11.6908H75.411C75.3216 10.6323 74.5017 9.93165 73.3688 9.93165C72.2803 9.93165 71.4456 10.7069 71.3263 11.6908Z"></path>
<path fill="white" d="M60.5 16.4166V14.5823L65.9265 7.50693V7.39903H60.6938V5.62634H68.4011V7.44527L62.9747 14.5206V14.6439H68.431V16.4166H60.5Z"></path>
<path fill="white" d="M52.5234 16.4166V8.57501H54.3719V9.52914H54.4762C54.7894 8.94773 55.5645 8.38123 56.6827 8.38123C58.4417 8.38123 59.5153 9.61858 59.5153 11.2883V16.4166H57.5771V11.7951C57.5771 10.841 56.9658 10.2 56.0714 10.2C55.1323 10.2 54.4613 10.9454 54.4613 11.9293V16.4166H52.5234Z"></path>
<path fill="white" d="M47.6459 16.6104C45.3352 16.6104 43.6953 14.8811 43.6953 12.5405C43.6953 10.0658 45.3501 8.38123 47.6459 8.38123C50.1653 8.38123 51.5368 10.2447 51.5368 12.4511V13.0623H45.5738C45.6334 14.255 46.4533 15.06 47.7055 15.06C48.6598 15.06 49.3902 14.6127 49.6586 13.9717H51.4623C51.0748 15.5668 49.6735 16.6104 47.6459 16.6104ZM45.6036 11.6908H49.6884C49.5989 10.6323 48.7788 9.93165 47.6459 9.93165C46.5576 9.93165 45.7229 10.7069 45.6036 11.6908Z"></path>
<path fill="white" d="M34.6445 19.3278V8.54765H36.5526V9.57385H36.657C36.8657 9.24589 37.5814 8.38123 39.0126 8.38123C41.204 8.38123 42.7097 10.0211 42.7097 12.466C42.7097 14.9109 41.2189 16.6104 39.072 16.6104C37.6858 16.6104 36.9403 15.8352 36.6868 15.4029H36.5824V19.3278H34.6445ZM38.6398 14.8513C39.8921 14.8513 40.7417 13.8822 40.7417 12.4958C40.7417 11.0647 39.8921 10.1404 38.6249 10.1404C37.3429 10.1404 36.5377 11.169 36.5377 12.4958C36.5377 13.9568 37.4323 14.8513 38.6398 14.8513Z"></path>
<path fill="white" d="M27.9469 16.6108C24.6717 16.6108 22.2617 14.2162 22.2617 11.0029C22.2617 7.82038 24.6872 5.3949 27.9623 5.3949C31.2375 5.3949 33.6631 7.85128 33.6631 11.0029C33.6631 14.1853 31.2221 16.6108 27.9469 16.6108ZM27.9623 14.6488C30.0325 14.6488 31.5155 13.1039 31.5155 11.0029C31.5155 8.9327 30.0325 7.35692 27.9623 7.35692C25.8769 7.35692 24.3936 8.9327 24.3936 11.0029C24.3936 13.1039 25.8769 14.6488 27.9623 14.6488Z"></path>
<path fill="white" d="M107.056 5.58044H105.176V16.4165H107.056V5.58044Z"></path>
<path fill="white" d="M107.056 5.58044H105.176V16.4165H107.056V5.58044Z"></path>
<path fill="white" d="M78.2461 19.339V8.57501H80.1544V9.57385H80.2588C80.4673 9.24587 81.183 8.38123 82.6142 8.38123C84.8055 8.38123 86.3112 10.0211 86.3112 12.466C86.3112 14.9109 84.8204 16.6104 82.6738 16.6104C81.2874 16.6104 80.5418 15.8352 80.2886 15.4029H80.1842V19.339H78.2461ZM82.2414 14.8513C83.4936 14.8513 84.3435 13.8822 84.3435 12.4958C84.3435 11.0646 83.4936 10.1404 82.2265 10.1404C80.9444 10.1404 80.1395 11.169 80.1395 12.4958C80.1395 13.9568 81.0339 14.8513 82.2414 14.8513Z"></path>
<path fill="white" d="M3.16406 19.3551C5.01208 16.1576 6.58242 13.5206 8.57832 9.90647C9.28336 8.68689 10.5016 7.92908 12.0055 7.92908H14.3685L7.7694 19.3551H3.16406Z"></path>
<path fill="white" d="M3.18359 2.70935H17.363L14.9402 6.93365H3.18359V2.70935Z"></path>
<path fill="white" d="M10.2869 16.7244C10.8201 15.7818 11.6772 15.1962 12.8777 15.1962L17.3664 15.184V19.3556H8.76562C9.3041 18.4321 9.77169 17.6352 10.2869 16.7244Z"></path>
</svg>
