<svg width="358" height="282" viewBox="0 0 358 282" fill="none" xmlns="http://www.w3.org/2000/svg">
<g clip-path="url(#clip0_4575_12431)">
<g filter="url(#filter0_d_4575_12431)">
<mask id="mask0_4575_12431" style="mask-type:luminance" maskUnits="userSpaceOnUse" x="0" y="0" width="358" height="282">
<path d="M0 27.625C0 12.6443 12.1443 0.5 27.125 0.5H330.875C345.856 0.5 358 12.6443 358 27.625V254.375C358 269.356 345.856 281.5 330.875 281.5H27.125C12.1443 281.5 0 269.356 0 254.375V27.625Z" fill="white"/>
</mask>
<g mask="url(#mask0_4575_12431)">
<g filter="url(#filter1_f_4575_12431)">
<path d="M434.957 -65.3473C273.748 -99.9802 61.9887 -51.1542 -38.0214 43.7088C-138.031 138.572 -88.4202 243.549 72.7885 278.182C233.997 312.815 445.757 263.989 545.767 169.126C645.777 74.263 596.166 -30.7143 434.957 -65.3473Z" fill="url(#paint0_linear_4575_12431)" fill-opacity="0.2"/>
</g>
<path d="M6.51172 -55.1494V46.5056" stroke="#506179" stroke-opacity="0.23" stroke-width="0.847656" stroke-linecap="round" stroke-linejoin="round"/>
<path d="M30.7422 -54.041V47.6139" stroke="#506179" stroke-opacity="0.23" stroke-width="0.847656" stroke-linecap="round" stroke-linejoin="round"/>
<path d="M56.0869 -54.041V47.6139" stroke="#506179" stroke-opacity="0.23" stroke-width="0.847656" stroke-linecap="round" stroke-linejoin="round"/>
<path d="M81.5709 20.4668H-20.084" stroke="#506179" stroke-opacity="0.23" stroke-width="0.847656" stroke-linecap="round" stroke-linejoin="round"/>
<path d="M81.6501 -54.0781H-19.9844V46.3771H81.6501V-54.0781Z" stroke="#506179" stroke-opacity="0.23" stroke-width="0.847656" stroke-miterlimit="10"/>
<path d="M107.116 -55.7031V45.9518" stroke="#506179" stroke-opacity="0.23" stroke-width="0.847656" stroke-linecap="round" stroke-linejoin="round"/>
<path d="M132.478 -55.7031V45.9518" stroke="#506179" stroke-opacity="0.23" stroke-width="0.847656" stroke-linecap="round" stroke-linejoin="round"/>
<path d="M157.822 -55.7031V45.9518" stroke="#506179" stroke-opacity="0.23" stroke-width="0.847656" stroke-linecap="round" stroke-linejoin="round"/>
<path d="M183.286 20.4668H81.6514" stroke="#506179" stroke-opacity="0.23" stroke-width="0.847656" stroke-linecap="round" stroke-linejoin="round"/>
<path d="M183.325 -55.4385H81.6904V46.196H183.325V-55.4385Z" stroke="#506179" stroke-opacity="0.23" stroke-width="0.847656" stroke-miterlimit="10"/>
<path d="M208.653 -55.7031V45.9518" stroke="#506179" stroke-opacity="0.23" stroke-width="0.847656" stroke-linecap="round" stroke-linejoin="round"/>
<path d="M233.997 -55.7031V45.9518" stroke="#506179" stroke-opacity="0.23" stroke-width="0.847656" stroke-linecap="round" stroke-linejoin="round"/>
<path d="M259.337 -55.7031V45.9518" stroke="#506179" stroke-opacity="0.23" stroke-width="0.847656" stroke-linecap="round" stroke-linejoin="round"/>
<path d="M284.823 20.4668H183.188" stroke="#506179" stroke-opacity="0.23" stroke-width="0.847656" stroke-linecap="round" stroke-linejoin="round"/>
<path d="M284.863 -55.4385H183.229V46.196H284.863V-55.4385Z" stroke="#506179" stroke-opacity="0.23" stroke-width="0.847656" stroke-miterlimit="10"/>
<path d="M310.287 -55.7031V45.9518" stroke="#506179" stroke-opacity="0.23" stroke-width="0.847656" stroke-linecap="round" stroke-linejoin="round"/>
<path d="M335.626 -55.7031V45.9518" stroke="#506179" stroke-opacity="0.23" stroke-width="0.847656" stroke-linecap="round" stroke-linejoin="round"/>
<path d="M386.455 20.4668H284.8" stroke="#506179" stroke-opacity="0.23" stroke-width="0.847656" stroke-linecap="round" stroke-linejoin="round"/>
<path d="M386.474 -55.4385H284.84V46.196H386.474V-55.4385Z" stroke="#506179" stroke-opacity="0.23" stroke-width="0.847656" stroke-miterlimit="10"/>
<path d="M5.88867 47.6641V149.298" stroke="#506179" stroke-opacity="0.23" stroke-width="0.847656" stroke-linecap="round" stroke-linejoin="round"/>
<path d="M30.9648 47.6641V149.298" stroke="#506179" stroke-opacity="0.23" stroke-width="0.847656" stroke-linecap="round" stroke-linejoin="round"/>
<path d="M56.043 47.6641V149.298" stroke="#506179" stroke-opacity="0.23" stroke-width="0.847656" stroke-linecap="round" stroke-linejoin="round"/>
<path d="M81.26 73.1289H-19.3311" stroke="#506179" stroke-opacity="0.23" stroke-width="0.847656" stroke-linecap="round" stroke-linejoin="round"/>
<path d="M81.26 97.3838H-19.3311" stroke="#506179" stroke-opacity="0.23" stroke-width="0.847656" stroke-linecap="round" stroke-linejoin="round"/>
<path d="M81.26 122.727H-19.3311" stroke="#506179" stroke-opacity="0.23" stroke-width="0.847656" stroke-linecap="round" stroke-linejoin="round"/>
<path d="M80.8558 46.7715H-19.4395V149.874H80.8558V46.7715Z" stroke="#506179" stroke-opacity="0.23" stroke-width="0.847656" stroke-miterlimit="10"/>
<path d="M106.876 46.4004V148.035" stroke="#506179" stroke-opacity="0.23" stroke-width="0.847656" stroke-linecap="round" stroke-linejoin="round"/>
<path d="M132.239 46.4004V148.035" stroke="#506179" stroke-opacity="0.23" stroke-width="0.847656" stroke-linecap="round" stroke-linejoin="round"/>
<path d="M157.584 46.4004V148.035" stroke="#506179" stroke-opacity="0.23" stroke-width="0.847656" stroke-linecap="round" stroke-linejoin="round"/>
<path d="M183.048 71.1328H81.4131" stroke="#506179" stroke-opacity="0.23" stroke-width="0.847656" stroke-linecap="round" stroke-linejoin="round"/>
<path d="M183.048 96.6787H81.4131" stroke="#506179" stroke-opacity="0.23" stroke-width="0.847656" stroke-linecap="round" stroke-linejoin="round"/>
<path d="M183.048 122.569H81.4131" stroke="#506179" stroke-opacity="0.23" stroke-width="0.847656" stroke-linecap="round" stroke-linejoin="round"/>
<path d="M182.815 46.2539H81.4111V149.32H182.815V46.2539Z" stroke="#506179" stroke-opacity="0.23" stroke-width="0.847656" stroke-miterlimit="10"/>
<path d="M208.653 45.8457V147.481" stroke="#506179" stroke-opacity="0.23" stroke-width="0.847656" stroke-linecap="round" stroke-linejoin="round"/>
<path d="M233.997 45.8457V147.481" stroke="#506179" stroke-opacity="0.23" stroke-width="0.847656" stroke-linecap="round" stroke-linejoin="round"/>
<path d="M259.337 45.8457V147.481" stroke="#506179" stroke-opacity="0.23" stroke-width="0.847656" stroke-linecap="round" stroke-linejoin="round"/>
<path d="M284.823 71.3105H183.188" stroke="#506179" stroke-opacity="0.23" stroke-width="0.847656" stroke-linecap="round" stroke-linejoin="round"/>
<path d="M284.823 96.6738H183.188" stroke="#506179" stroke-opacity="0.23" stroke-width="0.847656" stroke-linecap="round" stroke-linejoin="round"/>
<path d="M284.823 122.016H183.188" stroke="#506179" stroke-opacity="0.23" stroke-width="0.847656" stroke-linecap="round" stroke-linejoin="round"/>
<path d="M284.863 46.0908H183.229V147.725H284.863V46.0908Z" stroke="#506179" stroke-opacity="0.23" stroke-width="0.847656" stroke-miterlimit="10"/>
<path d="M310.26 44.5918V149.32" stroke="#506179" stroke-opacity="0.23" stroke-width="0.847656" stroke-linecap="round" stroke-linejoin="round"/>
<path d="M335.749 44.5918V149.32" stroke="#506179" stroke-opacity="0.23" stroke-width="0.847656" stroke-linecap="round" stroke-linejoin="round"/>
<path d="M386.454 71.2939H284.799" stroke="#506179" stroke-opacity="0.23" stroke-width="0.847656" stroke-linecap="round" stroke-linejoin="round"/>
<path d="M386.454 96.6406H284.799" stroke="#506179" stroke-opacity="0.23" stroke-width="0.847656" stroke-linecap="round" stroke-linejoin="round"/>
<path d="M386.454 121.966H284.799" stroke="#506179" stroke-opacity="0.23" stroke-width="0.847656" stroke-linecap="round" stroke-linejoin="round"/>
<path d="M386.728 46.2539H284.771V149.32H386.728V46.2539Z" stroke="#506179" stroke-opacity="0.23" stroke-width="0.847656" stroke-miterlimit="10"/>
<path d="M5.88965 149.768V251.402" stroke="#506179" stroke-opacity="0.23" stroke-width="0.847656" stroke-linecap="round" stroke-linejoin="round"/>
<path d="M30.9648 149.768V251.402" stroke="#506179" stroke-opacity="0.23" stroke-width="0.847656" stroke-linecap="round" stroke-linejoin="round"/>
<path d="M56.0439 149.768V251.402" stroke="#506179" stroke-opacity="0.23" stroke-width="0.847656" stroke-linecap="round" stroke-linejoin="round"/>
<path d="M81.26 174.678H-19.3311" stroke="#506179" stroke-opacity="0.23" stroke-width="0.847656" stroke-linecap="round" stroke-linejoin="round"/>
<path d="M81.26 200.021H-19.3311" stroke="#506179" stroke-opacity="0.23" stroke-width="0.847656" stroke-linecap="round" stroke-linejoin="round"/>
<path d="M81.26 225.363H-19.3311" stroke="#506179" stroke-opacity="0.23" stroke-width="0.847656" stroke-linecap="round" stroke-linejoin="round"/>
<path d="M81.3023 150.012H-19.2686V251.647H81.3023V150.012Z" stroke="#506179" stroke-opacity="0.23" stroke-width="0.847656" stroke-miterlimit="10"/>
<path d="M106.768 149.058V250.692" stroke="#506179" stroke-opacity="0.23" stroke-width="0.847656" stroke-linecap="round" stroke-linejoin="round"/>
<path d="M132.129 149.058V250.692" stroke="#506179" stroke-opacity="0.23" stroke-width="0.847656" stroke-linecap="round" stroke-linejoin="round"/>
<path d="M157.475 149.058V250.692" stroke="#506179" stroke-opacity="0.23" stroke-width="0.847656" stroke-linecap="round" stroke-linejoin="round"/>
<path d="M182.937 174.521H81.3027" stroke="#506179" stroke-opacity="0.23" stroke-width="0.847656" stroke-linecap="round" stroke-linejoin="round"/>
<path d="M182.937 199.865H81.3027" stroke="#506179" stroke-opacity="0.23" stroke-width="0.847656" stroke-linecap="round" stroke-linejoin="round"/>
<path d="M182.937 225.207H81.3027" stroke="#506179" stroke-opacity="0.23" stroke-width="0.847656" stroke-linecap="round" stroke-linejoin="round"/>
<path d="M182.976 149.302H81.3418V250.937H182.976V149.302Z" stroke="#506179" stroke-opacity="0.23" stroke-width="0.847656" stroke-miterlimit="10"/>
<path d="M208.402 149.058V250.692" stroke="#506179" stroke-opacity="0.23" stroke-width="0.847656" stroke-linecap="round" stroke-linejoin="round"/>
<path d="M234.3 149.058V250.692" stroke="#506179" stroke-opacity="0.23" stroke-width="0.847656" stroke-linecap="round" stroke-linejoin="round"/>
<path d="M259.085 149.058V250.692" stroke="#506179" stroke-opacity="0.23" stroke-width="0.847656" stroke-linecap="round" stroke-linejoin="round"/>
<path d="M284.572 174.521H182.938" stroke="#506179" stroke-opacity="0.23" stroke-width="0.847656" stroke-linecap="round" stroke-linejoin="round"/>
<path d="M284.572 199.865H182.938" stroke="#506179" stroke-opacity="0.23" stroke-width="0.847656" stroke-linecap="round" stroke-linejoin="round"/>
<path d="M284.572 225.207H182.938" stroke="#506179" stroke-opacity="0.23" stroke-width="0.847656" stroke-linecap="round" stroke-linejoin="round"/>
<path d="M284.61 149.302H182.976V250.937H284.61V149.302Z" stroke="#506179" stroke-opacity="0.23" stroke-width="0.847656" stroke-miterlimit="10"/>
<path d="M310.258 149.057V250.692" stroke="#506179" stroke-opacity="0.23" stroke-width="0.847656" stroke-linecap="round" stroke-linejoin="round"/>
<path d="M335.597 149.057V250.692" stroke="#506179" stroke-opacity="0.23" stroke-width="0.847656" stroke-linecap="round" stroke-linejoin="round"/>
<path d="M386.425 174.521H284.771" stroke="#506179" stroke-opacity="0.23" stroke-width="0.847656" stroke-linecap="round" stroke-linejoin="round"/>
<path d="M386.425 199.865H284.771" stroke="#506179" stroke-opacity="0.23" stroke-width="0.847656" stroke-linecap="round" stroke-linejoin="round"/>
<path d="M386.425 225.207H284.771" stroke="#506179" stroke-opacity="0.23" stroke-width="0.847656" stroke-linecap="round" stroke-linejoin="round"/>
<path d="M386.444 149.302H284.81V250.937H386.444V149.302Z" stroke="#506179" stroke-opacity="0.23" stroke-width="0.847656" stroke-miterlimit="10"/>
<path d="M6.5127 250.586V352.221" stroke="#506179" stroke-opacity="0.23" stroke-width="0.847656" stroke-linecap="round" stroke-linejoin="round"/>
<path d="M30.7432 251.693V353.328" stroke="#506179" stroke-opacity="0.23" stroke-width="0.847656" stroke-linecap="round" stroke-linejoin="round"/>
<path d="M56.0879 251.693V353.328" stroke="#506179" stroke-opacity="0.23" stroke-width="0.847656" stroke-linecap="round" stroke-linejoin="round"/>
<path d="M81.0172 276.625H-20.6377" stroke="#506179" stroke-opacity="0.23" stroke-width="0.847656" stroke-linecap="round" stroke-linejoin="round"/>
<path d="M81.3033 251.561H-19.2676V353.195H81.3033V251.561Z" stroke="#506179" stroke-opacity="0.23" stroke-width="0.847656" stroke-miterlimit="10"/>
<path d="M106.768 251.14V352.775" stroke="#506179" stroke-opacity="0.23" stroke-width="0.847656" stroke-linecap="round" stroke-linejoin="round"/>
<path d="M132.129 251.14V352.775" stroke="#506179" stroke-opacity="0.23" stroke-width="0.847656" stroke-linecap="round" stroke-linejoin="round"/>
<path d="M157.475 251.14V352.775" stroke="#506179" stroke-opacity="0.23" stroke-width="0.847656" stroke-linecap="round" stroke-linejoin="round"/>
<path d="M182.937 276.625H81.3027" stroke="#506179" stroke-opacity="0.23" stroke-width="0.847656" stroke-linecap="round" stroke-linejoin="round"/>
<path d="M182.976 251.404H81.3418V353.038H182.976V251.404Z" stroke="#506179" stroke-opacity="0.23" stroke-width="0.847656" stroke-miterlimit="10"/>
<path d="M208.402 251.14V352.775" stroke="#506179" stroke-opacity="0.23" stroke-width="0.847656" stroke-linecap="round" stroke-linejoin="round"/>
<path d="M234.3 251.14V352.775" stroke="#506179" stroke-opacity="0.23" stroke-width="0.847656" stroke-linecap="round" stroke-linejoin="round"/>
<path d="M259.085 251.14V352.775" stroke="#506179" stroke-opacity="0.23" stroke-width="0.847656" stroke-linecap="round" stroke-linejoin="round"/>
<path d="M284.572 276.625H182.938" stroke="#506179" stroke-opacity="0.23" stroke-width="0.847656" stroke-linecap="round" stroke-linejoin="round"/>
<path d="M284.61 251.404H182.976V353.038H284.61V251.404Z" stroke="#506179" stroke-opacity="0.23" stroke-width="0.847656" stroke-miterlimit="10"/>
<path d="M310.317 250.586V352.221" stroke="#506179" stroke-opacity="0.23" stroke-width="0.847656" stroke-linecap="round" stroke-linejoin="round"/>
<path d="M335.751 250.586V352.221" stroke="#506179" stroke-opacity="0.23" stroke-width="0.847656" stroke-linecap="round" stroke-linejoin="round"/>
<path d="M386.205 276.07H284.55" stroke="#506179" stroke-opacity="0.23" stroke-width="0.847656" stroke-linecap="round" stroke-linejoin="round"/>
<path d="M386.223 250.851H284.589V352.485H386.223V250.851Z" stroke="#506179" stroke-opacity="0.23" stroke-width="0.847656" stroke-miterlimit="10"/>
<path d="M387.442 -54.1309H-19.9922V353.304H387.442V-54.1309Z" stroke="url(#paint1_linear_4575_12431)" stroke-opacity="0.3" stroke-width="0.847656" stroke-miterlimit="10"/>
<path d="M284.772 46.2539H81.4111V251.278H284.772V46.2539Z" stroke="url(#paint2_linear_4575_12431)" stroke-opacity="0.3" stroke-width="0.847656" stroke-miterlimit="10"/>
<path d="M208.738 122.451H156.963V174.562H208.738V122.451Z" stroke="url(#paint3_linear_4575_12431)" stroke-opacity="0.3" stroke-width="0.847656" stroke-miterlimit="10"/>
<path d="M183.092 199.745C211.4 199.745 234.348 176.673 234.348 148.212C234.348 119.751 211.4 96.6787 183.092 96.6787C154.784 96.6787 131.836 119.751 131.836 148.212C131.836 176.673 154.784 199.745 183.092 199.745Z" stroke="url(#paint4_linear_4575_12431)" stroke-opacity="0.3" stroke-width="0.847656" stroke-miterlimit="10"/>
<path d="M81.166 46.1582L284.541 250.853" stroke="url(#paint5_linear_4575_12431)" stroke-opacity="0.3" stroke-width="0.847656" stroke-miterlimit="10"/>
<path d="M284.541 46.1582L81.166 250.853" stroke="url(#paint6_linear_4575_12431)" stroke-opacity="0.3" stroke-width="0.847656" stroke-miterlimit="10"/>
<path d="M188.742 46.3623C188.591 46.5841 188.528 46.7664 188.409 46.8219C185.176 48.2719 184.297 51.2513 183.504 54.3019C183.496 54.3336 183.504 54.3812 183.481 54.4049C183.37 54.5396 183.243 54.6664 183.124 54.7932C183.005 54.6585 182.839 54.5476 182.783 54.3891C182.324 53.0737 181.943 51.7346 181.428 50.443C180.794 48.8741 179.685 47.7014 178.132 46.9724C177.934 46.8773 177.665 46.6238 177.68 46.4732C177.704 46.2672 177.934 46.0057 178.14 45.9106C180.137 45.0073 181.183 43.3195 181.904 41.3782C182.244 40.4511 182.474 39.4844 182.775 38.5415C182.831 38.3751 183.013 38.2483 183.132 38.0977C183.251 38.2483 183.425 38.3751 183.481 38.5494C183.924 39.8093 184.281 41.1009 184.772 42.3449C185.422 43.9772 186.555 45.1895 188.171 45.9344C188.362 46.0215 188.512 46.1959 188.726 46.3623H188.742ZM178.172 46.3543C178.203 46.4574 178.211 46.4811 178.219 46.4891C178.378 46.5841 178.528 46.6871 178.687 46.7743C180.01 47.432 180.929 48.4859 181.547 49.7933C181.864 50.451 182.134 51.1403 182.379 51.8297C182.649 52.5983 182.87 53.3828 183.132 54.2306C184.075 51.1086 184.756 47.9153 188.243 46.4336C184.733 44.9518 184.091 41.7427 183.124 38.6603C182.855 39.524 182.633 40.3006 182.379 41.0613C181.626 43.3354 180.573 45.3797 178.164 46.3543H178.172Z" fill="black"/>
<path d="M188.258 46.4343C185.271 47.71 184.344 50.2298 183.551 52.8842C183.416 53.328 183.282 53.7875 183.147 54.2313C182.878 53.3834 182.664 52.599 182.386 51.8304C182.141 51.141 181.871 50.4596 181.554 49.794C180.928 48.4786 180.017 47.4326 178.694 46.775C178.527 46.6957 178.377 46.5848 178.218 46.4976C178.203 46.4897 178.203 46.458 178.171 46.3629C180.58 45.3883 181.634 43.3519 182.386 41.0698C182.64 40.3091 182.862 39.5326 183.131 38.6689C183.385 39.4772 183.615 40.2933 183.884 41.0857C184.629 43.3202 185.659 45.3487 188.25 46.4422L188.258 46.4343Z" fill="#FFD384"/>
<g style="mix-blend-mode:multiply" opacity="0.5">
<path d="M183.195 50.1743C183.448 51.0618 183.48 51.9809 183.551 52.8842C183.416 53.328 183.282 53.7875 183.147 54.2313C182.878 53.3834 182.664 52.599 182.386 51.8304C182.141 51.141 181.871 50.4596 181.554 49.794C180.928 48.4786 180.017 47.4326 178.694 46.775C178.527 46.6957 178.377 46.5848 178.218 46.4976C178.203 46.4897 178.203 46.458 178.171 46.3629C180.58 45.3883 181.634 43.3519 182.386 41.0698C182.64 40.3091 182.862 39.5326 183.131 38.6689C183.385 39.4772 183.615 40.2933 183.884 41.0857C183.765 42.5357 183.313 43.962 182.584 45.2457C181.927 46.4105 181.665 46.9255 182.244 48.2567C182.545 48.9382 182.981 49.4453 183.187 50.1822L183.195 50.1743Z" fill="#FFD384"/>
</g>
<path d="M86.49 245.333H75.8438V256.048H86.49V245.333Z" fill="#FE9A4C" stroke="url(#paint7_linear_4575_12431)" stroke-opacity="0.3" stroke-width="0.847656" stroke-linecap="round" stroke-linejoin="round"/>
<path d="M289.905 245.333H279.259V256.048H289.905V245.333Z" fill="#FE9A4C" stroke="url(#paint8_linear_4575_12431)" stroke-opacity="0.3" stroke-width="0.847656" stroke-linecap="round" stroke-linejoin="round"/>
<path d="M188.594 251.231C188.443 251.452 188.38 251.635 188.261 251.69C185.028 253.14 184.148 256.12 183.356 259.17C183.348 259.202 183.356 259.249 183.332 259.273C183.221 259.408 183.094 259.535 182.976 259.662C182.857 259.527 182.69 259.416 182.635 259.257C182.175 257.942 181.795 256.603 181.28 255.311C180.646 253.742 179.537 252.57 177.984 251.841C177.785 251.746 177.516 251.492 177.532 251.342C177.556 251.136 177.785 250.874 177.992 250.779C179.988 249.876 181.034 248.188 181.755 246.247C182.096 245.319 182.326 244.353 182.627 243.41C182.682 243.243 182.865 243.117 182.983 242.966C183.102 243.117 183.277 243.243 183.332 243.418C183.776 244.678 184.132 245.969 184.624 247.213C185.273 248.846 186.407 250.058 188.023 250.803C188.213 250.89 188.364 251.064 188.578 251.231H188.594ZM178.023 251.223C178.055 251.326 178.063 251.349 178.071 251.357C178.229 251.452 178.38 251.555 178.538 251.643C179.862 252.3 180.781 253.354 181.399 254.662C181.716 255.319 181.985 256.009 182.231 256.698C182.5 257.467 182.722 258.251 182.983 259.099C183.926 255.977 184.608 252.784 188.094 251.302C184.584 249.82 183.942 246.611 182.976 243.529C182.706 244.392 182.484 245.169 182.231 245.93C181.478 248.204 180.424 250.248 178.015 251.223H178.023Z" fill="black"/>
<path d="M188.11 251.302C185.123 252.578 184.196 255.097 183.404 257.752C183.269 258.196 183.134 258.655 183 259.099C182.73 258.251 182.516 257.467 182.239 256.698C181.993 256.009 181.724 255.327 181.407 254.662C180.781 253.346 179.87 252.292 178.546 251.643C178.38 251.563 178.229 251.452 178.071 251.365C178.055 251.357 178.055 251.326 178.023 251.231C180.432 250.256 181.486 248.22 182.239 245.938C182.492 245.177 182.714 244.4 182.984 243.537C183.237 244.345 183.467 245.161 183.736 245.953C184.481 248.188 185.511 250.216 188.103 251.31L188.11 251.302Z" fill="#FFD384"/>
<g style="mix-blend-mode:multiply" opacity="0.5">
<path d="M183.047 255.034C183.301 255.921 183.332 256.841 183.404 257.744C183.269 258.188 183.134 258.647 183 259.091C182.73 258.243 182.516 257.459 182.239 256.69C181.993 256.001 181.724 255.319 181.407 254.654C180.781 253.338 179.87 252.284 178.546 251.635C178.38 251.555 178.229 251.444 178.071 251.357C178.055 251.349 178.055 251.318 178.023 251.223C180.432 250.248 181.486 248.212 182.239 245.929C182.492 245.169 182.714 244.392 182.984 243.529C183.237 244.337 183.467 245.153 183.736 245.945C183.618 247.395 183.166 248.822 182.437 250.105C181.779 251.27 181.518 251.785 182.096 253.116C182.397 253.798 182.833 254.305 183.039 255.042L183.047 255.034Z" fill="#FFD384"/>
</g>
<path d="M61.5252 149.733C61.3747 149.955 61.3113 150.137 61.1924 150.193C57.9595 151.643 57.0799 154.622 56.2876 157.673C56.2796 157.705 56.2876 157.752 56.2638 157.776C56.1529 157.911 56.0261 158.037 55.9072 158.164C55.7884 158.029 55.622 157.918 55.5665 157.76C55.1069 156.445 54.7266 155.105 54.2115 153.814C53.5776 152.245 52.4683 151.072 50.9152 150.343C50.7171 150.248 50.4477 149.995 50.4636 149.844C50.4873 149.638 50.7171 149.377 50.9232 149.282C52.92 148.378 53.9659 146.69 54.687 144.749C55.0277 143.822 55.2575 142.855 55.5586 141.912C55.614 141.746 55.7963 141.619 55.9151 141.469C56.034 141.619 56.2083 141.746 56.2638 141.92C56.7075 143.18 57.0641 144.472 57.5554 145.716C58.2051 147.348 59.3382 148.56 60.9547 149.305C61.1449 149.392 61.2954 149.567 61.5093 149.733H61.5252ZM50.9549 149.725C50.9866 149.828 50.9945 149.852 51.0024 149.86C51.1609 149.955 51.3114 150.058 51.4699 150.145C52.7932 150.803 53.7123 151.857 54.3304 153.164C54.6473 153.822 54.9168 154.511 55.1624 155.201C55.4318 155.969 55.6537 156.754 55.9151 157.601C56.8581 154.48 57.5395 151.286 61.026 149.804C57.5158 148.323 56.8739 145.114 55.9072 142.031C55.6378 142.895 55.416 143.671 55.1624 144.432C54.4096 146.706 53.3558 148.751 50.9469 149.725H50.9549Z" fill="black"/>
<path d="M61.0421 149.805C58.0548 151.08 57.1277 153.6 56.3353 156.255C56.2006 156.698 56.0659 157.158 55.9312 157.602C55.6618 156.754 55.4479 155.969 55.1705 155.201C54.9249 154.511 54.6555 153.83 54.3385 153.164C53.7126 151.849 52.8013 150.795 51.478 150.145C51.3116 150.066 51.1611 149.955 51.0026 149.868C50.9868 149.86 50.9868 149.829 50.9551 149.733C53.3639 148.759 54.4178 146.722 55.1705 144.44C55.4241 143.68 55.646 142.903 55.9154 142.039C56.1689 142.848 56.3987 143.664 56.6681 144.456C57.413 146.691 58.4431 148.719 61.0342 149.813L61.0421 149.805Z" fill="#FFD384"/>
<g style="mix-blend-mode:multiply" opacity="0.5">
<path d="M55.9788 153.537C56.2323 154.424 56.264 155.343 56.3353 156.247C56.2006 156.69 56.0659 157.15 55.9312 157.594C55.6618 156.746 55.4479 155.961 55.1705 155.193C54.9249 154.503 54.6555 153.822 54.3385 153.156C53.7126 151.841 52.8013 150.787 51.478 150.137C51.3116 150.058 51.1611 149.947 51.0026 149.86C50.9868 149.852 50.9868 149.82 50.9551 149.725C53.3639 148.751 54.4178 146.714 55.1705 144.432C55.4241 143.671 55.646 142.895 55.9154 142.031C56.1689 142.839 56.3987 143.656 56.6681 144.448C56.5493 145.898 56.0976 147.324 55.3686 148.608C54.7109 149.773 54.4495 150.288 55.0279 151.619C55.329 152.301 55.7648 152.808 55.9708 153.545L55.9788 153.537Z" fill="#FFD384"/>
</g>
<path d="M114.161 122.842C113.947 123.143 113.867 123.396 113.709 123.468C109.272 125.449 108.067 129.545 106.99 133.721C106.974 133.769 106.99 133.832 106.95 133.864C106.792 134.046 106.625 134.22 106.467 134.395C106.308 134.212 106.078 134.054 106.007 133.84C105.381 132.041 104.858 130.195 104.145 128.428C103.281 126.273 101.76 124.672 99.6284 123.666C99.359 123.539 98.9866 123.19 99.0024 122.976C99.0341 122.699 99.3511 122.342 99.6363 122.208C102.37 120.972 103.812 118.658 104.795 115.995C105.27 114.728 105.571 113.396 105.991 112.105C106.063 111.875 106.316 111.701 106.483 111.503C106.649 111.709 106.887 111.891 106.966 112.121C107.568 113.848 108.067 115.623 108.741 117.319C109.628 119.553 111.181 121.225 113.4 122.239C113.661 122.358 113.868 122.596 114.161 122.826V122.842ZM99.676 122.826C99.7235 122.968 99.7235 123 99.7394 123.008C99.9533 123.143 100.159 123.285 100.381 123.396C102.196 124.3 103.448 125.742 104.303 127.54C104.731 128.444 105.112 129.387 105.445 130.33C105.817 131.384 106.118 132.461 106.483 133.626C107.782 129.347 108.701 124.973 113.487 122.937C108.677 120.908 107.79 116.503 106.467 112.279C106.102 113.468 105.793 114.522 105.445 115.576C104.414 118.697 102.964 121.495 99.6601 122.826H99.676Z" fill="black"/>
<path d="M113.495 122.945C109.295 124.736 108.067 128.325 106.958 132.065C106.799 132.588 106.649 133.111 106.49 133.634C106.126 132.461 105.833 131.384 105.46 130.338C105.119 129.395 104.747 128.452 104.311 127.549C103.455 125.75 102.203 124.308 100.389 123.404C100.159 123.294 99.9531 123.151 99.7392 123.024C99.7233 123.008 99.7233 122.977 99.6758 122.834C102.972 121.503 104.422 118.706 105.452 115.584C105.801 114.538 106.11 113.476 106.474 112.287C106.641 112.826 106.799 113.365 106.974 113.904C108.091 117.596 109.303 121.17 113.495 122.945Z" fill="#FFD384"/>
<g style="mix-blend-mode:multiply" opacity="0.5">
<path d="M106.332 128.119C106.617 129.411 106.799 130.742 106.95 132.065C106.791 132.588 106.641 133.111 106.482 133.634C106.118 132.461 105.825 131.384 105.452 130.338C105.112 129.395 104.739 128.452 104.303 127.549C103.448 125.75 102.196 124.308 100.381 123.404C100.151 123.294 99.9453 123.151 99.7313 123.024C99.7155 123.008 99.7155 122.977 99.668 122.834C102.964 121.503 104.414 118.706 105.444 115.584C105.793 114.538 106.102 113.476 106.467 112.287C106.633 112.826 106.791 113.365 106.966 113.904C106.942 116.828 105.753 119.498 104.795 122.469C104.121 124.553 105.872 126.019 106.332 128.119Z" fill="#FFD384"/>
</g>
<path d="M266.439 174.388C266.225 174.689 266.146 174.943 265.987 175.014C261.55 176.995 260.346 181.092 259.268 185.268C259.252 185.315 259.268 185.378 259.228 185.41C259.07 185.592 258.903 185.767 258.745 185.941C258.586 185.759 258.357 185.6 258.285 185.386C257.659 183.588 257.136 181.741 256.423 179.974C255.56 177.819 254.038 176.219 251.907 175.212C251.637 175.085 251.265 174.737 251.281 174.523C251.312 174.246 251.629 173.889 251.915 173.754C254.648 172.518 256.091 170.204 257.073 167.542C257.548 166.274 257.85 164.943 258.27 163.651C258.341 163.422 258.594 163.247 258.761 163.049C258.927 163.255 259.165 163.437 259.244 163.667C259.846 165.395 260.346 167.17 261.019 168.865C261.907 171.1 263.46 172.772 265.678 173.786C265.94 173.905 266.146 174.143 266.439 174.372V174.388ZM251.954 174.372C252.002 174.515 252.002 174.547 252.018 174.555C252.232 174.689 252.438 174.832 252.659 174.943C254.474 175.846 255.726 177.288 256.582 179.087C257.01 179.99 257.39 180.933 257.723 181.876C258.095 182.93 258.396 184.008 258.761 185.172C260.06 180.894 260.979 176.52 265.765 174.483C260.956 172.455 260.068 168.049 258.745 163.826C258.38 165.014 258.071 166.068 257.723 167.122C256.693 170.244 255.243 173.041 251.938 174.372H251.954Z" fill="black"/>
<path d="M265.774 174.491C261.575 176.282 260.346 179.872 259.237 183.612C259.079 184.135 258.928 184.658 258.77 185.181C258.405 184.008 258.112 182.93 257.739 181.884C257.399 180.941 257.026 179.998 256.59 179.095C255.735 177.296 254.483 175.854 252.668 174.951C252.438 174.84 252.232 174.697 252.018 174.571C252.003 174.555 252.003 174.523 251.955 174.38C255.251 173.049 256.701 170.252 257.732 167.13C258.08 166.084 258.389 165.022 258.754 163.834C258.92 164.373 259.079 164.911 259.253 165.45C260.37 169.143 261.583 172.716 265.774 174.491Z" fill="#FFD384"/>
<g style="mix-blend-mode:multiply" opacity="0.5">
<path d="M258.61 179.666C258.895 180.957 259.078 182.288 259.228 183.612C259.07 184.135 258.919 184.658 258.761 185.181C258.396 184.008 258.103 182.93 257.731 181.884C257.39 180.941 257.018 179.998 256.582 179.095C255.726 177.296 254.474 175.854 252.659 174.951C252.43 174.84 252.224 174.697 252.01 174.571C251.994 174.555 251.994 174.523 251.946 174.38C255.243 173.049 256.693 170.252 257.723 167.13C258.071 166.084 258.38 165.022 258.745 163.834C258.911 164.373 259.07 164.911 259.244 165.45C259.22 168.374 258.032 171.045 257.073 174.016C256.399 176.1 258.151 177.566 258.61 179.666Z" fill="#FFD384"/>
</g>
<path d="M-0.733887 225.229C-0.64543 225.282 -0.55798 225.331 -0.464459 225.375L-0.456467 225.379C1.78347 226.49 3.31819 228.273 4.35714 230.449L4.35875 230.452C4.86361 231.534 5.32065 232.648 5.71383 233.772M-0.733887 225.229L6.30309 237.051C6.34389 236.914 6.38469 236.776 6.42555 236.638C6.4579 236.529 6.49029 236.419 6.52273 236.31M-0.733887 225.229C2.90919 223.502 4.56149 220.209 5.71648 216.691C5.98945 215.861 6.24503 215.022 6.51267 214.14C6.54043 214.23 6.56836 214.32 6.59653 214.409C7.86397 218.592 9.19612 222.892 13.7763 225.223M-0.733887 225.229L13.7763 225.223ZM5.71383 233.772C5.71381 233.772 5.71384 233.772 5.71383 233.772ZM5.71383 233.772C6.00476 234.602 6.26156 235.443 6.52273 236.31ZM6.52273 236.31C6.67198 235.807 6.8225 235.302 6.97688 234.801C8.15144 231.008 9.66437 227.329 13.7763 225.223M6.52273 236.31L13.7763 225.223Z" fill="#FFD384"/>
<path d="M-0.733887 225.229C-0.64543 225.282 -0.55798 225.331 -0.464459 225.375L-0.456467 225.379C1.78347 226.49 3.31819 228.273 4.35714 230.449L4.35875 230.452C4.86361 231.534 5.32065 232.648 5.71383 233.772M-0.733887 225.229L6.30309 237.051C6.34389 236.914 6.38469 236.776 6.42555 236.638C6.4579 236.529 6.49029 236.419 6.52273 236.31M-0.733887 225.229C2.90919 223.502 4.56149 220.209 5.71648 216.691C5.98945 215.861 6.24503 215.022 6.51267 214.14C6.54043 214.23 6.56836 214.32 6.59653 214.409C7.86397 218.592 9.19612 222.892 13.7763 225.223M-0.733887 225.229L13.7763 225.223M5.71383 233.772L5.31653 233.911M5.71383 233.772C5.71384 233.772 5.71381 233.772 5.71383 233.772ZM5.71383 233.772C6.00476 234.602 6.26156 235.443 6.52273 236.31M6.52273 236.31C6.67198 235.807 6.8225 235.302 6.97688 234.801C8.15144 231.008 9.66437 227.329 13.7763 225.223M6.52273 236.31L13.7763 225.223" stroke="#40352B" stroke-width="0.847656"/>
<path d="M12.0106 97.0487C11.86 97.2706 11.7966 97.4528 11.6777 97.5083C8.44484 98.9583 7.56529 101.937 6.77291 104.988C6.76499 105.02 6.77291 105.067 6.74914 105.091C6.63821 105.226 6.51144 105.352 6.39258 105.479C6.27373 105.344 6.10731 105.233 6.05184 105.075C5.59226 103.76 5.21193 102.421 4.69688 101.129C4.06297 99.5605 2.95364 98.3878 1.40057 97.6588C1.20248 97.5637 0.933063 97.3102 0.94891 97.1596C0.972682 96.9536 1.20249 96.6921 1.4085 96.597C3.4053 95.6937 4.45125 94.006 5.17231 92.0646C5.51304 91.1375 5.74283 90.1708 6.04393 89.2279C6.0994 89.0615 6.28163 88.9347 6.40049 88.7842C6.51935 88.9347 6.69367 89.0615 6.74914 89.2358C7.19287 90.4957 7.54945 91.7873 8.04072 93.0313C8.69048 94.6636 9.82359 95.876 11.44 96.6208C11.6302 96.708 11.7808 96.8823 11.9947 97.0487H12.0106ZM1.44021 97.0408C1.4719 97.1438 1.47982 97.1676 1.48775 97.1755C1.64622 97.2706 1.79677 97.3736 1.95525 97.4607C3.27852 98.1184 4.19767 99.1723 4.81573 100.479C5.13268 101.137 5.40211 101.826 5.64774 102.516C5.91715 103.284 6.13901 104.069 6.40049 104.917C7.34342 101.795 8.02488 98.6018 11.5114 97.12C8.00111 95.6383 7.35929 92.4291 6.39258 89.3468C6.12317 90.2104 5.90131 90.987 5.64774 91.7477C4.89498 94.0218 3.84111 96.0661 1.43227 97.0408H1.44021Z" fill="black"/>
<path d="M11.5274 97.1209C8.54014 98.3966 7.61306 100.916 6.82068 103.571C6.68597 104.014 6.55128 104.474 6.41658 104.918C6.14717 104.07 5.93321 103.285 5.65588 102.517C5.41024 101.827 5.14084 101.146 4.82389 100.48C4.1979 99.1652 3.28665 98.1113 1.96338 97.4616C1.79698 97.3823 1.64645 97.2714 1.48797 97.1842C1.47212 97.1763 1.47212 97.1446 1.44043 97.0495C3.84927 96.0749 4.90311 94.0385 5.65588 91.7564C5.90944 90.9958 6.13131 90.2192 6.40071 89.3555C6.65428 90.1638 6.88408 90.9799 7.15349 91.7723C7.89832 94.0068 8.92843 96.0353 11.5195 97.1288L11.5274 97.1209Z" fill="#FFD384"/>
<g style="mix-blend-mode:multiply" opacity="0.5">
<path d="M6.46412 100.852C6.71768 101.739 6.74936 102.658 6.82068 103.562C6.68597 104.005 6.55128 104.465 6.41658 104.909C6.14717 104.061 5.93321 103.276 5.65588 102.508C5.41024 101.818 5.14084 101.137 4.82389 100.471C4.19791 99.1564 3.28665 98.1025 1.96338 97.4528C1.79698 97.3735 1.64645 97.2626 1.48797 97.1754C1.47212 97.1675 1.47212 97.1358 1.44043 97.0407C3.84927 96.0661 4.90311 94.0297 5.65588 91.7476C5.90944 90.9869 6.13131 90.2104 6.40072 89.3467C6.65428 90.1549 6.88408 90.9711 7.15349 91.7635C7.03463 93.2135 6.58296 94.6398 5.85397 95.9235C5.19629 97.0882 4.93482 97.6033 5.51325 98.9345C5.81436 99.6159 6.25017 100.123 6.45619 100.86L6.46412 100.852Z" fill="#FFD384"/>
</g>
<path d="M68.7891 -53.0693V136.894C68.7891 140.64 71.8251 143.676 75.5703 143.676H136.232" stroke="#506179" stroke-width="0.847656" stroke-dasharray="3.39 3.39"/>
<path d="M56.833 -50.9053V135.594C56.833 146.83 65.9412 155.938 77.1768 155.938H136.232" stroke="#506179" stroke-width="0.847656" stroke-dasharray="3.39 3.39"/>
<path d="M62.9639 -49.4072V137.939C62.9639 144.493 68.277 149.806 74.8311 149.806H136.232" stroke="url(#paint9_linear_4575_12431)" stroke-width="1.69531"/>
<path d="M284.625 -49.1406L284.626 137.207C284.626 143.761 279.313 149.074 272.759 149.074H214.424" stroke="#506179" stroke-width="0.847656"/>
<path d="M277.572 -52.0195V136.162C277.572 139.907 274.536 142.943 270.791 142.943H214.421" stroke="#506179" stroke-width="0.847656" stroke-dasharray="3.39 3.39"/>
<path d="M291.981 -48.6602V134.862C291.981 146.097 282.873 155.206 271.638 155.206H214.422" stroke="#506179" stroke-width="0.847656" stroke-dasharray="3.39 3.39"/>
<path d="M304.032 56.9238H246.178C243.058 56.9238 240.529 59.4529 240.529 62.5728V79.4272C240.529 82.547 243.058 85.0761 246.178 85.0761H304.032C307.152 85.0761 309.681 82.547 309.681 79.4272V62.5728C309.681 59.4529 307.152 56.9238 304.032 56.9238Z" fill="#FFECD4"/>
<path d="M304.032 56.9238H246.178C243.058 56.9238 240.529 59.4529 240.529 62.5728V79.4272C240.529 82.547 243.058 85.0761 246.178 85.0761H304.032C307.152 85.0761 309.681 82.547 309.681 79.4272V62.5728C309.681 59.4529 307.152 56.9238 304.032 56.9238Z" fill="#506179" fill-opacity="0.1"/>
<path d="M304.032 56.9238H246.178C243.058 56.9238 240.529 59.4529 240.529 62.5728V79.4272C240.529 82.547 243.058 85.0761 246.178 85.0761H304.032C307.152 85.0761 309.681 82.547 309.681 79.4272V62.5728C309.681 59.4529 307.152 56.9238 304.032 56.9238Z" stroke="#141416" stroke-width="0.847656"/>
<path d="M255.132 77.234C254.28 77.234 253.479 77.066 252.729 76.73C251.979 76.388 251.319 75.917 250.749 75.317C250.179 74.717 249.732 74.024 249.408 73.238C249.084 72.446 248.922 71.6 248.922 70.7C248.922 69.8 249.084 68.957 249.408 68.171C249.732 67.379 250.179 66.683 250.749 66.083C251.319 65.483 251.979 65.015 252.729 64.679C253.479 64.337 254.28 64.166 255.132 64.166C255.99 64.166 256.794 64.337 257.544 64.679C258.294 65.015 258.954 65.483 259.524 66.083C260.094 66.683 260.538 67.379 260.856 68.171C261.18 68.957 261.342 69.8 261.342 70.7C261.342 71.6 261.18 72.446 260.856 73.238C260.538 74.024 260.094 74.717 259.524 75.317C258.954 75.917 258.294 76.388 257.544 76.73C256.794 77.066 255.99 77.234 255.132 77.234ZM255.132 75.722C255.786 75.722 256.395 75.59 256.959 75.326C257.529 75.062 258.027 74.699 258.453 74.237C258.885 73.769 259.221 73.235 259.461 72.635C259.707 72.029 259.83 71.384 259.83 70.7C259.83 70.016 259.707 69.371 259.461 68.765C259.215 68.153 258.876 67.619 258.444 67.163C258.018 66.701 257.52 66.338 256.95 66.074C256.386 65.81 255.78 65.678 255.132 65.678C254.478 65.678 253.866 65.81 253.296 66.074C252.732 66.338 252.234 66.704 251.802 67.172C251.376 67.634 251.04 68.168 250.794 68.774C250.554 69.374 250.434 70.016 250.434 70.7C250.434 71.39 250.557 72.038 250.803 72.644C251.049 73.25 251.385 73.784 251.811 74.246C252.243 74.708 252.741 75.071 253.305 75.335C253.875 75.593 254.484 75.722 255.132 75.722ZM267.796 69.512H265.753L265.744 77H264.232L264.241 69.512H262.693V68H264.241L264.232 65.174H265.744L265.753 68H267.796V69.512ZM277.365 71.402V77H275.853V71.735C275.853 71.279 275.742 70.865 275.52 70.493C275.298 70.121 275.001 69.827 274.629 69.611C274.257 69.389 273.843 69.278 273.387 69.278C272.937 69.278 272.523 69.389 272.145 69.611C271.773 69.827 271.476 70.121 271.254 70.493C271.032 70.865 270.921 71.279 270.921 71.735V77H269.409V63.5H270.921V69.125C271.239 68.705 271.641 68.372 272.127 68.126C272.613 67.874 273.141 67.748 273.711 67.748C274.383 67.748 274.995 67.913 275.547 68.243C276.105 68.567 276.546 69.005 276.87 69.557C277.2 70.109 277.365 70.724 277.365 71.402ZM282.949 77.234C282.121 77.234 281.365 77.021 280.681 76.595C280.003 76.169 279.46 75.599 279.052 74.885C278.65 74.165 278.449 73.37 278.449 72.5C278.449 71.84 278.566 71.225 278.8 70.655C279.034 70.079 279.355 69.575 279.763 69.143C280.177 68.705 280.657 68.363 281.203 68.117C281.749 67.871 282.331 67.748 282.949 67.748C283.627 67.748 284.248 67.886 284.812 68.162C285.382 68.432 285.868 68.81 286.27 69.296C286.678 69.782 286.981 70.346 287.179 70.988C287.383 71.63 287.458 72.317 287.404 73.049H280.06C280.132 73.559 280.3 74.015 280.564 74.417C280.828 74.813 281.164 75.128 281.572 75.362C281.986 75.596 282.445 75.716 282.949 75.722C283.489 75.722 283.978 75.584 284.416 75.308C284.854 75.026 285.208 74.642 285.478 74.156L287.017 74.516C286.657 75.314 286.114 75.968 285.388 76.478C284.662 76.982 283.849 77.234 282.949 77.234ZM280.015 71.861H285.883C285.835 71.357 285.673 70.898 285.397 70.484C285.121 70.064 284.77 69.728 284.344 69.476C283.918 69.224 283.453 69.098 282.949 69.098C282.445 69.098 281.983 69.221 281.563 69.467C281.143 69.713 280.795 70.046 280.519 70.466C280.249 70.88 280.081 71.345 280.015 71.861ZM288.921 77V68H290.433V69.125C290.751 68.705 291.153 68.372 291.639 68.126C292.125 67.874 292.653 67.748 293.223 67.748C293.571 67.748 293.907 67.793 294.231 67.883L293.619 69.395C293.373 69.317 293.133 69.278 292.899 69.278C292.449 69.278 292.035 69.389 291.657 69.611C291.285 69.827 290.988 70.121 290.766 70.493C290.544 70.865 290.433 71.279 290.433 71.735V77H288.921ZM298.082 77.171C297.596 77.153 297.122 77.063 296.66 76.901C296.204 76.733 295.802 76.508 295.454 76.226C295.112 75.938 294.863 75.608 294.707 75.236L296.003 74.678C296.093 74.882 296.255 75.074 296.489 75.254C296.723 75.434 296.993 75.578 297.299 75.686C297.605 75.794 297.914 75.848 298.226 75.848C298.556 75.848 298.865 75.797 299.153 75.695C299.441 75.593 299.675 75.443 299.855 75.245C300.041 75.041 300.134 74.798 300.134 74.516C300.134 74.216 300.032 73.982 299.828 73.814C299.63 73.64 299.378 73.505 299.072 73.409C298.772 73.307 298.466 73.211 298.154 73.121C297.536 72.965 296.984 72.779 296.498 72.563C296.012 72.341 295.628 72.062 295.346 71.726C295.07 71.384 294.932 70.949 294.932 70.421C294.932 69.863 295.085 69.38 295.391 68.972C295.703 68.564 296.111 68.249 296.615 68.027C297.119 67.805 297.659 67.694 298.235 67.694C298.961 67.694 299.624 67.85 300.224 68.162C300.824 68.474 301.271 68.897 301.565 69.431L300.35 70.142C300.248 69.926 300.092 69.737 299.882 69.575C299.672 69.407 299.432 69.275 299.162 69.179C298.892 69.083 298.616 69.032 298.334 69.026C297.986 69.014 297.659 69.059 297.353 69.161C297.053 69.263 296.81 69.419 296.624 69.629C296.444 69.833 296.354 70.088 296.354 70.394C296.354 70.694 296.45 70.922 296.642 71.078C296.84 71.234 297.095 71.36 297.407 71.456C297.725 71.546 298.07 71.651 298.442 71.771C298.988 71.945 299.498 72.146 299.972 72.374C300.446 72.602 300.827 72.887 301.115 73.229C301.409 73.571 301.553 73.994 301.547 74.498C301.547 75.05 301.382 75.533 301.052 75.947C300.722 76.355 300.293 76.667 299.765 76.883C299.243 77.099 298.682 77.195 298.082 77.171Z" fill="#141416"/>
<path d="M346.105 207.847C341.603 207.847 337.953 211.497 337.953 215.999C337.953 220.501 341.603 224.151 346.105 224.151H377.105C381.607 224.151 385.257 220.501 385.257 215.999C385.257 211.497 381.607 207.847 377.105 207.847H346.105Z" fill="url(#paint10_linear_4575_12431)"/>
<path d="M346.105 207.847C341.603 207.847 337.953 211.497 337.953 215.999C337.953 220.501 341.603 224.151 346.105 224.151H377.105C381.607 224.151 385.257 220.501 385.257 215.999C385.257 211.497 381.607 207.847 377.105 207.847H346.105Z" fill="#FFECD4" fill-opacity="0.7"/>
<path d="M346.105 207.847C341.603 207.847 337.953 211.497 337.953 215.999C337.953 220.501 341.603 224.151 346.105 224.151H377.105C381.607 224.151 385.257 220.501 385.257 215.999C385.257 211.497 381.607 207.847 377.105 207.847H346.105Z" stroke="url(#paint11_linear_4575_12431)" stroke-width="1.69531"/>
<path d="M219.638 221H143.572C136.134 221 130.105 227.029 130.105 234.467V252.533C130.105 259.971 136.134 266 143.572 266H219.638C227.076 266 233.105 259.971 233.105 252.533V234.467C233.105 227.029 227.076 221 219.638 221Z" fill="url(#paint12_linear_4575_12431)"/>
<path d="M219.638 221H143.572C136.134 221 130.105 227.029 130.105 234.467V252.533C130.105 259.971 136.134 266 143.572 266H219.638C227.076 266 233.105 259.971 233.105 252.533V234.467C233.105 227.029 227.076 221 219.638 221Z" fill="#FFECD4" fill-opacity="0.8"/>
<path d="M219.638 221H143.572C136.134 221 130.105 227.029 130.105 234.467V252.533C130.105 259.971 136.134 266 143.572 266H219.638C227.076 266 233.105 259.971 233.105 252.533V234.467C233.105 227.029 227.076 221 219.638 221Z" stroke="url(#paint13_linear_4575_12431)" stroke-width="2"/>
<mask id="mask1_4575_12431" style="mask-type:luminance" maskUnits="userSpaceOnUse" x="137" y="229" width="30" height="29">
<path d="M166.838 229.033H137.905V257.967H166.838V229.033Z" fill="white"/>
</mask>
<g mask="url(#mask1_4575_12431)">
<path d="M149.068 245.04C147.623 246.704 147.694 249.285 149.222 250.878C150.074 251.773 151.217 252.217 152.354 252.217C153.467 252.217 154.575 251.79 155.422 250.943C155.807 250.559 156.109 250.114 156.316 249.647L161.912 238.798C162.06 238.49 161.74 238.17 161.432 238.318L150.584 243.914C150.021 244.163 149.506 244.542 149.068 245.04ZM151.045 246.567C151.407 246.206 151.88 246.023 152.354 246.023C152.828 246.023 153.302 246.206 153.669 246.567C154.391 247.29 154.391 248.468 153.669 249.191C153.308 249.552 152.834 249.735 152.354 249.735C151.88 249.735 151.407 249.552 151.045 249.191C150.317 248.462 150.317 247.29 151.045 246.567ZM163.973 249.25C163.973 247.201 163.434 245.188 162.409 243.429C162.012 242.742 162.243 241.866 162.93 241.469C163.617 241.072 164.494 241.303 164.89 241.99C166.164 244.187 166.839 246.698 166.839 249.25C166.839 250.043 166.199 250.683 165.406 250.683C164.618 250.683 163.973 250.043 163.973 249.25ZM137.905 249.25C137.905 241.273 144.395 234.783 152.372 234.783C154.225 234.783 156.032 235.127 157.737 235.814C158.471 236.11 158.827 236.939 158.536 237.673C158.24 238.407 157.411 238.763 156.677 238.472C155.309 237.928 153.858 237.649 152.372 237.649C145.977 237.649 140.771 242.854 140.771 249.25C140.771 250.043 140.132 250.683 139.338 250.683C138.545 250.683 137.905 250.043 137.905 249.25Z" fill="url(#paint14_linear_4575_12431)"/>
</g>
<path d="M179.885 251.5L182.979 246.152C182.22 246.198 181.495 246.095 180.805 245.842C180.123 245.589 179.513 245.213 178.977 244.715C178.44 244.217 178.015 243.626 177.7 242.944C177.394 242.262 177.24 241.522 177.24 240.724C177.24 239.95 177.386 239.226 177.677 238.551C177.969 237.869 178.371 237.271 178.885 236.757C179.406 236.236 180.004 235.829 180.679 235.538C181.361 235.247 182.093 235.101 182.875 235.101C183.895 235.101 184.826 235.354 185.67 235.86C186.521 236.366 187.199 237.044 187.705 237.895C188.219 238.746 188.476 239.689 188.476 240.724C188.476 241.238 188.411 241.725 188.28 242.185C188.158 242.637 187.962 243.097 187.694 243.565L183.128 251.5H179.885ZM182.852 243.542C183.404 243.542 183.891 243.408 184.313 243.139C184.742 242.871 185.076 242.522 185.313 242.093C185.551 241.664 185.67 241.204 185.67 240.713C185.67 240.176 185.539 239.697 185.279 239.275C185.018 238.846 184.673 238.513 184.244 238.275C183.814 238.03 183.358 237.907 182.875 237.907C182.323 237.907 181.833 238.041 181.403 238.309C180.982 238.57 180.648 238.915 180.403 239.344C180.157 239.774 180.035 240.23 180.035 240.713C180.035 241.227 180.157 241.698 180.403 242.127C180.656 242.557 180.993 242.902 181.415 243.162C181.844 243.415 182.323 243.542 182.852 243.542ZM196.131 251.799C195.196 251.799 194.345 251.584 193.578 251.155C192.811 250.718 192.148 250.116 191.588 249.349C191.036 248.583 190.611 247.697 190.312 246.693C190.013 245.681 189.863 244.6 189.863 243.45C189.863 242.3 190.013 241.223 190.312 240.218C190.611 239.206 191.036 238.317 191.588 237.55C192.148 236.784 192.811 236.186 193.578 235.756C194.345 235.319 195.196 235.101 196.131 235.101C197.066 235.101 197.917 235.319 198.684 235.756C199.451 236.186 200.106 236.784 200.65 237.55C201.202 238.317 201.628 239.206 201.927 240.218C202.234 241.223 202.387 242.3 202.387 243.45C202.387 244.6 202.234 245.681 201.927 246.693C201.628 247.697 201.202 248.583 200.65 249.349C200.106 250.116 199.451 250.718 198.684 251.155C197.917 251.584 197.066 251.799 196.131 251.799ZM196.131 248.993C196.951 248.993 197.63 248.732 198.166 248.211C198.703 247.69 199.102 247.007 199.362 246.164C199.623 245.321 199.753 244.416 199.753 243.45C199.753 242.43 199.615 241.503 199.339 240.667C199.063 239.824 198.657 239.153 198.12 238.654C197.584 238.156 196.921 237.907 196.131 237.907C195.51 237.907 194.969 238.06 194.509 238.367C194.057 238.666 193.681 239.076 193.382 239.597C193.083 240.119 192.861 240.713 192.715 241.38C192.57 242.039 192.497 242.729 192.497 243.45C192.497 244.408 192.627 245.313 192.888 246.164C193.156 247.007 193.559 247.69 194.095 248.211C194.64 248.732 195.318 248.993 196.131 248.993ZM205.48 251.5L214.772 235.4H218.015L208.723 251.5H205.48ZM207.458 242.38C206.829 242.38 206.251 242.231 205.722 241.932C205.2 241.625 204.782 241.211 204.468 240.69C204.154 240.169 203.997 239.586 203.997 238.942C203.997 238.283 204.154 237.692 204.468 237.171C204.79 236.65 205.212 236.239 205.733 235.94C206.262 235.641 206.837 235.492 207.458 235.492C208.087 235.492 208.662 235.645 209.183 235.952C209.704 236.259 210.118 236.673 210.425 237.194C210.739 237.715 210.897 238.298 210.897 238.942C210.897 239.594 210.736 240.18 210.414 240.701C210.099 241.223 209.681 241.633 209.16 241.932C208.639 242.231 208.071 242.38 207.458 242.38ZM207.458 240.46C207.872 240.46 208.229 240.314 208.528 240.023C208.827 239.724 208.976 239.364 208.976 238.942C208.976 238.513 208.827 238.152 208.528 237.861C208.229 237.57 207.872 237.424 207.458 237.424C207.036 237.424 206.672 237.57 206.366 237.861C206.067 238.152 205.917 238.513 205.917 238.942C205.917 239.364 206.067 239.724 206.366 240.023C206.672 240.314 207.036 240.46 207.458 240.46ZM216.037 251.419C215.401 251.419 214.822 251.262 214.301 250.948C213.779 250.626 213.365 250.204 213.059 249.683C212.752 249.154 212.599 248.587 212.599 247.981C212.599 247.322 212.756 246.731 213.07 246.21C213.392 245.689 213.814 245.278 214.335 244.979C214.864 244.673 215.431 244.519 216.037 244.519C216.696 244.519 217.287 244.68 217.808 245.003C218.329 245.324 218.74 245.75 219.039 246.279C219.345 246.8 219.499 247.368 219.499 247.981C219.499 248.61 219.341 249.185 219.027 249.706C218.72 250.227 218.303 250.645 217.774 250.959C217.252 251.266 216.673 251.419 216.037 251.419ZM216.037 249.499C216.466 249.499 216.831 249.349 217.13 249.05C217.429 248.751 217.578 248.395 217.578 247.981C217.578 247.552 217.429 247.187 217.13 246.888C216.831 246.589 216.466 246.44 216.037 246.44C215.623 246.44 215.267 246.589 214.968 246.888C214.669 247.187 214.519 247.552 214.519 247.981C214.519 248.395 214.669 248.751 214.968 249.05C215.267 249.349 215.623 249.499 216.037 249.499Z" fill="#141416"/>
<mask id="mask2_4575_12431" style="mask-type:luminance" maskUnits="userSpaceOnUse" x="57" y="117" width="12" height="11">
<path d="M68.1055 117H57.1055V128H68.1055V117Z" fill="white"/>
</mask>
<g mask="url(#mask2_4575_12431)">
<path d="M68.1055 122.5C68.1055 119.462 65.643 117 62.6055 117C59.5679 117 57.1055 119.462 57.1055 122.5C57.1055 125.538 59.5679 128 62.6055 128C65.643 128 68.1055 125.538 68.1055 122.5Z" fill="url(#paint15_linear_4575_12431)"/>
<path d="M63.5406 123.579C61.8082 124.083 60.3751 124.819 59.4781 125.681L59.4385 125.719C59.677 125.938 59.9386 126.133 60.2213 126.3L60.2821 126.228C60.5271 125.938 60.7896 125.657 61.0631 125.393C61.7972 124.684 62.6371 124.071 63.5415 123.578L63.5406 123.579Z" fill="#141416"/>
<path d="M58.0225 122.832C58.0915 123.731 58.436 124.555 58.9766 125.226L59.0015 125.202C59.5568 124.671 60.2798 124.188 61.152 123.767C61.9164 123.398 62.7941 123.082 63.74 122.832H58.0225Z" fill="#141416"/>
<path d="M61.5476 119.136C63.0976 120.633 65.0483 121.623 67.1878 121.998C66.9299 119.779 64.9811 118.053 62.6132 118.053C61.9878 118.053 61.392 118.174 60.8477 118.392C61.0687 118.65 61.3045 118.901 61.5476 119.136Z" fill="#141416"/>
<path d="M59.4791 119.32C60.3761 120.182 61.8092 120.917 63.5416 121.422C62.6371 120.929 61.7972 120.316 61.0632 119.607C60.7906 119.344 60.5281 119.064 60.2822 118.773L60.2214 118.701C59.9386 118.867 59.6771 119.063 59.4395 119.281L59.4791 119.32Z" fill="#141416"/>
<path d="M61.5476 125.864C61.3035 126.099 61.0678 126.35 60.8477 126.608C61.391 126.826 61.9878 126.947 62.6132 126.947C64.9811 126.947 66.9299 125.221 67.1887 123.001C65.0492 123.376 63.0986 124.366 61.5485 125.863L61.5476 125.864Z" fill="#141416"/>
<path d="M61.152 121.233C60.2798 120.812 59.5568 120.329 59.0015 119.798L58.9766 119.774C58.436 120.445 58.0915 121.269 58.0225 122.168H63.7391C62.7932 121.919 61.9164 121.602 61.1511 121.232L61.152 121.233Z" fill="#141416"/>
</g>
<mask id="mask3_4575_12431" style="mask-type:luminance" maskUnits="userSpaceOnUse" x="57" y="105" width="12" height="10">
<path d="M68.1055 105H57.1055V115H68.1055V105Z" fill="white"/>
</mask>
<g mask="url(#mask3_4575_12431)">
<path d="M68.1055 110C68.1055 107.239 65.643 105 62.6055 105C59.5679 105 57.1055 107.239 57.1055 110C57.1055 112.761 59.5679 115 62.6055 115C65.643 115 68.1055 112.761 68.1055 110Z" fill="url(#paint16_linear_4575_12431)"/>
<path d="M63.5406 110.981C61.8082 111.439 60.3751 112.108 59.4781 112.891L59.4385 112.926C59.677 113.125 59.9386 113.303 60.2213 113.454L60.2821 113.389C60.5271 113.125 60.7896 112.87 61.0631 112.63C61.7972 111.986 62.6371 111.428 63.5415 110.98L63.5406 110.981Z" fill="#141416"/>
<path d="M58.0225 110.301C58.0915 111.119 58.436 111.868 58.9766 112.478L59.0015 112.456C59.5568 111.973 60.2798 111.534 61.152 111.152C61.9164 110.816 62.7941 110.529 63.74 110.301H58.0225Z" fill="#141416"/>
<path d="M61.5476 106.942C63.0976 108.303 65.0483 109.203 67.1878 109.544C66.9299 107.527 64.9811 105.957 62.6132 105.957C61.9878 105.957 61.392 106.067 60.8477 106.265C61.0687 106.5 61.3045 106.728 61.5476 106.942Z" fill="#141416"/>
<path d="M59.4791 107.109C60.3761 107.893 61.8092 108.561 63.5416 109.02C62.6371 108.571 61.7972 108.014 61.0632 107.37C60.7906 107.13 60.5281 106.876 60.2822 106.611L60.2214 106.546C59.9386 106.697 59.6771 106.875 59.4395 107.074L59.4791 107.109Z" fill="#141416"/>
<path d="M61.5476 113.058C61.3035 113.272 61.0678 113.5 60.8477 113.734C61.391 113.932 61.9878 114.042 62.6132 114.042C64.9811 114.042 66.9299 112.473 67.1887 110.455C65.0492 110.796 63.0986 111.696 61.5485 113.057L61.5476 113.058Z" fill="#141416"/>
<path d="M61.152 108.848C60.2798 108.465 59.5568 108.026 59.0015 107.544L58.9766 107.522C58.436 108.131 58.0915 108.881 58.0225 109.698H63.7391C62.7932 109.471 61.9164 109.183 61.1511 108.847L61.152 108.848Z" fill="#141416"/>
</g>
<mask id="mask4_4575_12431" style="mask-type:luminance" maskUnits="userSpaceOnUse" x="57" y="93" width="12" height="10">
<path d="M68.1055 93H57.1055V103H68.1055V93Z" fill="white"/>
</mask>
<g mask="url(#mask4_4575_12431)">
<path d="M68.1055 98C68.1055 95.2386 65.643 93 62.6055 93C59.5679 93 57.1055 95.2386 57.1055 98C57.1055 100.761 59.5679 103 62.6055 103C65.643 103 68.1055 100.761 68.1055 98Z" fill="url(#paint17_linear_4575_12431)"/>
<path d="M63.5406 98.9813C61.8082 99.4397 60.3751 100.108 59.4781 100.892L59.4385 100.926C59.677 101.125 59.9386 101.303 60.2213 101.454L60.2821 101.389C60.5271 101.125 60.7896 100.87 61.0631 100.63C61.7972 99.9863 62.6371 99.4284 63.5415 98.9805L63.5406 98.9813Z" fill="#141416"/>
<path d="M58.0225 98.3018C58.0915 99.1193 58.436 99.8687 58.9766 100.478L59.0015 100.456C59.5568 99.9738 60.2798 99.5348 61.152 99.1524C61.9164 98.8169 62.7941 98.529 63.74 98.3018H58.0225Z" fill="#141416"/>
<path d="M61.5476 94.9418C63.0976 96.3025 65.0483 97.2024 67.1878 97.5435C66.9299 95.5263 64.9811 93.957 62.6132 93.957C61.9878 93.957 61.392 94.067 60.8477 94.2651C61.0687 94.4995 61.3045 94.7275 61.5476 94.9418Z" fill="#141416"/>
<path d="M59.4791 95.1087C60.3761 95.8929 61.8092 96.5608 63.5416 97.02C62.6371 96.5713 61.7972 96.0142 61.0632 95.3698C60.7906 95.1305 60.5281 94.8758 60.2822 94.6114L60.2214 94.5459C59.9386 94.6971 59.6771 94.875 59.4395 95.0739L59.4791 95.1087Z" fill="#141416"/>
<path d="M61.5476 101.058C61.3035 101.272 61.0678 101.5 60.8477 101.735C61.391 101.933 61.9878 102.043 62.6132 102.043C64.9811 102.043 66.9299 100.473 67.1887 98.4551C65.0492 98.7963 63.0986 99.6962 61.5485 101.057L61.5476 101.058Z" fill="#141416"/>
<path d="M61.152 96.8484C60.2798 96.466 59.5568 96.027 59.0015 95.5443L58.9766 95.5225C58.436 96.1321 58.0915 96.8816 58.0225 97.699H63.7391C62.7932 97.4718 61.9164 97.184 61.1511 96.8476L61.152 96.8484Z" fill="#141416"/>
</g>
<mask id="mask5_4575_12431" style="mask-type:luminance" maskUnits="userSpaceOnUse" x="57" y="81" width="12" height="10">
<path d="M68.1055 81H57.1055V91H68.1055V81Z" fill="white"/>
</mask>
<g mask="url(#mask5_4575_12431)">
<path d="M68.1055 86C68.1055 83.2386 65.643 81 62.6055 81C59.5679 81 57.1055 83.2386 57.1055 86C57.1055 88.7614 59.5679 91 62.6055 91C65.643 91 68.1055 88.7614 68.1055 86Z" fill="url(#paint18_linear_4575_12431)"/>
<path d="M63.5406 86.9813C61.8082 87.4397 60.3751 88.1084 59.4781 88.8919L59.4385 88.9266C59.677 89.1255 59.9386 89.3034 60.2213 89.4545L60.2821 89.3891C60.5271 89.1255 60.7896 88.8708 61.0631 88.6307C61.7972 87.9863 62.6371 87.4284 63.5415 86.9805L63.5406 86.9813Z" fill="#141416"/>
<path d="M58.0225 86.3018C58.0915 87.1193 58.436 87.8687 58.9766 88.4784L59.0015 88.4565C59.5568 87.9738 60.2798 87.5348 61.152 87.1524C61.9164 86.8169 62.7941 86.529 63.74 86.3018H58.0225Z" fill="#141416"/>
<path d="M61.5476 82.9418C63.0976 84.3025 65.0483 85.2024 67.1878 85.5435C66.9299 83.5263 64.9811 81.957 62.6132 81.957C61.9878 81.957 61.392 82.067 60.8477 82.2651C61.0687 82.4995 61.3045 82.7275 61.5476 82.9418Z" fill="#141416"/>
<path d="M59.4791 83.1087C60.3761 83.8929 61.8092 84.5608 63.5416 85.02C62.6371 84.5713 61.7972 84.0142 61.0632 83.3698C60.7906 83.1305 60.5281 82.8758 60.2822 82.6114L60.2214 82.5459C59.9386 82.6971 59.6771 82.875 59.4395 83.0739L59.4791 83.1087Z" fill="#141416"/>
<path d="M61.5476 89.0577C61.3035 89.272 61.0678 89.5 60.8477 89.7344C61.391 89.9325 61.9878 90.0425 62.6132 90.0425C64.9811 90.0425 66.9299 88.4732 67.1887 86.4551C65.0492 86.7963 63.0986 87.6962 61.5485 89.0569L61.5476 89.0577Z" fill="#141416"/>
<path d="M61.152 84.8484C60.2798 84.466 59.5568 84.027 59.0015 83.5443L58.9766 83.5225C58.436 84.1321 58.0915 84.8816 58.0225 85.699H63.7391C62.7932 85.4718 61.9164 85.184 61.1511 84.8476L61.152 84.8484Z" fill="#141416"/>
</g>
<mask id="mask6_4575_12431" style="mask-type:luminance" maskUnits="userSpaceOnUse" x="57" y="69" width="12" height="10">
<path d="M68.1055 69H57.1055V79H68.1055V69Z" fill="white"/>
</mask>
<g mask="url(#mask6_4575_12431)">
<path d="M68.1055 74C68.1055 71.2386 65.643 69 62.6055 69C59.5679 69 57.1055 71.2386 57.1055 74C57.1055 76.7614 59.5679 79 62.6055 79C65.643 79 68.1055 76.7614 68.1055 74Z" fill="url(#paint19_linear_4575_12431)"/>
<path d="M63.5406 74.9813C61.8082 75.4397 60.3751 76.1084 59.4781 76.8918L59.4385 76.9266C59.677 77.1255 59.9386 77.3034 60.2213 77.4545L60.2821 77.3891C60.5271 77.1255 60.7896 76.8708 61.0631 76.6307C61.7972 75.9863 62.6371 75.4284 63.5415 74.9805L63.5406 74.9813Z" fill="#141416"/>
<path d="M58.0225 74.3018C58.0915 75.1193 58.436 75.8687 58.9766 76.4784L59.0015 76.4565C59.5568 75.9738 60.2798 75.5348 61.152 75.1524C61.9164 74.8169 62.7941 74.529 63.74 74.3018H58.0225Z" fill="#141416"/>
<path d="M61.5476 70.9418C63.0976 72.3025 65.0483 73.2024 67.1878 73.5435C66.9299 71.5263 64.9811 69.957 62.6132 69.957C61.9878 69.957 61.392 70.067 60.8477 70.2651C61.0687 70.4995 61.3045 70.7275 61.5476 70.9418Z" fill="#141416"/>
<path d="M59.4791 71.1087C60.3761 71.8929 61.8092 72.5608 63.5416 73.02C62.6371 72.5713 61.7972 72.0142 61.0632 71.3698C60.7906 71.1305 60.5281 70.8758 60.2822 70.6114L60.2214 70.5459C59.9386 70.6971 59.6771 70.875 59.4395 71.0739L59.4791 71.1087Z" fill="#141416"/>
<path d="M61.5476 77.0577C61.3035 77.2719 61.0678 77.4999 60.8477 77.7344C61.391 77.9325 61.9878 78.0424 62.6132 78.0424C64.9811 78.0424 66.9299 76.4731 67.1887 74.4551C65.0492 74.7963 63.0986 75.6962 61.5485 77.0569L61.5476 77.0577Z" fill="#141416"/>
<path d="M61.152 72.8484C60.2798 72.466 59.5568 72.027 59.0015 71.5443L58.9766 71.5225C58.436 72.1321 58.0915 72.8816 58.0225 73.699H63.7391C62.7932 73.4718 61.9164 73.184 61.1511 72.8476L61.152 72.8484Z" fill="#141416"/>
</g>
<mask id="mask7_4575_12431" style="mask-type:luminance" maskUnits="userSpaceOnUse" x="57" y="130" width="12" height="10">
<path d="M68.1055 130H57.1055V140H68.1055V130Z" fill="white"/>
</mask>
<g mask="url(#mask7_4575_12431)">
<path d="M68.1055 135C68.1055 132.239 65.643 130 62.6055 130C59.5679 130 57.1055 132.239 57.1055 135C57.1055 137.761 59.5679 140 62.6055 140C65.643 140 68.1055 137.761 68.1055 135Z" fill="url(#paint20_linear_4575_12431)"/>
<path d="M63.5406 135.981C61.8082 136.439 60.3751 137.108 59.4781 137.892L59.4385 137.926C59.677 138.125 59.9386 138.303 60.2213 138.454L60.2821 138.389C60.5271 138.125 60.7896 137.87 61.0631 137.63C61.7972 136.986 62.6371 136.428 63.5415 135.98L63.5406 135.981Z" fill="#141416"/>
<path d="M58.0225 135.302C58.0915 136.119 58.436 136.869 58.9766 137.478L59.0015 137.456C59.5568 136.974 60.2798 136.535 61.152 136.152C61.9164 135.817 62.7941 135.529 63.74 135.302H58.0225Z" fill="#141416"/>
<path d="M61.5476 131.942C63.0976 133.303 65.0483 134.203 67.1878 134.544C66.9299 132.527 64.9811 130.958 62.6132 130.958C61.9878 130.958 61.392 131.068 60.8477 131.266C61.0687 131.5 61.3045 131.728 61.5476 131.942Z" fill="#141416"/>
<path d="M59.4791 132.109C60.3761 132.893 61.8092 133.561 63.5416 134.02C62.6371 133.572 61.7972 133.015 61.0632 132.37C60.7906 132.131 60.5281 131.876 60.2822 131.612L60.2214 131.546C59.9386 131.697 59.6771 131.875 59.4395 132.074L59.4791 132.109Z" fill="#141416"/>
<path d="M61.5476 138.058C61.3035 138.272 61.0678 138.5 60.8477 138.735C61.391 138.933 61.9878 139.043 62.6132 139.043C64.9811 139.043 66.9299 137.473 67.1887 135.455C65.0492 135.796 63.0986 136.696 61.5485 138.057L61.5476 138.058Z" fill="#141416"/>
<path d="M61.152 133.848C60.2798 133.466 59.5568 133.027 59.0015 132.544L58.9766 132.522C58.436 133.132 58.0915 133.881 58.0225 134.699H63.7391C62.7932 134.472 61.9164 134.184 61.1511 133.847L61.152 133.848Z" fill="#141416"/>
</g>
<mask id="mask8_4575_12431" style="mask-type:luminance" maskUnits="userSpaceOnUse" x="59" y="142" width="12" height="10">
<path d="M70.1055 142H59.1055V152H70.1055V142Z" fill="white"/>
</mask>
<g mask="url(#mask8_4575_12431)">
<path d="M70.1055 147C70.1055 144.239 67.643 142 64.6055 142C61.5679 142 59.1055 144.239 59.1055 147C59.1055 149.761 61.5679 152 64.6055 152C67.643 152 70.1055 149.761 70.1055 147Z" fill="url(#paint21_linear_4575_12431)"/>
<path d="M65.5396 147.981C63.8072 148.439 62.3742 149.108 61.4771 149.891L61.4375 149.926C61.676 150.125 61.9376 150.303 62.2203 150.454L62.2811 150.389C62.5261 150.125 62.7886 149.87 63.0621 149.63C63.7962 148.986 64.6361 148.428 65.5405 147.98L65.5396 147.981Z" fill="#141416"/>
<path d="M60.0215 147.302C60.0906 148.119 60.435 148.869 60.9756 149.478L61.0005 149.456C61.5559 148.974 62.2788 148.535 63.151 148.152C63.9155 147.817 64.7932 147.529 65.739 147.302H60.0215Z" fill="#141416"/>
<path d="M63.5476 143.942C65.0976 145.303 67.0483 146.203 69.1878 146.544C68.9299 144.527 66.9811 142.958 64.6132 142.958C63.9878 142.958 63.392 143.068 62.8477 143.266C63.0687 143.5 63.3045 143.728 63.5476 143.942Z" fill="#141416"/>
<path d="M61.4771 144.109C62.3742 144.893 63.8072 145.561 65.5396 146.02C64.6352 145.571 63.7952 145.014 63.0612 144.37C62.7886 144.131 62.5261 143.876 62.2802 143.612L62.2194 143.546C61.9367 143.697 61.6751 143.875 61.4375 144.074L61.4771 144.109Z" fill="#141416"/>
<path d="M63.5476 150.058C63.3035 150.272 63.0678 150.5 62.8477 150.735C63.391 150.933 63.9878 151.043 64.6132 151.043C66.9811 151.043 68.9299 149.473 69.1887 147.455C67.0492 147.796 65.0986 148.696 63.5485 150.057L63.5476 150.058Z" fill="#141416"/>
<path d="M63.151 145.848C62.2788 145.466 61.5559 145.026 61.0005 144.544L60.9756 144.522C60.435 145.132 60.0906 145.881 60.0215 146.698H65.7381C64.7922 146.471 63.9155 146.183 63.1501 145.847L63.151 145.848Z" fill="#141416"/>
</g>
<mask id="mask9_4575_12431" style="mask-type:luminance" maskUnits="userSpaceOnUse" x="71" y="144" width="12" height="10">
<path d="M82.1055 144H71.1055V154H82.1055V144Z" fill="white"/>
</mask>
<g mask="url(#mask9_4575_12431)">
<path d="M82.1055 149C82.1055 146.239 79.643 144 76.6055 144C73.5679 144 71.1055 146.239 71.1055 149C71.1055 151.761 73.5679 154 76.6055 154C79.643 154 82.1055 151.761 82.1055 149Z" fill="url(#paint22_linear_4575_12431)"/>
<path d="M77.5406 149.981C75.8082 150.439 74.3751 151.108 73.4781 151.891L73.4385 151.926C73.677 152.125 73.9386 152.303 74.2213 152.454L74.2821 152.389C74.5271 152.125 74.7896 151.87 75.0631 151.63C75.7972 150.986 76.6371 150.428 77.5415 149.98L77.5406 149.981Z" fill="#141416"/>
<path d="M72.0225 149.302C72.0915 150.119 72.436 150.868 72.9766 151.478L73.0015 151.456C73.5568 150.974 74.2798 150.535 75.152 150.152C75.9164 149.817 76.7941 149.529 77.74 149.302H72.0225Z" fill="#141416"/>
<path d="M75.5476 145.942C77.0976 147.303 79.0483 148.203 81.1878 148.544C80.9299 146.527 78.9811 144.957 76.6132 144.957C75.9878 144.957 75.392 145.067 74.8477 145.265C75.0687 145.5 75.3045 145.728 75.5476 145.942Z" fill="#141416"/>
<path d="M73.4781 146.109C74.3751 146.893 75.8082 147.561 77.5406 148.02C76.6362 147.571 75.7962 147.014 75.0622 146.37C74.7896 146.131 74.5271 145.876 74.2812 145.612L74.2204 145.546C73.9377 145.697 73.6761 145.875 73.4385 146.074L73.4781 146.109Z" fill="#141416"/>
<path d="M75.5476 152.058C75.3035 152.272 75.0678 152.5 74.8477 152.734C75.391 152.932 75.9878 153.042 76.6132 153.042C78.9811 153.042 80.9299 151.473 81.1887 149.455C79.0492 149.796 77.0986 150.696 75.5485 152.057L75.5476 152.058Z" fill="#141416"/>
<path d="M75.152 147.848C74.2798 147.466 73.5568 147.026 73.0015 146.544L72.9766 146.522C72.436 147.132 72.0915 147.881 72.0225 148.698H77.7391C76.7932 148.471 75.9164 148.183 75.1511 147.847L75.152 147.848Z" fill="#141416"/>
</g>
<mask id="mask10_4575_12431" style="mask-type:luminance" maskUnits="userSpaceOnUse" x="83" y="144" width="12" height="10">
<path d="M94.1055 144H83.1055V154H94.1055V144Z" fill="white"/>
</mask>
<g mask="url(#mask10_4575_12431)">
<path d="M94.1055 149C94.1055 146.239 91.643 144 88.6055 144C85.5679 144 83.1055 146.239 83.1055 149C83.1055 151.761 85.5679 154 88.6055 154C91.643 154 94.1055 151.761 94.1055 149Z" fill="url(#paint23_linear_4575_12431)"/>
<path d="M89.5406 149.981C87.8082 150.439 86.3751 151.108 85.4781 151.891L85.4385 151.926C85.677 152.125 85.9386 152.303 86.2213 152.454L86.2821 152.389C86.5271 152.125 86.7896 151.87 87.0631 151.63C87.7972 150.986 88.6371 150.428 89.5415 149.98L89.5406 149.981Z" fill="#141416"/>
<path d="M84.0225 149.302C84.0915 150.119 84.436 150.868 84.9766 151.478L85.0015 151.456C85.5568 150.974 86.2798 150.535 87.152 150.152C87.9164 149.817 88.7941 149.529 89.74 149.302H84.0225Z" fill="#141416"/>
<path d="M87.5476 145.942C89.0976 147.303 91.0483 148.203 93.1878 148.544C92.9299 146.527 90.9811 144.957 88.6132 144.957C87.9878 144.957 87.392 145.067 86.8477 145.265C87.0687 145.5 87.3045 145.728 87.5476 145.942Z" fill="#141416"/>
<path d="M85.4781 146.109C86.3751 146.893 87.8082 147.561 89.5406 148.02C88.6362 147.571 87.7962 147.014 87.0622 146.37C86.7896 146.131 86.5271 145.876 86.2812 145.612L86.2204 145.546C85.9377 145.697 85.6761 145.875 85.4385 146.074L85.4781 146.109Z" fill="#141416"/>
<path d="M87.5476 152.058C87.3035 152.272 87.0678 152.5 86.8477 152.734C87.391 152.932 87.9878 153.042 88.6132 153.042C90.9811 153.042 92.9299 151.473 93.1887 149.455C91.0492 149.796 89.0986 150.696 87.5485 152.057L87.5476 152.058Z" fill="#141416"/>
<path d="M87.152 147.848C86.2798 147.466 85.5568 147.026 85.0015 146.544L84.9766 146.522C84.436 147.132 84.0915 147.881 84.0225 148.698H89.7391C88.7932 148.471 87.9164 148.183 87.1511 147.847L87.152 147.848Z" fill="#141416"/>
</g>
<mask id="mask11_4575_12431" style="mask-type:luminance" maskUnits="userSpaceOnUse" x="96" y="144" width="12" height="10">
<path d="M107.105 144H96.1055V154H107.105V144Z" fill="white"/>
</mask>
<g mask="url(#mask11_4575_12431)">
<path d="M107.105 149C107.105 146.239 104.643 144 101.605 144C98.5679 144 96.1055 146.239 96.1055 149C96.1055 151.761 98.5679 154 101.605 154C104.643 154 107.105 151.761 107.105 149Z" fill="url(#paint24_linear_4575_12431)"/>
<path d="M102.541 149.981C100.808 150.439 99.3751 151.108 98.4781 151.891L98.4385 151.926C98.677 152.125 98.9386 152.303 99.2213 152.454L99.2821 152.389C99.5271 152.125 99.7896 151.87 100.063 151.63C100.797 150.986 101.637 150.428 102.542 149.98L102.541 149.981Z" fill="#141416"/>
<path d="M97.0215 149.301C97.0906 150.119 97.435 150.868 97.9756 151.478L98.0005 151.456C98.5559 150.973 99.2788 150.534 100.151 150.152C100.915 149.816 101.793 149.529 102.739 149.301H97.0215Z" fill="#141416"/>
<path d="M100.548 145.942C102.098 147.303 104.048 148.203 106.188 148.544C105.93 146.527 103.981 144.957 101.613 144.957C100.988 144.957 100.392 145.067 99.8477 145.265C100.069 145.5 100.304 145.728 100.548 145.942Z" fill="#141416"/>
<path d="M98.4781 146.109C99.3751 146.893 100.808 147.561 102.541 148.02C101.636 147.571 100.796 147.014 100.062 146.37C99.7896 146.13 99.5271 145.876 99.2812 145.611L99.2204 145.546C98.9377 145.697 98.6761 145.875 98.4385 146.074L98.4781 146.109Z" fill="#141416"/>
<path d="M100.548 152.058C100.304 152.272 100.068 152.5 99.8477 152.734C100.391 152.932 100.988 153.042 101.613 153.042C103.981 153.042 105.93 151.473 106.189 149.455C104.049 149.796 102.099 150.696 100.549 152.057L100.548 152.058Z" fill="#141416"/>
<path d="M100.151 147.848C99.2788 147.466 98.5559 147.026 98.0005 146.544L97.9756 146.522C97.435 147.132 97.0906 147.881 97.0215 148.698H102.738C101.792 148.471 100.915 148.183 100.15 147.847L100.151 147.848Z" fill="#141416"/>
</g>
<mask id="mask12_4575_12431" style="mask-type:luminance" maskUnits="userSpaceOnUse" x="108" y="144" width="12" height="10">
<path d="M119.105 144H108.105V154H119.105V144Z" fill="white"/>
</mask>
<g mask="url(#mask12_4575_12431)">
<path d="M119.105 149C119.105 146.239 116.643 144 113.605 144C110.568 144 108.105 146.239 108.105 149C108.105 151.761 110.568 154 113.605 154C116.643 154 119.105 151.761 119.105 149Z" fill="url(#paint25_linear_4575_12431)"/>
<path d="M114.54 149.981C112.807 150.439 111.374 151.108 110.477 151.891L110.438 151.926C110.676 152.125 110.938 152.303 111.22 152.454L111.281 152.389C111.526 152.125 111.789 151.87 112.062 151.63C112.796 150.986 113.636 150.428 114.541 149.98L114.54 149.981Z" fill="#141416"/>
<path d="M109.021 149.301C109.091 150.119 109.435 150.868 109.976 151.478L110.001 151.456C110.556 150.973 111.279 150.534 112.151 150.152C112.915 149.816 113.793 149.529 114.739 149.301H109.021Z" fill="#141416"/>
<path d="M112.547 145.942C114.097 147.303 116.047 148.203 118.187 148.544C117.929 146.527 115.98 144.957 113.612 144.957C112.987 144.957 112.391 145.067 111.847 145.265C112.068 145.5 112.303 145.728 112.547 145.942Z" fill="#141416"/>
<path d="M110.478 146.109C111.375 146.893 112.808 147.561 114.541 148.02C113.636 147.571 112.796 147.014 112.062 146.37C111.79 146.13 111.527 145.876 111.281 145.611L111.22 145.546C110.938 145.697 110.676 145.875 110.438 146.074L110.478 146.109Z" fill="#141416"/>
<path d="M112.547 152.058C112.303 152.272 112.067 152.5 111.847 152.734C112.39 152.932 112.987 153.042 113.612 153.042C115.98 153.042 117.929 151.473 118.188 149.455C116.048 149.796 114.098 150.696 112.548 152.057L112.547 152.058Z" fill="#141416"/>
<path d="M112.151 147.848C111.279 147.465 110.556 147.026 110.001 146.544L109.976 146.522C109.435 147.131 109.091 147.881 109.021 148.698H114.738C113.792 148.471 112.915 148.183 112.15 147.847L112.151 147.848Z" fill="#141416"/>
</g>
<mask id="mask13_4575_12431" style="mask-type:luminance" maskUnits="userSpaceOnUse" x="121" y="144" width="11" height="10">
<path d="M131.105 144H121.105V154H131.105V144Z" fill="white"/>
</mask>
<g mask="url(#mask13_4575_12431)">
<path d="M131.105 149C131.105 146.239 128.867 144 126.105 144C123.344 144 121.105 146.239 121.105 149C121.105 151.761 123.344 154 126.105 154C128.867 154 131.105 151.761 131.105 149Z" fill="url(#paint26_linear_4575_12431)"/>
<path d="M126.956 149.981C125.381 150.439 124.078 151.108 123.263 151.891L123.227 151.926C123.443 152.125 123.681 152.303 123.938 152.454L123.994 152.389C124.216 152.125 124.455 151.87 124.704 151.63C125.371 150.986 126.134 150.428 126.957 149.98L126.956 149.981Z" fill="#141416"/>
<path d="M121.938 149.302C122.001 150.119 122.314 150.868 122.806 151.478L122.828 151.456C123.333 150.974 123.991 150.535 124.784 150.152C125.478 149.817 126.276 149.529 127.136 149.302H121.938Z" fill="#141416"/>
<path d="M125.143 145.942C126.552 147.303 128.326 148.203 130.271 148.544C130.036 146.527 128.264 144.957 126.112 144.957C125.543 144.957 125.002 145.067 124.507 145.265C124.708 145.5 124.922 145.728 125.143 145.942Z" fill="#141416"/>
<path d="M123.263 146.109C124.078 146.893 125.381 147.561 126.956 148.02C126.134 147.571 125.37 147.014 124.703 146.37C124.455 146.131 124.216 145.876 123.993 145.612L123.937 145.546C123.68 145.697 123.443 145.875 123.227 146.074L123.263 146.109Z" fill="#141416"/>
<path d="M125.143 152.058C124.921 152.272 124.707 152.5 124.507 152.734C125.001 152.932 125.543 153.042 126.112 153.042C128.264 153.042 130.036 151.473 130.271 149.455C128.326 149.796 126.553 150.696 125.144 152.057L125.143 152.058Z" fill="#141416"/>
<path d="M124.784 147.848C123.991 147.466 123.333 147.026 122.828 146.544L122.806 146.522C122.314 147.132 122.001 147.881 121.938 148.698H127.135C126.276 148.471 125.478 148.183 124.783 147.847L124.784 147.848Z" fill="#141416"/>
</g>
<mask id="mask14_4575_12431" style="mask-type:luminance" maskUnits="userSpaceOnUse" x="247" y="144" width="12" height="10">
<path d="M258.105 144H247.105V154H258.105V144Z" fill="white"/>
</mask>
<g mask="url(#mask14_4575_12431)">
<path d="M258.105 149C258.105 146.239 255.643 144 252.605 144C249.568 144 247.105 146.239 247.105 149C247.105 151.761 249.568 154 252.605 154C255.643 154 258.105 151.761 258.105 149Z" fill="url(#paint27_linear_4575_12431)"/>
<path d="M253.541 149.981C251.808 150.439 250.375 151.108 249.478 151.891L249.438 151.926C249.677 152.125 249.939 152.303 250.221 152.454L250.282 152.389C250.527 152.125 250.79 151.87 251.063 151.63C251.797 150.986 252.637 150.428 253.542 149.98L253.541 149.981Z" fill="#141416"/>
<path d="M248.022 149.302C248.092 150.119 248.436 150.868 248.977 151.478L249.001 151.456C249.557 150.974 250.28 150.535 251.152 150.152C251.916 149.817 252.794 149.529 253.74 149.302H248.022Z" fill="#141416"/>
<path d="M251.548 145.942C253.098 147.303 255.048 148.203 257.188 148.544C256.93 146.527 254.981 144.957 252.613 144.957C251.988 144.957 251.392 145.067 250.848 145.265C251.069 145.5 251.304 145.728 251.548 145.942Z" fill="#141416"/>
<path d="M249.478 146.109C250.375 146.893 251.808 147.561 253.541 148.02C252.636 147.571 251.796 147.014 251.062 146.37C250.79 146.131 250.527 145.876 250.281 145.612L250.22 145.546C249.938 145.697 249.676 145.875 249.438 146.074L249.478 146.109Z" fill="#141416"/>
<path d="M251.548 152.058C251.304 152.272 251.068 152.5 250.848 152.734C251.391 152.932 251.988 153.042 252.613 153.042C254.981 153.042 256.93 151.473 257.189 149.455C255.049 149.796 253.099 150.696 251.549 152.057L251.548 152.058Z" fill="#141416"/>
<path d="M251.152 147.848C250.28 147.466 249.557 147.026 249.001 146.544L248.977 146.522C248.436 147.132 248.092 147.881 248.022 148.698H253.739C252.793 148.471 251.916 148.183 251.151 147.847L251.152 147.848Z" fill="#141416"/>
</g>
<mask id="mask15_4575_12431" style="mask-type:luminance" maskUnits="userSpaceOnUse" x="282" y="97" width="12" height="11">
<path d="M293.105 97H282.105V108H293.105V97Z" fill="white"/>
</mask>
<g mask="url(#mask15_4575_12431)">
<path d="M293.105 102.5C293.105 99.4624 290.643 97 287.605 97C284.568 97 282.105 99.4624 282.105 102.5C282.105 105.538 284.568 108 287.605 108C290.643 108 293.105 105.538 293.105 102.5Z" fill="url(#paint28_linear_4575_12431)"/>
<path d="M288.541 103.579C286.808 104.083 285.375 104.819 284.478 105.68L284.438 105.719C284.677 105.937 284.939 106.133 285.221 106.299L285.282 106.227C285.527 105.937 285.79 105.657 286.063 105.393C286.797 104.684 287.637 104.071 288.542 103.578L288.541 103.579Z" fill="#141416"/>
<path d="M283.022 102.832C283.092 103.731 283.436 104.555 283.977 105.226L284.001 105.202C284.557 104.671 285.28 104.188 286.152 103.767C286.916 103.398 287.794 103.082 288.74 102.832H283.022Z" fill="#141416"/>
<path d="M286.548 99.1359C288.098 100.633 290.048 101.623 292.188 101.998C291.93 99.7789 289.981 98.0527 287.613 98.0527C286.988 98.0527 286.392 98.1737 285.848 98.3915C286.069 98.6495 286.304 98.9003 286.548 99.1359Z" fill="#141416"/>
<path d="M284.478 99.3192C285.375 100.182 286.808 100.917 288.541 101.422C287.636 100.928 286.796 100.316 286.062 99.6064C285.79 99.3432 285.527 99.063 285.281 98.7722L285.22 98.7002C284.938 98.8665 284.676 99.0621 284.438 99.2809L284.478 99.3192Z" fill="#141416"/>
<path d="M286.548 105.863C286.304 106.099 286.068 106.35 285.848 106.608C286.391 106.826 286.988 106.947 287.613 106.947C289.981 106.947 291.93 105.22 292.189 103.001C290.049 103.376 288.099 104.366 286.549 105.863H286.548Z" fill="#141416"/>
<path d="M286.152 101.233C285.28 100.812 284.557 100.329 284.001 99.7984L283.977 99.7744C283.436 100.445 283.092 101.269 283.022 102.168H288.739C287.793 101.918 286.916 101.602 286.151 101.232L286.152 101.233Z" fill="#141416"/>
</g>
<path d="M223.089 123H140.121C134.589 123 130.105 127.484 130.105 133.016V164.984C130.105 170.516 134.589 175 140.121 175H223.089C228.62 175 233.105 170.516 233.105 164.984V133.016C233.105 127.484 228.62 123 223.089 123Z" fill="url(#paint29_linear_4575_12431)"/>
<path d="M223.089 123H140.121C134.589 123 130.105 127.484 130.105 133.016V164.984C130.105 170.516 134.589 175 140.121 175H223.089C228.62 175 233.105 170.516 233.105 164.984V133.016C233.105 127.484 228.62 123 223.089 123Z" fill="#FFECD4" fill-opacity="0.8"/>
<path d="M223.089 123H140.121C134.589 123 130.105 127.484 130.105 133.016V164.984C130.105 170.516 134.589 175 140.121 175H223.089C228.62 175 233.105 170.516 233.105 164.984V133.016C233.105 127.484 228.62 123 223.089 123Z" stroke="url(#paint30_linear_4575_12431)" stroke-width="2"/>
<path d="M134.603 163.5V134.582H151.562V138.052H138.073V146.273H149.579V149.743H138.073V163.5H134.603ZM161.604 164.037C159.704 164.037 157.969 163.548 156.399 162.57C154.843 161.593 153.597 160.285 152.66 158.646C151.738 156.993 151.276 155.169 151.276 153.172C151.276 151.657 151.545 150.246 152.082 148.938C152.619 147.616 153.356 146.459 154.292 145.468C155.242 144.462 156.344 143.677 157.597 143.113C158.85 142.548 160.186 142.266 161.604 142.266C163.16 142.266 164.585 142.583 165.88 143.216C167.188 143.836 168.303 144.703 169.226 145.819C170.162 146.934 170.858 148.229 171.312 149.702C171.781 151.175 171.953 152.752 171.829 154.432H154.974C155.139 155.603 155.524 156.649 156.13 157.572C156.736 158.481 157.507 159.204 158.444 159.741C159.394 160.278 160.447 160.553 161.604 160.567C162.843 160.567 163.966 160.25 164.971 159.617C165.976 158.97 166.789 158.088 167.408 156.973L170.941 157.799C170.114 159.63 168.868 161.131 167.202 162.302C165.536 163.459 163.67 164.037 161.604 164.037ZM154.87 151.706H168.338C168.228 150.549 167.856 149.495 167.222 148.545C166.589 147.581 165.783 146.81 164.806 146.232C163.828 145.653 162.761 145.364 161.604 145.364C160.447 145.364 159.387 145.647 158.423 146.211C157.459 146.776 156.661 147.54 156.027 148.504C155.407 149.454 155.022 150.521 154.87 151.706ZM184.277 164.037C182.377 164.037 180.642 163.548 179.072 162.57C177.516 161.593 176.269 160.285 175.333 158.646C174.41 156.993 173.949 155.169 173.949 153.172C173.949 151.657 174.218 150.246 174.755 148.938C175.292 147.616 176.028 146.459 176.965 145.468C177.915 144.462 179.017 143.677 180.27 143.113C181.523 142.548 182.859 142.266 184.277 142.266C185.833 142.266 187.258 142.583 188.553 143.216C189.861 143.836 190.976 144.703 191.899 145.819C192.835 146.934 193.531 148.229 193.985 149.702C194.453 151.175 194.625 152.752 194.502 154.432H177.647C177.812 155.603 178.197 156.649 178.803 157.572C179.409 158.481 180.18 159.204 181.117 159.741C182.067 160.278 183.12 160.553 184.277 160.567C185.516 160.567 186.639 160.25 187.644 159.617C188.649 158.97 189.462 158.088 190.081 156.973L193.613 157.799C192.787 159.63 191.541 161.131 189.875 162.302C188.208 163.459 186.343 164.037 184.277 164.037ZM177.543 151.706H191.011C190.901 150.549 190.529 149.495 189.895 148.545C189.262 147.581 188.456 146.81 187.479 146.232C186.501 145.653 185.434 145.364 184.277 145.364C183.12 145.364 182.06 145.647 181.096 146.211C180.132 146.776 179.333 147.54 178.7 148.504C178.08 149.454 177.695 150.521 177.543 151.706ZM196.449 163.5L202.047 134.582H204.712L212.519 155.114L220.307 134.582H222.971L228.59 163.5H225.057L220.988 142.514L213.656 161.93H211.363L204.03 142.514L199.981 163.5H196.449Z" fill="#141416"/>
<path d="M140.033 56.5H56.1782C53.1005 56.5 50.6055 58.995 50.6055 62.0728V79.9272C50.6055 83.005 53.1005 85.5 56.1782 85.5H140.033C143.11 85.5 145.605 83.005 145.605 79.9272V62.0728C145.605 58.995 143.11 56.5 140.033 56.5Z" fill="url(#paint31_linear_4575_12431)"/>
<path d="M140.033 56.5H56.1782C53.1005 56.5 50.6055 58.995 50.6055 62.0728V79.9272C50.6055 83.005 53.1005 85.5 56.1782 85.5H140.033C143.11 85.5 145.605 83.005 145.605 79.9272V62.0728C145.605 58.995 143.11 56.5 140.033 56.5Z" fill="#FFECD4" fill-opacity="0.8"/>
<path d="M140.033 56.5H56.1782C53.1005 56.5 50.6055 58.995 50.6055 62.0728V79.9272C50.6055 83.005 53.1005 85.5 56.1782 85.5H140.033C143.11 85.5 145.605 83.005 145.605 79.9272V62.0728C145.605 58.995 143.11 56.5 140.033 56.5Z" stroke="url(#paint32_linear_4575_12431)"/>
<path d="M60.4727 77.75C60.4727 75.6789 63.1589 74 66.4727 74C69.7864 74 72.4727 75.6789 72.4727 77.75" stroke="#141416" stroke-width="1.5" stroke-linecap="round" stroke-linejoin="round"/>
<path d="M66.4727 71.75C68.5437 71.75 70.2227 70.0711 70.2227 68C70.2227 65.9289 68.5437 64.25 66.4727 64.25C64.4016 64.25 62.7227 65.9289 62.7227 68C62.7227 70.0711 64.4016 71.75 66.4727 71.75Z" stroke="#141416" stroke-width="1.5" stroke-linecap="round" stroke-linejoin="round"/>
<path d="M78.0122 77V64.4H82.3592C82.9832 64.4 83.5502 64.529 84.0602 64.787C84.5762 65.039 84.9842 65.408 85.2842 65.894C85.5842 66.38 85.7342 66.962 85.7342 67.64C85.7342 68.006 85.6712 68.36 85.5452 68.702C85.4252 69.038 85.2572 69.329 85.0412 69.575C84.8312 69.815 84.5912 69.977 84.3212 70.061C84.6992 70.157 85.0202 70.328 85.2842 70.574C85.5482 70.814 85.7612 71.096 85.9232 71.42C86.0912 71.744 86.2112 72.083 86.2832 72.437C86.3552 72.791 86.3912 73.133 86.3912 73.463C86.3912 74.159 86.2322 74.774 85.9142 75.308C85.6022 75.836 85.1822 76.25 84.6542 76.55C84.1262 76.85 83.5442 77 82.9082 77H78.0122ZM79.5242 75.668H82.7732C83.1872 75.668 83.5622 75.563 83.8982 75.353C84.2402 75.137 84.5132 74.843 84.7172 74.471C84.9212 74.099 85.0232 73.679 85.0232 73.211C85.0232 72.797 84.9212 72.407 84.7172 72.041C84.5132 71.669 84.2402 71.369 83.8982 71.141C83.5622 70.913 83.1872 70.799 82.7732 70.799H79.5242V75.668ZM79.5242 69.494H82.2152C82.7672 69.494 83.2382 69.332 83.6282 69.008C84.0242 68.678 84.2222 68.219 84.2222 67.631C84.2222 66.995 84.0242 66.521 83.6282 66.209C83.2382 65.891 82.7672 65.732 82.2152 65.732H79.5242V69.494ZM87.619 73.58V68H89.131V73.247C89.131 73.703 89.242 74.117 89.464 74.489C89.686 74.861 89.983 75.158 90.355 75.38C90.733 75.596 91.147 75.704 91.597 75.704C92.053 75.704 92.464 75.596 92.83 75.38C93.202 75.158 93.499 74.861 93.721 74.489C93.943 74.117 94.054 73.703 94.054 73.247V68H95.566L95.575 77H94.063L94.054 75.857C93.736 76.277 93.334 76.613 92.848 76.865C92.362 77.111 91.837 77.234 91.273 77.234C90.601 77.234 89.986 77.072 89.428 76.748C88.876 76.418 88.435 75.977 88.105 75.425C87.781 74.873 87.619 74.258 87.619 73.58ZM97.3833 68H98.8953V77H97.3833V68ZM98.1573 66.533C97.9173 66.533 97.7163 66.455 97.5543 66.299C97.3923 66.143 97.3113 65.948 97.3113 65.714C97.3113 65.48 97.3923 65.285 97.5543 65.129C97.7163 64.973 97.9143 64.895 98.1483 64.895C98.3823 64.895 98.5803 64.973 98.7423 65.129C98.9043 65.285 98.9853 65.48 98.9853 65.714C98.9853 65.948 98.9043 66.143 98.7423 66.299C98.5863 66.455 98.3913 66.533 98.1573 66.533ZM101.11 77V63.5H102.622V77H101.11ZM111.941 63.5H113.453V77H111.941V75.47C111.635 75.998 111.224 76.424 110.708 76.748C110.192 77.072 109.586 77.234 108.89 77.234C108.236 77.234 107.624 77.111 107.054 76.865C106.484 76.619 105.98 76.28 105.542 75.848C105.11 75.41 104.771 74.906 104.525 74.336C104.279 73.766 104.156 73.154 104.156 72.5C104.156 71.846 104.279 71.234 104.525 70.664C104.771 70.088 105.11 69.584 105.542 69.152C105.98 68.714 106.484 68.372 107.054 68.126C107.624 67.88 108.236 67.757 108.89 67.757C109.586 67.757 110.192 67.919 110.708 68.243C111.224 68.567 111.635 68.993 111.941 69.521V63.5ZM108.908 75.767C109.502 75.767 110.015 75.623 110.447 75.335C110.885 75.041 111.221 74.645 111.455 74.147C111.695 73.649 111.815 73.1 111.815 72.5C111.815 71.888 111.695 71.336 111.455 70.844C111.215 70.346 110.876 69.953 110.438 69.665C110.006 69.371 109.496 69.224 108.908 69.224C108.314 69.224 107.774 69.371 107.288 69.665C106.808 69.959 106.424 70.355 106.136 70.853C105.848 71.345 105.704 71.894 105.704 72.5C105.704 73.106 105.851 73.658 106.145 74.156C106.439 74.648 106.829 75.041 107.315 75.335C107.801 75.623 108.332 75.767 108.908 75.767ZM119.484 77.234C118.656 77.234 117.9 77.021 117.216 76.595C116.538 76.169 115.995 75.599 115.587 74.885C115.185 74.165 114.984 73.37 114.984 72.5C114.984 71.84 115.101 71.225 115.335 70.655C115.569 70.079 115.89 69.575 116.298 69.143C116.712 68.705 117.192 68.363 117.738 68.117C118.284 67.871 118.866 67.748 119.484 67.748C120.162 67.748 120.783 67.886 121.347 68.162C121.917 68.432 122.403 68.81 122.805 69.296C123.213 69.782 123.516 70.346 123.714 70.988C123.918 71.63 123.993 72.317 123.939 73.049H116.595C116.667 73.559 116.835 74.015 117.099 74.417C117.363 74.813 117.699 75.128 118.107 75.362C118.521 75.596 118.98 75.716 119.484 75.722C120.024 75.722 120.513 75.584 120.951 75.308C121.389 75.026 121.743 74.642 122.013 74.156L123.552 74.516C123.192 75.314 122.649 75.968 121.923 76.478C121.197 76.982 120.384 77.234 119.484 77.234ZM116.55 71.861H122.418C122.37 71.357 122.208 70.898 121.932 70.484C121.656 70.064 121.305 69.728 120.879 69.476C120.453 69.224 119.988 69.098 119.484 69.098C118.98 69.098 118.518 69.221 118.098 69.467C117.678 69.713 117.33 70.046 117.054 70.466C116.784 70.88 116.616 71.345 116.55 71.861ZM125.456 77V68H126.968V69.125C127.286 68.705 127.688 68.372 128.174 68.126C128.66 67.874 129.188 67.748 129.758 67.748C130.106 67.748 130.442 67.793 130.766 67.883L130.154 69.395C129.908 69.317 129.668 69.278 129.434 69.278C128.984 69.278 128.57 69.389 128.192 69.611C127.82 69.827 127.523 70.121 127.301 70.493C127.079 70.865 126.968 71.279 126.968 71.735V77H125.456ZM134.617 77.171C134.131 77.153 133.657 77.063 133.195 76.901C132.739 76.733 132.337 76.508 131.989 76.226C131.647 75.938 131.398 75.608 131.242 75.236L132.538 74.678C132.628 74.882 132.79 75.074 133.024 75.254C133.258 75.434 133.528 75.578 133.834 75.686C134.14 75.794 134.449 75.848 134.761 75.848C135.091 75.848 135.4 75.797 135.688 75.695C135.976 75.593 136.21 75.443 136.39 75.245C136.576 75.041 136.669 74.798 136.669 74.516C136.669 74.216 136.567 73.982 136.363 73.814C136.165 73.64 135.913 73.505 135.607 73.409C135.307 73.307 135.001 73.211 134.689 73.121C134.071 72.965 133.519 72.779 133.033 72.563C132.547 72.341 132.163 72.062 131.881 71.726C131.605 71.384 131.467 70.949 131.467 70.421C131.467 69.863 131.62 69.38 131.926 68.972C132.238 68.564 132.646 68.249 133.15 68.027C133.654 67.805 134.194 67.694 134.77 67.694C135.496 67.694 136.159 67.85 136.759 68.162C137.359 68.474 137.806 68.897 138.1 69.431L136.885 70.142C136.783 69.926 136.627 69.737 136.417 69.575C136.207 69.407 135.967 69.275 135.697 69.179C135.427 69.083 135.151 69.032 134.869 69.026C134.521 69.014 134.194 69.059 133.888 69.161C133.588 69.263 133.345 69.419 133.159 69.629C132.979 69.833 132.889 70.088 132.889 70.394C132.889 70.694 132.985 70.922 133.177 71.078C133.375 71.234 133.63 71.36 133.942 71.456C134.26 71.546 134.605 71.651 134.977 71.771C135.523 71.945 136.033 72.146 136.507 72.374C136.981 72.602 137.362 72.887 137.65 73.229C137.944 73.571 138.088 73.994 138.082 74.498C138.082 75.05 137.917 75.533 137.587 75.947C137.257 76.355 136.828 76.667 136.3 76.883C135.778 77.099 135.217 77.195 134.617 77.171Z" fill="#141416"/>
</g>
</g>
<path d="M27.125 1H330.875C345.58 1 357.5 12.9204 357.5 27.625V254.375C357.5 269.08 345.58 281 330.875 281H27.125C12.4204 281 0.5 269.08 0.5 254.375V27.625C0.5 12.9204 12.4204 1 27.125 1Z" stroke="#505150"/>
</g>
<defs>
<filter id="filter0_d_4575_12431" x="-4" y="0.5" width="366" height="289" filterUnits="userSpaceOnUse" color-interpolation-filters="sRGB">
<feFlood flood-opacity="0" result="BackgroundImageFix"/>
<feColorMatrix in="SourceAlpha" type="matrix" values="0 0 0 0 0 0 0 0 0 0 0 0 0 0 0 0 0 0 127 0" result="hardAlpha"/>
<feOffset dy="4"/>
<feGaussianBlur stdDeviation="2"/>
<feComposite in2="hardAlpha" operator="out"/>
<feColorMatrix type="matrix" values="0 0 0 0 0 0 0 0 0 0 0 0 0 0 0 0 0 0 0.25 0"/>
<feBlend mode="normal" in2="BackgroundImageFix" result="effect1_dropShadow_4575_12431"/>
<feBlend mode="normal" in="SourceGraphic" in2="effect1_dropShadow_4575_12431" result="shape"/>
</filter>
<filter id="filter1_f_4575_12431" x="-554.072" y="-540.882" width="1615.89" height="1294.6" filterUnits="userSpaceOnUse" color-interpolation-filters="sRGB">
<feFlood flood-opacity="0" result="BackgroundImageFix"/>
<feBlend mode="normal" in="SourceGraphic" in2="BackgroundImageFix" result="shape"/>
<feGaussianBlur stdDeviation="232.198" result="effect1_foregroundBlur_4575_12431"/>
</filter>
<linearGradient id="paint0_linear_4575_12431" x1="-88.8832" y1="84.4881" x2="257.281" y2="449.435" gradientUnits="userSpaceOnUse">
<stop stop-color="#102D3C"/>
<stop offset="0.161465" stop-color="#214E81"/>
<stop offset="0.363625" stop-color="#506179"/>
<stop offset="0.651499" stop-color="#ED5409"/>
<stop offset="1" stop-color="#FFCB67"/>
</linearGradient>
<linearGradient id="paint1_linear_4575_12431" x1="391.92" y1="99.5863" x2="-23.9939" y2="99.5863" gradientUnits="userSpaceOnUse">
<stop stop-color="#102D3C"/>
<stop offset="0.161465" stop-color="#214E81"/>
<stop offset="0.363625" stop-color="#506179"/>
<stop offset="0.651499" stop-color="#ED5409"/>
<stop offset="1" stop-color="#FFCB67"/>
</linearGradient>
<linearGradient id="paint2_linear_4575_12431" x1="287.007" y1="123.606" x2="79.4138" y2="123.606" gradientUnits="userSpaceOnUse">
<stop stop-color="#102D3C"/>
<stop offset="0.161465" stop-color="#214E81"/>
<stop offset="0.363625" stop-color="#506179"/>
<stop offset="0.651499" stop-color="#ED5409"/>
<stop offset="1" stop-color="#FFCB67"/>
</linearGradient>
<linearGradient id="paint3_linear_4575_12431" x1="209.307" y1="142.111" x2="156.454" y2="142.111" gradientUnits="userSpaceOnUse">
<stop stop-color="#102D3C"/>
<stop offset="0.161465" stop-color="#214E81"/>
<stop offset="0.363625" stop-color="#506179"/>
<stop offset="0.651499" stop-color="#ED5409"/>
<stop offset="1" stop-color="#FFCB67"/>
</linearGradient>
<linearGradient id="paint4_linear_4575_12431" x1="235.474" y1="135.564" x2="130.829" y2="135.564" gradientUnits="userSpaceOnUse">
<stop stop-color="#102D3C"/>
<stop offset="0.161465" stop-color="#214E81"/>
<stop offset="0.363625" stop-color="#506179"/>
<stop offset="0.651499" stop-color="#ED5409"/>
<stop offset="1" stop-color="#FFCB67"/>
</linearGradient>
<linearGradient id="paint5_linear_4575_12431" x1="286.776" y1="123.386" x2="79.1685" y2="123.386" gradientUnits="userSpaceOnUse">
<stop stop-color="#102D3C"/>
<stop offset="0.161465" stop-color="#214E81"/>
<stop offset="0.363625" stop-color="#506179"/>
<stop offset="0.651499" stop-color="#ED5409"/>
<stop offset="1" stop-color="#FFCB67"/>
</linearGradient>
<linearGradient id="paint6_linear_4575_12431" x1="286.776" y1="123.386" x2="79.1685" y2="123.386" gradientUnits="userSpaceOnUse">
<stop stop-color="#102D3C"/>
<stop offset="0.161465" stop-color="#214E81"/>
<stop offset="0.363625" stop-color="#506179"/>
<stop offset="0.651499" stop-color="#ED5409"/>
<stop offset="1" stop-color="#FFCB67"/>
</linearGradient>
<linearGradient id="paint7_linear_4575_12431" x1="86.607" y1="249.375" x2="75.7392" y2="249.375" gradientUnits="userSpaceOnUse">
<stop stop-color="#102D3C"/>
<stop offset="0.161465" stop-color="#214E81"/>
<stop offset="0.363625" stop-color="#506179"/>
<stop offset="0.651499" stop-color="#ED5409"/>
<stop offset="1" stop-color="#FFCB67"/>
</linearGradient>
<linearGradient id="paint8_linear_4575_12431" x1="290.022" y1="249.375" x2="279.154" y2="249.375" gradientUnits="userSpaceOnUse">
<stop stop-color="#102D3C"/>
<stop offset="0.161465" stop-color="#214E81"/>
<stop offset="0.363625" stop-color="#506179"/>
<stop offset="0.651499" stop-color="#ED5409"/>
<stop offset="1" stop-color="#FFCB67"/>
</linearGradient>
<linearGradient id="paint9_linear_4575_12431" x1="28.6291" y1="10.3221" x2="137.151" y2="150.42" gradientUnits="userSpaceOnUse">
<stop stop-color="#102D3C" stop-opacity="0"/>
<stop offset="0.161465" stop-color="#214E81" stop-opacity="0.7"/>
<stop offset="0.363625" stop-color="#506179"/>
<stop offset="0.651499" stop-color="#ED5409"/>
<stop offset="1" stop-color="#FFCB67"/>
</linearGradient>
<linearGradient id="paint10_linear_4575_12431" x1="357.288" y1="206.801" x2="357.288" y2="225.175" gradientUnits="userSpaceOnUse">
<stop stop-color="#102D3C"/>
<stop offset="0.161465" stop-color="#214E81"/>
<stop offset="0.363625" stop-color="#506179"/>
<stop offset="0.651499" stop-color="#ED5409"/>
<stop offset="1" stop-color="#FFCB67"/>
</linearGradient>
<linearGradient id="paint11_linear_4575_12431" x1="387.801" y1="215.624" x2="339.532" y2="216.337" gradientUnits="userSpaceOnUse">
<stop stop-color="#102D3C"/>
<stop offset="0.161465" stop-color="#214E81"/>
<stop offset="0.363625" stop-color="#506179"/>
<stop offset="0.651499" stop-color="#ED5409"/>
<stop offset="1" stop-color="#FFCB67"/>
</linearGradient>
<linearGradient id="paint12_linear_4575_12431" x1="128.074" y1="237.732" x2="235.259" y2="237.732" gradientUnits="userSpaceOnUse">
<stop stop-color="#102D3C"/>
<stop offset="0.161465" stop-color="#214E81"/>
<stop offset="0.363625" stop-color="#506179"/>
<stop offset="0.651499" stop-color="#ED5409"/>
<stop offset="1" stop-color="#FFCB67"/>
</linearGradient>
<linearGradient id="paint13_linear_4575_12431" x1="129.105" y1="248.799" x2="234.129" y2="248.544" gradientUnits="userSpaceOnUse">
<stop stop-color="#102D3C"/>
<stop offset="0.161465" stop-color="#214E81"/>
<stop offset="0.363625" stop-color="#506179"/>
<stop offset="0.651499" stop-color="#ED5409"/>
<stop offset="1" stop-color="#FFCB67"/>
</linearGradient>
<linearGradient id="paint14_linear_4575_12431" x1="167.157" y1="241.36" x2="137.621" y2="241.36" gradientUnits="userSpaceOnUse">
<stop stop-color="#FFCB67"/>
<stop offset="0.348501" stop-color="#ED5409"/>
<stop offset="0.636375" stop-color="#506179"/>
<stop offset="0.838535" stop-color="#214E81"/>
<stop offset="1" stop-color="#102D3C"/>
</linearGradient>
<linearGradient id="paint15_linear_4575_12431" x1="68.2264" y1="121.15" x2="56.9974" y2="121.15" gradientUnits="userSpaceOnUse">
<stop stop-color="#1A3746"/>
<stop offset="0.242213" stop-color="#2B588B"/>
<stop offset="0.367213" stop-color="#5A6B83"/>
<stop offset="0.742213" stop-color="#ED5409"/>
<stop offset="1" stop-color="#FFCB67"/>
</linearGradient>
<linearGradient id="paint16_linear_4575_12431" x1="68.2264" y1="108.773" x2="56.9974" y2="108.773" gradientUnits="userSpaceOnUse">
<stop stop-color="#1A3746"/>
<stop offset="0.242213" stop-color="#2B588B"/>
<stop offset="0.367213" stop-color="#5A6B83"/>
<stop offset="0.742213" stop-color="#ED5409"/>
<stop offset="1" stop-color="#FFCB67"/>
</linearGradient>
<linearGradient id="paint17_linear_4575_12431" x1="68.2264" y1="96.7728" x2="56.9974" y2="96.7728" gradientUnits="userSpaceOnUse">
<stop stop-color="#1A3746"/>
<stop offset="0.242213" stop-color="#2B588B"/>
<stop offset="0.367213" stop-color="#5A6B83"/>
<stop offset="0.742213" stop-color="#ED5409"/>
<stop offset="1" stop-color="#FFCB67"/>
</linearGradient>
<linearGradient id="paint18_linear_4575_12431" x1="68.2264" y1="84.7728" x2="56.9974" y2="84.7728" gradientUnits="userSpaceOnUse">
<stop stop-color="#1A3746"/>
<stop offset="0.242213" stop-color="#2B588B"/>
<stop offset="0.367213" stop-color="#5A6B83"/>
<stop offset="0.742213" stop-color="#ED5409"/>
<stop offset="1" stop-color="#FFCB67"/>
</linearGradient>
<linearGradient id="paint19_linear_4575_12431" x1="68.2264" y1="72.7728" x2="56.9974" y2="72.7728" gradientUnits="userSpaceOnUse">
<stop stop-color="#1A3746"/>
<stop offset="0.242213" stop-color="#2B588B"/>
<stop offset="0.367213" stop-color="#5A6B83"/>
<stop offset="0.742213" stop-color="#ED5409"/>
<stop offset="1" stop-color="#FFCB67"/>
</linearGradient>
<linearGradient id="paint20_linear_4575_12431" x1="68.2264" y1="133.773" x2="56.9974" y2="133.773" gradientUnits="userSpaceOnUse">
<stop stop-color="#1A3746"/>
<stop offset="0.242213" stop-color="#2B588B"/>
<stop offset="0.367213" stop-color="#5A6B83"/>
<stop offset="0.742213" stop-color="#ED5409"/>
<stop offset="1" stop-color="#FFCB67"/>
</linearGradient>
<linearGradient id="paint21_linear_4575_12431" x1="70.2264" y1="145.773" x2="58.9974" y2="145.773" gradientUnits="userSpaceOnUse">
<stop stop-color="#1A3746"/>
<stop offset="0.242213" stop-color="#2B588B"/>
<stop offset="0.367213" stop-color="#5A6B83"/>
<stop offset="0.742213" stop-color="#ED5409"/>
<stop offset="1" stop-color="#FFCB67"/>
</linearGradient>
<linearGradient id="paint22_linear_4575_12431" x1="82.2264" y1="147.773" x2="70.9974" y2="147.773" gradientUnits="userSpaceOnUse">
<stop stop-color="#1A3746"/>
<stop offset="0.242213" stop-color="#2B588B"/>
<stop offset="0.367213" stop-color="#5A6B83"/>
<stop offset="0.742213" stop-color="#ED5409"/>
<stop offset="1" stop-color="#FFCB67"/>
</linearGradient>
<linearGradient id="paint23_linear_4575_12431" x1="94.2264" y1="147.773" x2="82.9974" y2="147.773" gradientUnits="userSpaceOnUse">
<stop stop-color="#1A3746"/>
<stop offset="0.242213" stop-color="#2B588B"/>
<stop offset="0.367213" stop-color="#5A6B83"/>
<stop offset="0.742213" stop-color="#ED5409"/>
<stop offset="1" stop-color="#FFCB67"/>
</linearGradient>
<linearGradient id="paint24_linear_4575_12431" x1="107.226" y1="147.773" x2="95.9974" y2="147.773" gradientUnits="userSpaceOnUse">
<stop stop-color="#1A3746"/>
<stop offset="0.242213" stop-color="#2B588B"/>
<stop offset="0.367213" stop-color="#5A6B83"/>
<stop offset="0.742213" stop-color="#ED5409"/>
<stop offset="1" stop-color="#FFCB67"/>
</linearGradient>
<linearGradient id="paint25_linear_4575_12431" x1="119.226" y1="147.773" x2="107.997" y2="147.773" gradientUnits="userSpaceOnUse">
<stop stop-color="#1A3746"/>
<stop offset="0.242213" stop-color="#2B588B"/>
<stop offset="0.367213" stop-color="#5A6B83"/>
<stop offset="0.742213" stop-color="#ED5409"/>
<stop offset="1" stop-color="#FFCB67"/>
</linearGradient>
<linearGradient id="paint26_linear_4575_12431" x1="131.215" y1="147.773" x2="121.007" y2="147.773" gradientUnits="userSpaceOnUse">
<stop stop-color="#1A3746"/>
<stop offset="0.242213" stop-color="#2B588B"/>
<stop offset="0.367213" stop-color="#5A6B83"/>
<stop offset="0.742213" stop-color="#ED5409"/>
<stop offset="1" stop-color="#FFCB67"/>
</linearGradient>
<linearGradient id="paint27_linear_4575_12431" x1="258.226" y1="147.773" x2="246.997" y2="147.773" gradientUnits="userSpaceOnUse">
<stop stop-color="#1A3746"/>
<stop offset="0.242213" stop-color="#2B588B"/>
<stop offset="0.367213" stop-color="#5A6B83"/>
<stop offset="0.742213" stop-color="#ED5409"/>
<stop offset="1" stop-color="#FFCB67"/>
</linearGradient>
<linearGradient id="paint28_linear_4575_12431" x1="293.226" y1="101.15" x2="281.997" y2="101.15" gradientUnits="userSpaceOnUse">
<stop stop-color="#1A3746"/>
<stop offset="0.242213" stop-color="#2B588B"/>
<stop offset="0.367213" stop-color="#5A6B83"/>
<stop offset="0.742213" stop-color="#ED5409"/>
<stop offset="1" stop-color="#FFCB67"/>
</linearGradient>
<linearGradient id="paint29_linear_4575_12431" x1="235.259" y1="142.373" x2="128.074" y2="142.373" gradientUnits="userSpaceOnUse">
<stop stop-color="#102D3C"/>
<stop offset="0.161465" stop-color="#214E81"/>
<stop offset="0.363625" stop-color="#506179"/>
<stop offset="0.651499" stop-color="#ED5409"/>
<stop offset="1" stop-color="#FFCB67"/>
</linearGradient>
<linearGradient id="paint30_linear_4575_12431" x1="235.259" y1="142.373" x2="128.074" y2="142.373" gradientUnits="userSpaceOnUse">
<stop stop-color="#102D3C"/>
<stop offset="0.161465" stop-color="#214E81"/>
<stop offset="0.363625" stop-color="#506179"/>
<stop offset="0.651499" stop-color="#ED5409"/>
<stop offset="1" stop-color="#FFCB67"/>
</linearGradient>
<linearGradient id="paint31_linear_4575_12431" x1="147.161" y1="67.3184" x2="49.1626" y2="67.3184" gradientUnits="userSpaceOnUse">
<stop stop-color="#102D3C"/>
<stop offset="0.161465" stop-color="#214E81"/>
<stop offset="0.363625" stop-color="#506179"/>
<stop offset="0.651499" stop-color="#ED5409"/>
<stop offset="1" stop-color="#FFCB67"/>
</linearGradient>
<linearGradient id="paint32_linear_4575_12431" x1="147.161" y1="67.3184" x2="49.1626" y2="67.3184" gradientUnits="userSpaceOnUse">
<stop stop-color="#102D3C"/>
<stop offset="0.161465" stop-color="#214E81"/>
<stop offset="0.363625" stop-color="#506179"/>
<stop offset="0.651499" stop-color="#ED5409"/>
<stop offset="1" stop-color="#FFCB67"/>
</linearGradient>
<clipPath id="clip0_4575_12431">
<rect width="358" height="282" fill="white"/>
</clipPath>
</defs>
</svg>
