<svg width="378" height="487" viewBox="0 0 378 487" fill="none" xmlns="http://www.w3.org/2000/svg">
<g filter="url(#filter0_b_4287_9340)">
<g clip-path="url(#clip0_4287_9340)">
<rect y="0.0683594" width="378" height="486.864" rx="32" fill="#1A1A1C"/>
<mask id="mask0_4287_9340" style="mask-type:luminance" maskUnits="userSpaceOnUse" x="0" y="0" width="379" height="487">
<path d="M0.00390625 30.4954C0.00390625 13.69 13.6662 0.0664062 30.5195 0.0664062H347.488C364.342 0.0664062 378.004 13.69 378.004 30.4954V456.501C378.004 473.307 364.342 486.93 347.488 486.93H30.5195C13.6662 486.93 0.00390625 473.307 0.00390625 456.501V30.4954Z" fill="white"/>
</mask>
<g mask="url(#mask0_4287_9340)">
<path d="M344.725 485.724C344.501 486.054 344.406 486.326 344.229 486.408C339.412 488.569 338.102 493.008 336.921 497.553C336.909 497.6 336.921 497.671 336.885 497.707C336.72 497.907 336.531 498.096 336.354 498.285C336.177 498.085 335.929 497.919 335.847 497.683C335.162 495.723 334.595 493.728 333.828 491.804C332.883 489.466 331.23 487.719 328.916 486.633C328.621 486.491 328.22 486.113 328.243 485.889C328.279 485.582 328.621 485.192 328.928 485.051C331.903 483.705 333.462 481.19 334.536 478.298C335.044 476.917 335.386 475.476 335.835 474.071C335.917 473.823 336.189 473.634 336.366 473.41C336.543 473.634 336.803 473.823 336.885 474.083C337.547 475.96 338.078 477.885 338.81 479.738C339.778 482.17 341.466 483.976 343.875 485.086C344.158 485.216 344.383 485.476 344.701 485.724H344.725ZM328.975 485.712C329.022 485.865 329.034 485.901 329.046 485.913C329.282 486.054 329.506 486.208 329.743 486.338C331.714 487.318 333.084 488.888 334.005 490.836C334.477 491.816 334.878 492.843 335.244 493.87C335.646 495.015 335.976 496.184 336.366 497.447C337.771 492.795 338.786 488.038 343.981 485.83C338.751 483.622 337.795 478.841 336.354 474.248C335.953 475.535 335.622 476.692 335.244 477.826C334.123 481.214 332.553 484.26 328.963 485.712H328.975Z" fill="black"/>
<path d="M344.014 485.833C339.563 487.734 338.182 491.489 337.001 495.444C336.8 496.105 336.6 496.789 336.399 497.451C335.997 496.187 335.679 495.018 335.265 493.873C334.899 492.846 334.498 491.831 334.026 490.839C333.093 488.879 331.735 487.309 329.764 486.341C329.516 486.223 329.291 486.058 329.055 485.928C329.032 485.916 329.032 485.869 328.984 485.727C332.574 484.275 334.144 481.241 335.265 477.841C335.643 476.707 335.974 475.551 336.375 474.264C336.753 475.468 337.095 476.684 337.497 477.864C338.607 481.194 340.141 484.216 344.002 485.845L344.014 485.833Z" fill="#FFD384"/>
<g style="mix-blend-mode:multiply" opacity="0.5">
<path d="M336.47 491.396C336.847 492.718 336.895 494.088 337.001 495.434C336.8 496.095 336.6 496.78 336.399 497.441C335.997 496.178 335.679 495.009 335.265 493.864C334.899 492.836 334.498 491.821 334.026 490.829C333.093 488.87 331.735 487.299 329.764 486.331C329.516 486.213 329.291 486.048 329.055 485.918C329.032 485.906 329.032 485.859 328.984 485.717C332.574 484.265 334.144 481.231 335.265 477.831C335.643 476.698 335.974 475.541 336.375 474.254C336.753 475.458 337.095 476.674 337.497 477.855C337.32 480.015 336.647 482.14 335.561 484.053C334.581 485.788 334.191 486.556 335.053 488.539C335.501 489.554 336.151 490.31 336.458 491.408L336.47 491.396Z" fill="#FFD384"/>
</g>
<path d="M3.84606 220.581C3.62173 220.912 3.52727 221.183 3.35017 221.266C-1.46685 223.426 -2.77736 227.865 -3.958 232.411C-3.96981 232.458 -3.958 232.529 -3.99342 232.564C-4.15871 232.765 -4.34759 232.954 -4.52469 233.143C-4.70178 232.942 -4.94974 232.777 -5.03239 232.541C-5.71716 230.581 -6.28386 228.586 -7.05128 226.661C-7.99579 224.324 -9.64869 222.576 -11.9627 221.49C-12.2579 221.349 -12.6593 220.971 -12.6357 220.746C-12.6003 220.439 -12.2579 220.05 -11.9509 219.908C-8.97571 218.562 -7.41727 216.048 -6.34288 213.155C-5.83521 211.774 -5.49282 210.334 -5.04417 208.929C-4.96153 208.681 -4.69 208.492 -4.51291 208.268C-4.33581 208.492 -4.07606 208.681 -3.99342 208.941C-3.33226 210.818 -2.80097 212.742 -2.06897 214.596C-1.10084 217.028 0.587485 218.834 2.99599 219.944C3.27935 220.074 3.50365 220.333 3.82242 220.581H3.84606ZM-11.9037 220.569C-11.8565 220.723 -11.8447 220.758 -11.8329 220.77C-11.5967 220.912 -11.3724 221.065 -11.1363 221.195C-9.16461 222.175 -7.79509 223.745 -6.87419 225.693C-6.40193 226.673 -6.00049 227.7 -5.63449 228.727C-5.23307 229.872 -4.90252 231.041 -4.51291 232.304C-3.10794 227.653 -2.09258 222.895 3.10225 220.687C-2.12799 218.48 -3.0843 213.698 -4.52469 209.106C-4.9261 210.393 -5.25669 211.55 -5.63449 212.683C-6.7561 216.071 -8.32636 219.117 -11.9155 220.569H-11.9037Z" fill="black"/>
<path d="M3.13501 220.691C-1.31601 222.592 -2.69736 226.346 -3.878 230.301C-4.07871 230.962 -4.2794 231.647 -4.48011 232.308C-4.88152 231.045 -5.20032 229.876 -5.61355 228.731C-5.97955 227.704 -6.38095 226.688 -6.85321 225.697C-7.78591 223.737 -9.14367 222.167 -11.1153 221.199C-11.3633 221.08 -11.5876 220.915 -11.8237 220.785C-11.8473 220.774 -11.8473 220.726 -11.8945 220.585C-8.30538 219.133 -6.73516 216.098 -5.61355 212.698C-5.23574 211.565 -4.90516 210.408 -4.50374 209.121C-4.12594 210.325 -3.78354 211.541 -3.38212 212.722C-2.27232 216.051 -0.73747 219.073 3.12323 220.703L3.13501 220.691Z" fill="#FFD384"/>
<path d="M82.3012 180.517C81.9825 180.966 81.8644 181.344 81.6283 181.45C75.0167 184.401 73.2221 190.505 71.6164 196.727C71.5928 196.798 71.6164 196.892 71.5574 196.939C71.3213 197.211 71.0733 197.471 70.8372 197.73C70.6011 197.459 70.2587 197.223 70.1524 196.904C69.2197 194.224 68.4405 191.473 67.3779 188.84C66.091 185.629 63.8242 183.245 60.6483 181.745C60.2469 181.556 59.692 181.037 59.7156 180.718C59.7628 180.305 60.235 179.774 60.6601 179.573C64.7333 177.731 66.8821 174.284 68.3461 170.317C69.0544 168.428 69.5031 166.445 70.1288 164.52C70.2351 164.178 70.6129 163.918 70.8608 163.623C71.1088 163.93 71.4629 164.202 71.581 164.544C72.4783 167.118 73.2221 169.762 74.2257 172.289C75.548 175.618 77.862 178.109 81.1678 179.62C81.5574 179.797 81.8644 180.151 82.3012 180.494V180.517ZM60.7191 180.494C60.79 180.706 60.7899 180.753 60.8136 180.765C61.1323 180.966 61.4393 181.178 61.7699 181.344C64.4735 182.69 66.339 184.838 67.6141 187.518C68.2516 188.864 68.8183 190.269 69.3142 191.674C69.8691 193.244 70.3177 194.85 70.8608 196.585C72.7971 190.21 74.1666 183.693 81.2977 180.659C74.1312 177.637 72.8089 171.073 70.8372 164.78C70.2941 166.551 69.8337 168.121 69.3142 169.691C67.7794 174.343 65.6188 178.51 60.6955 180.494H60.7191Z" fill="black"/>
<path d="M81.3091 180.672C75.0517 183.34 73.2217 188.688 71.5688 194.261C71.3327 195.04 71.1084 195.819 70.8722 196.598C70.3291 194.851 69.8923 193.245 69.3374 191.687C68.8297 190.282 68.2748 188.877 67.6255 187.531C66.3504 184.851 64.485 182.703 61.7813 181.357C61.4389 181.191 61.132 180.979 60.8132 180.79C60.7896 180.766 60.7896 180.719 60.7188 180.507C65.6302 178.523 67.7908 174.356 69.3256 169.704C69.8451 168.146 70.3055 166.564 70.8486 164.793C71.0966 165.596 71.3327 166.399 71.5924 167.201C73.2572 172.703 75.0635 178.027 81.3091 180.672Z" fill="#FFD384"/>
<g style="mix-blend-mode:multiply" opacity="0.5">
<path d="M70.6323 188.381C71.0574 190.306 71.3289 192.289 71.5532 194.261C71.3171 195.04 71.0928 195.819 70.8566 196.598C70.3136 194.851 69.8767 193.245 69.3218 191.687C68.8141 190.282 68.2592 188.877 67.6099 187.531C66.3348 184.851 64.4694 182.703 61.7657 181.357C61.4233 181.191 61.1163 180.979 60.7976 180.79C60.7739 180.766 60.774 180.719 60.7031 180.507C65.6146 178.523 67.7752 174.356 69.31 169.704C69.8295 168.146 70.2899 166.564 70.833 164.793C71.0809 165.596 71.3171 166.399 71.5768 167.201C71.5414 171.558 69.7705 175.536 68.3419 179.964C67.3383 183.069 69.9476 185.253 70.6323 188.381Z" fill="#FFD384"/>
</g>
<path d="M309.192 257.324C308.873 257.773 308.755 258.15 308.519 258.257C301.907 261.208 300.113 267.312 298.507 273.534C298.483 273.604 298.507 273.699 298.448 273.746C298.212 274.018 297.964 274.277 297.728 274.537C297.492 274.265 297.149 274.029 297.043 273.711C296.11 271.031 295.331 268.28 294.269 265.647C292.982 262.436 290.715 260.051 287.539 258.552C287.137 258.363 286.583 257.843 286.606 257.525C286.653 257.111 287.126 256.58 287.551 256.38C291.624 254.538 293.773 251.09 295.237 247.124C295.945 245.235 296.394 243.251 297.019 241.327C297.126 240.985 297.504 240.725 297.751 240.43C297.999 240.737 298.354 241.008 298.472 241.351C299.369 243.924 300.113 246.569 301.116 249.095C302.439 252.425 304.753 254.916 308.058 256.427C308.448 256.604 308.755 256.958 309.192 257.3V257.324ZM287.61 257.3C287.681 257.513 287.681 257.56 287.704 257.572C288.023 257.773 288.33 257.985 288.661 258.15C291.364 259.496 293.23 261.645 294.505 264.325C295.142 265.671 295.709 267.076 296.205 268.481C296.76 270.051 297.208 271.656 297.751 273.392C299.688 267.017 301.057 260.5 308.188 257.466C301.022 254.443 299.699 247.879 297.728 241.587C297.185 243.358 296.724 244.928 296.205 246.498C294.67 251.149 292.509 255.317 287.586 257.3H287.61Z" fill="black"/>
<path d="M308.2 257.479C301.942 260.147 300.112 265.495 298.459 271.067C298.223 271.846 297.999 272.626 297.763 273.405C297.22 271.657 296.783 270.052 296.228 268.493C295.72 267.089 295.165 265.684 294.516 264.338C293.241 261.658 291.376 259.509 288.672 258.163C288.33 257.998 288.023 257.786 287.704 257.597C287.68 257.573 287.68 257.526 287.609 257.313C292.521 255.33 294.681 251.162 296.216 246.511C296.736 244.952 297.196 243.37 297.739 241.6C297.987 242.402 298.223 243.205 298.483 244.008C300.148 249.51 301.954 254.834 308.2 257.479Z" fill="#FFD384"/>
<g style="mix-blend-mode:multiply" opacity="0.5">
<path d="M297.523 265.188C297.948 267.112 298.22 269.096 298.444 271.067C298.208 271.846 297.983 272.626 297.747 273.405C297.204 271.657 296.767 270.052 296.212 268.493C295.705 267.089 295.15 265.684 294.501 264.338C293.225 261.658 291.36 259.509 288.656 258.163C288.314 257.998 288.007 257.786 287.688 257.597C287.665 257.573 287.665 257.526 287.594 257.313C292.505 255.33 294.666 251.162 296.201 246.511C296.72 244.952 297.181 243.37 297.724 241.6C297.972 242.402 298.208 243.205 298.467 244.008C298.432 248.364 296.661 252.343 295.233 256.77C294.229 259.875 296.838 262.059 297.523 265.188Z" fill="#FFD384"/>
</g>
<path d="M336.498 66.4062H33.4922V371.876H336.498V66.4062Z" stroke="url(#paint0_linear_4287_9340)" stroke-opacity="0.3" stroke-width="0.82561" stroke-miterlimit="10"/>
<path d="M223.203 179.932H146.059V257.573H223.203V179.932Z" stroke="url(#paint1_linear_4287_9340)" stroke-opacity="0.3" stroke-width="0.82561" stroke-miterlimit="10"/>
<path d="M185 295.09C227.178 295.09 261.371 260.715 261.371 218.31C261.371 175.905 227.178 141.529 185 141.529C142.821 141.529 108.629 175.905 108.629 218.31C108.629 260.715 142.821 295.09 185 295.09Z" stroke="url(#paint2_linear_4287_9340)" stroke-opacity="0.3" stroke-width="0.82561" stroke-miterlimit="10"/>
<path d="M33.1172 66.2578L336.143 371.238" stroke="url(#paint3_linear_4287_9340)" stroke-opacity="0.3" stroke-width="0.82561" stroke-miterlimit="10"/>
<path d="M336.143 66.2578L33.1172 371.238" stroke="url(#paint4_linear_4287_9340)" stroke-opacity="0.3" stroke-width="0.82561" stroke-miterlimit="10"/>
<path d="M41.0622 58.2656H25.1992V74.231H41.0622V58.2656Z" fill="#FE9A4C" stroke="url(#paint5_linear_4287_9340)" stroke-opacity="0.3" stroke-width="0.82561" stroke-linecap="round" stroke-linejoin="round"/>
<path d="M344.972 58.2656H329.109V74.231H344.972V58.2656Z" fill="#FE9A4C" stroke="url(#paint6_linear_4287_9340)" stroke-opacity="0.3" stroke-width="0.82561" stroke-linecap="round" stroke-linejoin="round"/>
<path d="M193.424 66.548C193.2 66.8785 193.105 67.1501 192.928 67.2327C188.111 69.3932 186.801 73.8322 185.62 78.3775C185.608 78.4247 185.62 78.4956 185.585 78.531C185.419 78.7317 185.23 78.9206 185.053 79.1095C184.876 78.9088 184.628 78.7435 184.546 78.5074C183.861 76.5476 183.294 74.5524 182.527 72.628C181.582 70.2904 179.929 68.5432 177.615 67.457C177.32 67.3153 176.919 66.9376 176.942 66.7132C176.978 66.4063 177.32 66.0167 177.627 65.875C180.602 64.5291 182.161 62.0145 183.235 59.122C183.743 57.7407 184.085 56.3004 184.534 54.8955C184.617 54.6476 184.888 54.4587 185.065 54.2344C185.242 54.4587 185.502 54.6476 185.585 54.9073C186.246 56.7845 186.777 58.7088 187.509 60.5624C188.477 62.9944 190.166 64.8007 192.574 65.9104C192.857 66.0403 193.082 66.3 193.401 66.548H193.424ZM177.674 66.5361C177.722 66.6896 177.733 66.725 177.745 66.7368C177.981 66.8785 178.206 67.032 178.442 67.1619C180.413 68.1418 181.783 69.712 182.704 71.6599C183.176 72.6398 183.578 73.6669 183.944 74.694C184.345 75.8392 184.676 77.008 185.065 78.2712C186.47 73.6197 187.486 68.8619 192.68 66.6542C187.45 64.4465 186.494 59.6651 185.053 55.0726C184.652 56.3594 184.321 57.5164 183.944 58.6498C182.822 62.0381 181.252 65.084 177.663 66.5361H177.674Z" fill="black"/>
<path d="M192.713 66.6577C188.262 68.5585 186.881 72.3127 185.7 76.2677C185.499 76.9289 185.299 77.6136 185.098 78.2747C184.697 77.0115 184.378 75.8427 183.965 74.6975C183.599 73.6704 183.197 72.6551 182.725 71.6634C181.792 69.7036 180.434 68.1452 178.463 67.1653C178.215 67.0473 177.991 66.882 177.754 66.7522C177.731 66.7403 177.731 66.6931 177.684 66.5515C181.273 65.0993 182.843 62.0652 183.965 58.6651C184.342 57.5317 184.673 56.3747 185.074 55.0879C185.452 56.2921 185.795 57.5081 186.196 58.6887C187.306 62.018 188.841 65.0403 192.701 66.6695L192.713 66.6577Z" fill="#FFD384"/>
<g style="mix-blend-mode:multiply" opacity="0.5">
<path d="M185.169 72.2301C185.547 73.5524 185.594 74.9219 185.7 76.2677C185.499 76.9289 185.299 77.6136 185.098 78.2747C184.697 77.0115 184.378 75.8427 183.965 74.6975C183.599 73.6704 183.197 72.6551 182.725 71.6634C181.792 69.7036 180.434 68.1452 178.463 67.1653C178.215 67.0473 177.991 66.882 177.754 66.7522C177.731 66.7403 177.731 66.6931 177.684 66.5515C181.273 65.0993 182.843 62.0652 183.965 58.6651C184.342 57.5317 184.673 56.3747 185.074 55.0879C185.452 56.2921 185.795 57.5081 186.196 58.6887C186.019 60.8492 185.346 62.9743 184.26 64.8868C183.28 66.6223 182.89 67.3897 183.752 69.3731C184.201 70.3884 184.85 71.144 185.157 72.2419L185.169 72.2301Z" fill="#FFD384"/>
</g>
<path d="M41.0622 363H25.1992V378.965H41.0622V363Z" fill="#FE9A4C" stroke="url(#paint7_linear_4287_9340)" stroke-opacity="0.3" stroke-width="0.82561" stroke-linecap="round" stroke-linejoin="round"/>
<path d="M344.144 363H328.281V378.965H344.144V363Z" fill="#FE9A4C" stroke="url(#paint8_linear_4287_9340)" stroke-opacity="0.3" stroke-width="0.82561" stroke-linecap="round" stroke-linejoin="round"/>
<path d="M344.144 212.365H328.281V228.331H344.144V212.365Z" fill="#FE9A4C" stroke="url(#paint9_linear_4287_9340)" stroke-opacity="0.3" stroke-width="0.82561" stroke-linecap="round" stroke-linejoin="round"/>
<path d="M193.194 371.792C192.969 372.123 192.875 372.394 192.698 372.477C187.881 374.637 186.57 379.076 185.39 383.622C185.378 383.669 185.39 383.74 185.354 383.775C185.189 383.976 185 384.165 184.823 384.354C184.646 384.153 184.398 383.988 184.315 383.752C183.63 381.792 183.064 379.797 182.296 377.872C181.352 375.535 179.699 373.787 177.385 372.701C177.09 372.559 176.688 372.182 176.712 371.957C176.747 371.65 177.09 371.261 177.397 371.119C180.372 369.773 181.93 367.259 183.005 364.366C183.512 362.985 183.855 361.545 184.303 360.14C184.386 359.892 184.658 359.703 184.835 359.479C185.012 359.703 185.272 359.892 185.354 360.151C186.015 362.029 186.547 363.953 187.279 365.806C188.247 368.239 189.935 370.045 192.344 371.155C192.627 371.284 192.851 371.544 193.17 371.792H193.194ZM177.444 371.78C177.491 371.934 177.503 371.969 177.515 371.981C177.751 372.123 177.975 372.276 178.211 372.406C180.183 373.386 181.553 374.956 182.473 376.904C182.946 377.884 183.347 378.911 183.713 379.938C184.115 381.083 184.445 382.252 184.835 383.515C186.24 378.864 187.255 374.106 192.45 371.898C187.22 369.691 186.263 364.909 184.823 360.317C184.422 361.604 184.091 362.761 183.713 363.894C182.592 367.282 181.021 370.328 177.432 371.78H177.444Z" fill="black"/>
<path d="M192.479 371.904C188.028 373.805 186.646 377.559 185.466 381.514C185.265 382.175 185.064 382.86 184.864 383.521C184.462 382.258 184.143 381.089 183.73 379.944C183.364 378.917 182.963 377.901 182.491 376.909C181.558 374.95 180.2 373.38 178.228 372.411C177.98 372.293 177.756 372.128 177.52 371.998C177.496 371.986 177.496 371.939 177.449 371.798C181.038 370.345 182.609 367.311 183.73 363.911C184.108 362.778 184.439 361.621 184.84 360.334C185.218 361.538 185.56 362.754 185.962 363.935C187.071 367.264 188.606 370.286 192.467 371.916L192.479 371.904Z" fill="#FFD384"/>
<g style="mix-blend-mode:multiply" opacity="0.5">
<path d="M184.934 377.464C185.312 378.787 185.359 380.156 185.466 381.502C185.265 382.163 185.064 382.848 184.864 383.509C184.462 382.246 184.143 381.077 183.73 379.932C183.364 378.905 182.963 377.889 182.491 376.898C181.558 374.938 180.2 373.368 178.228 372.4C177.98 372.282 177.756 372.116 177.52 371.987C177.496 371.975 177.496 371.928 177.449 371.786C181.038 370.334 182.609 367.3 183.73 363.899C184.108 362.766 184.439 361.609 184.84 360.322C185.218 361.526 185.56 362.742 185.962 363.923C185.785 366.084 185.112 368.209 184.025 370.121C183.045 371.857 182.656 372.624 183.518 374.607C183.966 375.623 184.616 376.378 184.923 377.476L184.934 377.464Z" fill="#FFD384"/>
</g>
<path d="M41.3164 -1.30469L41.3164 204.681C41.3164 208.329 44.2735 211.286 47.9213 211.286L132.136 211.286" stroke="#506179" stroke-width="0.82561" stroke-dasharray="3.3 3.3"/>
<path d="M25.2266 -1.71484L25.2266 207.986C25.2266 218.929 34.0979 227.801 45.0412 227.801L132.145 227.801" stroke="#506179" stroke-width="0.82561" stroke-dasharray="3.3 3.3"/>
<path d="M33.4727 7.77734L33.4727 207.984C33.4727 214.367 38.6476 219.542 45.0312 219.542L132.135 219.542" stroke="url(#paint10_linear_4287_9340)" stroke-width="1.65122"/>
<path d="M336.898 7.77539L336.898 207.982C336.898 214.365 331.724 219.54 325.34 219.54L242.364 219.54" stroke="#506179" stroke-width="0.82561"/>
<path d="M327.422 28.002L327.422 204.68C327.422 208.328 324.465 211.285 320.817 211.285L242.382 211.285" stroke="#506179" stroke-width="0.82561" stroke-dasharray="3.3 3.3"/>
<path d="M346.816 33.7773V207.978C346.816 218.922 337.945 227.793 327.002 227.793L242.374 227.793" stroke="#506179" stroke-width="0.82561" stroke-dasharray="3.3 3.3"/>
<rect x="296.867" y="97.7734" width="78.3744" height="33.1101" rx="5.91482" fill="#FFECD4"/>
<rect x="296.867" y="97.7734" width="78.3744" height="33.1101" rx="5.91482" fill="#141416" fill-opacity="0.9"/>
<rect x="297.162" y="98.0687" width="77.784" height="32.5196" rx="5.61959" stroke="#F5F5F5" stroke-opacity="0.5" stroke-width="0.590461"/>
<path d="M311.442 121.616C310.393 121.616 309.406 121.409 308.481 120.995C307.557 120.574 306.744 119.994 306.041 119.254C305.339 118.515 304.788 117.661 304.389 116.692C303.99 115.716 303.79 114.674 303.79 113.565C303.79 112.456 303.99 111.417 304.389 110.449C304.788 109.473 305.339 108.615 306.041 107.876C306.744 107.136 307.557 106.56 308.481 106.146C309.406 105.724 310.393 105.513 311.442 105.513C312.5 105.513 313.49 105.724 314.415 106.146C315.339 106.56 316.152 107.136 316.855 107.876C317.557 108.615 318.104 109.473 318.496 110.449C318.895 111.417 319.095 112.456 319.095 113.565C319.095 114.674 318.895 115.716 318.496 116.692C318.104 117.661 317.557 118.515 316.855 119.254C316.152 119.994 315.339 120.574 314.415 120.995C313.49 121.409 312.5 121.616 311.442 121.616ZM311.442 119.753C312.248 119.753 312.999 119.591 313.694 119.265C314.396 118.94 315.01 118.493 315.535 117.923C316.067 117.347 316.481 116.689 316.777 115.949C317.08 115.203 317.232 114.408 317.232 113.565C317.232 112.722 317.08 111.927 316.777 111.181C316.474 110.426 316.056 109.768 315.524 109.206C314.999 108.637 314.385 108.19 313.683 107.865C312.988 107.539 312.241 107.377 311.442 107.377C310.637 107.377 309.882 107.539 309.18 107.865C308.485 108.19 307.871 108.641 307.339 109.218C306.814 109.787 306.4 110.445 306.097 111.192C305.801 111.931 305.653 112.722 305.653 113.565C305.653 114.415 305.805 115.214 306.108 115.96C306.411 116.707 306.825 117.365 307.35 117.934C307.882 118.504 308.496 118.951 309.191 119.276C309.894 119.594 310.644 119.753 311.442 119.753ZM327.047 112.101H324.53L324.519 121.328H322.655L322.667 112.101H320.759V110.238H322.667L322.655 106.755H324.519L324.53 110.238H327.047V112.101ZM338.839 114.43V121.328H336.976V114.84C336.976 114.278 336.839 113.768 336.566 113.31C336.292 112.851 335.926 112.489 335.468 112.223C335.009 111.949 334.499 111.813 333.937 111.813C333.383 111.813 332.873 111.949 332.407 112.223C331.948 112.489 331.582 112.851 331.309 113.31C331.035 113.768 330.898 114.278 330.898 114.84V121.328H329.035V104.693H330.898V111.624C331.29 111.107 331.786 110.696 332.385 110.393C332.983 110.083 333.634 109.927 334.336 109.927C335.165 109.927 335.919 110.131 336.599 110.537C337.286 110.937 337.83 111.476 338.229 112.156C338.636 112.837 338.839 113.594 338.839 114.43ZM345.72 121.616C344.7 121.616 343.768 121.354 342.925 120.829C342.09 120.304 341.421 119.602 340.918 118.722C340.423 117.835 340.175 116.855 340.175 115.783C340.175 114.97 340.319 114.212 340.608 113.509C340.896 112.8 341.291 112.179 341.794 111.646C342.304 111.107 342.896 110.685 343.569 110.382C344.241 110.079 344.959 109.927 345.72 109.927C346.556 109.927 347.321 110.097 348.016 110.437C348.718 110.77 349.317 111.236 349.812 111.835C350.315 112.434 350.689 113.129 350.933 113.92C351.184 114.711 351.276 115.557 351.21 116.459H342.16C342.249 117.088 342.456 117.65 342.781 118.145C343.107 118.633 343.521 119.021 344.023 119.31C344.533 119.598 345.099 119.746 345.72 119.753C346.386 119.753 346.988 119.583 347.528 119.243C348.068 118.896 348.504 118.422 348.837 117.824L350.733 118.267C350.289 119.251 349.62 120.056 348.726 120.685C347.831 121.306 346.829 121.616 345.72 121.616ZM342.105 114.996H349.336C349.276 114.375 349.077 113.809 348.737 113.299C348.397 112.781 347.964 112.367 347.439 112.057C346.914 111.746 346.341 111.591 345.72 111.591C345.099 111.591 344.53 111.742 344.012 112.046C343.495 112.349 343.066 112.759 342.726 113.277C342.393 113.787 342.186 114.36 342.105 114.996ZM353.079 121.328V110.238H354.942V111.624C355.334 111.107 355.829 110.696 356.428 110.393C357.027 110.083 357.677 109.927 358.38 109.927C358.809 109.927 359.223 109.983 359.622 110.094L358.868 111.957C358.565 111.861 358.269 111.813 357.981 111.813C357.426 111.813 356.916 111.949 356.45 112.223C355.992 112.489 355.626 112.851 355.352 113.31C355.079 113.768 354.942 114.278 354.942 114.84V121.328H353.079ZM364.367 121.539C363.769 121.517 363.184 121.406 362.615 121.206C362.053 120.999 361.558 120.722 361.129 120.374C360.708 120.019 360.401 119.613 360.209 119.154L361.806 118.467C361.916 118.718 362.116 118.955 362.404 119.177C362.693 119.398 363.025 119.576 363.403 119.709C363.78 119.842 364.16 119.909 364.545 119.909C364.952 119.909 365.332 119.846 365.687 119.72C366.042 119.594 366.33 119.41 366.552 119.166C366.781 118.914 366.896 118.615 366.896 118.267C366.896 117.898 366.77 117.609 366.519 117.402C366.275 117.188 365.964 117.021 365.587 116.903C365.218 116.777 364.841 116.659 364.456 116.548C363.695 116.356 363.014 116.127 362.416 115.861C361.817 115.587 361.343 115.243 360.996 114.829C360.656 114.408 360.486 113.872 360.486 113.221C360.486 112.534 360.674 111.938 361.051 111.436C361.436 110.933 361.939 110.545 362.56 110.271C363.181 109.998 363.846 109.861 364.556 109.861C365.451 109.861 366.268 110.053 367.007 110.437C367.746 110.822 368.297 111.343 368.659 112.001L367.162 112.877C367.036 112.611 366.844 112.378 366.585 112.179C366.327 111.972 366.031 111.809 365.698 111.691C365.366 111.572 365.025 111.51 364.678 111.502C364.249 111.487 363.846 111.543 363.469 111.668C363.099 111.794 362.8 111.986 362.571 112.245C362.349 112.497 362.238 112.811 362.238 113.188C362.238 113.558 362.356 113.838 362.593 114.031C362.837 114.223 363.151 114.378 363.536 114.497C363.928 114.607 364.353 114.737 364.811 114.885C365.484 115.099 366.112 115.347 366.696 115.628C367.28 115.909 367.75 116.26 368.105 116.681C368.467 117.103 368.645 117.624 368.637 118.245C368.637 118.925 368.434 119.52 368.027 120.031C367.621 120.533 367.092 120.918 366.441 121.184C365.798 121.45 365.107 121.568 364.367 121.539Z" fill="#F5F5F5"/>
<rect x="-11.9322" y="267.025" width="18.1639" height="53.6638" rx="9.08171" fill="url(#paint11_linear_4287_9340)"/>
<rect x="-11.9322" y="267.025" width="18.1639" height="53.6638" rx="9.08171" fill="#141416" fill-opacity="0.9"/>
<rect x="-11.9322" y="267.025" width="18.1639" height="53.6638" rx="9.08171" stroke="url(#paint12_linear_4287_9340)" stroke-width="1.65122"/>
<rect x="367.872" y="304.174" width="18.1631" height="53.6661" rx="9.08156" transform="rotate(-90 367.872 304.174)" fill="url(#paint13_linear_4287_9340)"/>
<rect x="367.872" y="304.174" width="18.1631" height="53.6661" rx="9.08156" transform="rotate(-90 367.872 304.174)" fill="#141416" fill-opacity="0.9"/>
<rect x="367.872" y="304.174" width="18.1631" height="53.6661" rx="9.08156" transform="rotate(-90 367.872 304.174)" stroke="url(#paint14_linear_4287_9340)" stroke-width="1.65122"/>
<rect x="127.549" y="300.403" width="115.998" height="50.5096" rx="12.9162" fill="url(#paint15_linear_4287_9340)"/>
<rect x="127.549" y="300.403" width="115.998" height="50.5096" rx="12.9162" fill="#141416" fill-opacity="0.8"/>
<rect x="127.549" y="300.403" width="115.998" height="50.5096" rx="12.9162" stroke="url(#paint16_linear_4287_9340)" stroke-width="2.3484"/>
<g clip-path="url(#clip1_4287_9340)">
<path d="M146.794 327.155C145.387 328.776 145.456 331.291 146.944 332.842C147.775 333.713 148.888 334.146 149.995 334.146C151.08 334.146 152.158 333.731 152.983 332.906C153.358 332.531 153.652 332.098 153.854 331.643L159.305 321.076C159.449 320.777 159.137 320.465 158.837 320.609L148.271 326.06C147.723 326.302 147.221 326.671 146.794 327.155ZM148.721 328.643C149.072 328.292 149.534 328.113 149.995 328.113C150.457 328.113 150.918 328.292 151.276 328.643C151.979 329.347 151.979 330.495 151.276 331.199C150.924 331.55 150.463 331.729 149.995 331.729C149.534 331.729 149.072 331.55 148.721 331.199C148.011 330.489 148.011 329.347 148.721 328.643ZM161.312 331.256C161.312 329.261 160.787 327.3 159.789 325.587C159.403 324.918 159.628 324.064 160.297 323.678C160.966 323.291 161.819 323.516 162.206 324.185C163.446 326.325 164.103 328.77 164.103 331.256C164.103 332.029 163.481 332.652 162.708 332.652C161.94 332.652 161.312 332.029 161.312 331.256ZM135.922 331.256C135.922 323.487 142.243 317.166 150.013 317.166C151.818 317.166 153.577 317.501 155.238 318.17C155.954 318.458 156.3 319.265 156.017 319.981C155.729 320.696 154.921 321.042 154.206 320.759C152.873 320.229 151.46 319.958 150.013 319.958C143.783 319.958 138.713 325.027 138.713 331.256C138.713 332.029 138.091 332.652 137.318 332.652C136.545 332.652 135.922 332.029 135.922 331.256Z" fill="url(#paint17_linear_4287_9340)"/>
</g>
<path d="M178.853 336.158L183.569 328.019C182.465 328.345 181.377 328.403 180.304 328.193C179.242 327.972 178.275 327.541 177.402 326.9C176.529 326.248 175.83 325.427 175.304 324.439C174.779 323.451 174.516 322.352 174.516 321.142C174.516 320.112 174.71 319.145 175.099 318.24C175.488 317.336 176.025 316.542 176.708 315.859C177.392 315.175 178.18 314.639 179.074 314.25C179.978 313.861 180.946 313.666 181.976 313.666C183.343 313.666 184.584 314.003 185.699 314.676C186.824 315.349 187.723 316.253 188.396 317.389C189.079 318.514 189.421 319.765 189.421 321.142C189.421 321.889 189.326 322.551 189.137 323.13C188.958 323.698 188.685 324.318 188.317 324.991L181.913 336.158H178.853ZM181.945 325.953C182.881 325.953 183.711 325.732 184.437 325.291C185.173 324.839 185.746 324.244 186.156 323.508C186.577 322.772 186.787 321.984 186.787 321.142C186.787 320.228 186.566 319.407 186.125 318.682C185.683 317.946 185.094 317.367 184.358 316.947C183.622 316.516 182.828 316.3 181.976 316.3C181.04 316.3 180.205 316.526 179.468 316.978C178.743 317.431 178.17 318.03 177.749 318.777C177.339 319.513 177.134 320.301 177.134 321.142C177.134 322.026 177.344 322.835 177.765 323.571C178.196 324.297 178.774 324.875 179.5 325.306C180.236 325.738 181.051 325.953 181.945 325.953ZM199.807 336.568C198.492 336.568 197.315 336.274 196.274 335.685C195.233 335.086 194.339 334.26 193.592 333.209C192.846 332.157 192.278 330.943 191.889 329.565C191.5 328.177 191.305 326.694 191.305 325.117C191.305 323.54 191.5 322.057 191.889 320.669C192.278 319.281 192.846 318.067 193.592 317.026C194.339 315.974 195.233 315.154 196.274 314.565C197.315 313.966 198.492 313.666 199.807 313.666C201.111 313.666 202.283 313.966 203.324 314.565C204.376 315.154 205.264 315.974 205.99 317.026C206.726 318.067 207.288 319.281 207.677 320.669C208.077 322.057 208.277 323.54 208.277 325.117C208.277 326.694 208.077 328.177 207.677 329.565C207.288 330.943 206.726 332.157 205.99 333.209C205.264 334.26 204.376 335.086 203.324 335.685C202.283 336.274 201.111 336.568 199.807 336.568ZM199.807 333.918C201.121 333.918 202.22 333.514 203.103 332.704C203.997 331.884 204.665 330.806 205.107 329.471C205.548 328.135 205.769 326.684 205.769 325.117C205.769 323.466 205.538 321.978 205.075 320.653C204.623 319.318 203.95 318.261 203.056 317.483C202.173 316.705 201.09 316.316 199.807 316.316C198.797 316.316 197.914 316.553 197.157 317.026C196.41 317.499 195.79 318.146 195.296 318.966C194.802 319.786 194.428 320.727 194.176 321.789C193.934 322.841 193.813 323.95 193.813 325.117C193.813 326.684 194.039 328.14 194.491 329.486C194.944 330.822 195.611 331.894 196.495 332.704C197.388 333.514 198.492 333.918 199.807 333.918ZM211.894 336.158L224.638 314.076H227.698L214.954 336.158H211.894ZM214.512 322.956C213.765 322.956 213.087 322.778 212.477 322.42C211.878 322.063 211.394 321.579 211.026 320.969C210.658 320.359 210.474 319.681 210.474 318.934C210.474 318.167 210.658 317.483 211.026 316.884C211.394 316.274 211.883 315.79 212.493 315.433C213.103 315.075 213.776 314.896 214.512 314.896C215.248 314.896 215.921 315.08 216.531 315.448C217.141 315.806 217.625 316.29 217.982 316.9C218.35 317.499 218.534 318.177 218.534 318.934C218.534 319.691 218.35 320.375 217.982 320.985C217.614 321.584 217.125 322.063 216.515 322.42C215.905 322.778 215.238 322.956 214.512 322.956ZM214.512 321.016C215.09 321.016 215.579 320.816 215.979 320.417C216.389 320.007 216.594 319.513 216.594 318.934C216.594 318.345 216.389 317.851 215.979 317.452C215.579 317.042 215.09 316.836 214.512 316.836C213.934 316.836 213.439 317.042 213.029 317.452C212.619 317.851 212.414 318.345 212.414 318.934C212.414 319.513 212.619 320.007 213.029 320.417C213.439 320.816 213.934 321.016 214.512 321.016ZM225.096 335.354C224.36 335.354 223.681 335.17 223.061 334.802C222.451 334.423 221.962 333.929 221.594 333.319C221.237 332.699 221.058 332.031 221.058 331.316C221.058 330.559 221.242 329.875 221.61 329.265C221.988 328.656 222.483 328.172 223.092 327.814C223.702 327.457 224.37 327.278 225.096 327.278C225.853 327.278 226.536 327.467 227.146 327.846C227.756 328.214 228.24 328.703 228.597 329.313C228.955 329.923 229.133 330.59 229.133 331.316C229.133 332.063 228.949 332.741 228.581 333.351C228.224 333.961 227.74 334.449 227.13 334.818C226.52 335.175 225.842 335.354 225.096 335.354ZM225.096 333.414C225.674 333.414 226.168 333.209 226.578 332.799C226.988 332.388 227.193 331.894 227.193 331.316C227.193 330.738 226.988 330.243 226.578 329.833C226.168 329.423 225.674 329.218 225.096 329.218C224.517 329.218 224.023 329.423 223.613 329.833C223.203 330.243 222.998 330.738 222.998 331.316C222.998 331.894 223.203 332.388 223.613 332.799C224.023 333.209 224.517 333.414 225.096 333.414Z" fill="#F5F5F5"/>
<g clip-path="url(#clip2_4287_9340)">
<path d="M39.268 189.565C39.268 186.282 36.6065 183.621 33.3235 183.621C30.0404 183.621 27.3789 186.282 27.3789 189.565C27.3789 192.848 30.0404 195.51 33.3235 195.51C36.6065 195.51 39.268 192.848 39.268 189.565Z" fill="url(#paint18_linear_4287_9340)"/>
<path d="M34.3321 190.729C32.4597 191.274 30.9108 192.069 29.9412 193.001L29.8984 193.042C30.1563 193.279 30.439 193.49 30.7446 193.67L30.8103 193.592C31.075 193.279 31.3587 192.976 31.6544 192.69C32.4478 191.924 33.3556 191.261 34.3331 190.729L34.3321 190.729Z" fill="#141416"/>
<path d="M28.3672 189.924C28.4418 190.896 28.8141 191.787 29.3985 192.511L29.4253 192.485C30.0256 191.912 30.807 191.39 31.7497 190.935C32.5759 190.536 33.5245 190.194 34.5469 189.924H28.3672Z" fill="#141416"/>
<path d="M32.1628 185.931C33.8381 187.548 35.9464 188.618 38.2588 189.024C37.9801 186.625 35.8738 184.76 33.3145 184.76C32.6386 184.76 31.9946 184.89 31.4062 185.126C31.6452 185.405 31.9 185.676 32.1628 185.931Z" fill="#141416"/>
<path d="M29.9412 186.124C30.9108 187.056 32.4597 187.85 34.3321 188.396C33.3546 187.863 32.4467 187.201 31.6534 186.435C31.3587 186.15 31.075 185.847 30.8093 185.533L30.7436 185.455C30.438 185.635 30.1553 185.846 29.8984 186.083L29.9412 186.124Z" fill="#141416"/>
<path d="M32.1628 193.205C31.899 193.46 31.6442 193.731 31.4062 194.01C31.9936 194.245 32.6386 194.376 33.3145 194.376C35.8738 194.376 37.9801 192.511 38.2598 190.111C35.9474 190.517 33.8391 191.587 32.1638 193.205L32.1628 193.205Z" fill="#141416"/>
<path d="M31.7497 188.196C30.807 187.741 30.0256 187.219 29.4253 186.645L29.3985 186.619C28.8141 187.344 28.4418 188.235 28.3672 189.207H34.5459C33.5236 188.937 32.5759 188.594 31.7487 188.195L31.7497 188.196Z" fill="#141416"/>
</g>
<g clip-path="url(#clip3_4287_9340)">
<path d="M39.268 175.694C39.268 172.411 36.6065 169.75 33.3235 169.75C30.0404 169.75 27.3789 172.411 27.3789 175.694C27.3789 178.977 30.0404 181.639 33.3235 181.639C36.6065 181.639 39.268 178.977 39.268 175.694Z" fill="url(#paint19_linear_4287_9340)"/>
<path d="M34.3321 176.86C32.4597 177.405 30.9108 178.2 29.9412 179.132L29.8984 179.173C30.1563 179.409 30.439 179.621 30.7446 179.801L30.8103 179.723C31.075 179.409 31.3587 179.107 31.6544 178.821C32.4478 178.055 33.3556 177.392 34.3331 176.859L34.3321 176.86Z" fill="#141416"/>
<path d="M28.3672 176.059C28.4418 177.03 28.8141 177.921 29.3985 178.646L29.4253 178.62C30.0256 178.046 30.807 177.524 31.7497 177.07C32.5759 176.671 33.5245 176.329 34.5469 176.059H28.3672Z" fill="#141416"/>
<path d="M32.1628 172.061C33.8381 173.679 35.9464 174.749 38.2588 175.155C37.9801 172.756 35.8738 170.891 33.3145 170.891C32.6386 170.891 31.9946 171.021 31.4062 171.257C31.6452 171.536 31.9 171.807 32.1628 172.061Z" fill="#141416"/>
<path d="M29.9412 172.257C30.9108 173.189 32.4597 173.983 34.3321 174.529C33.3546 173.996 32.4467 173.333 31.6534 172.567C31.3587 172.283 31.075 171.98 30.8093 171.666L30.7436 171.588C30.438 171.768 30.1553 171.979 29.8984 172.216L29.9412 172.257Z" fill="#141416"/>
<path d="M32.1628 179.338C31.899 179.593 31.6442 179.864 31.4062 180.143C31.9936 180.378 32.6386 180.509 33.3145 180.509C35.8738 180.509 37.9801 178.643 38.2598 176.244C35.9474 176.65 33.8391 177.72 32.1638 179.337L32.1628 179.338Z" fill="#141416"/>
<path d="M31.7497 174.326C30.807 173.872 30.0256 173.35 29.4253 172.776L29.3985 172.75C28.8141 173.475 28.4418 174.366 28.3672 175.338H34.5459C33.5236 175.067 32.5759 174.725 31.7487 174.325L31.7497 174.326Z" fill="#141416"/>
</g>
<g clip-path="url(#clip4_4287_9340)">
<path d="M39.268 161.823C39.268 158.54 36.6065 155.879 33.3235 155.879C30.0404 155.879 27.3789 158.54 27.3789 161.823C27.3789 165.106 30.0404 167.768 33.3235 167.768C36.6065 167.768 39.268 165.106 39.268 161.823Z" fill="url(#paint20_linear_4287_9340)"/>
<path d="M34.3321 162.991C32.4597 163.536 30.9108 164.331 29.9412 165.263L29.8984 165.304C30.1563 165.54 30.439 165.752 30.7446 165.932L30.8103 165.854C31.075 165.54 31.3587 165.238 31.6544 164.952C32.4478 164.186 33.3556 163.523 34.3331 162.99L34.3321 162.991Z" fill="#141416"/>
<path d="M28.3672 162.191C28.4418 163.163 28.8141 164.054 29.3985 164.779L29.4253 164.753C30.0256 164.179 30.807 163.657 31.7497 163.203C32.5759 162.804 33.5245 162.462 34.5469 162.191H28.3672Z" fill="#141416"/>
<path d="M32.1628 158.194C33.8381 159.812 35.9464 160.882 38.2588 161.287C37.9801 158.889 35.8738 157.023 33.3145 157.023C32.6386 157.023 31.9946 157.154 31.4062 157.39C31.6452 157.668 31.9 157.939 32.1628 158.194Z" fill="#141416"/>
<path d="M29.9412 158.386C30.9108 159.318 32.4597 160.112 34.3321 160.658C33.3546 160.125 32.4467 159.462 31.6534 158.696C31.3587 158.412 31.075 158.109 30.8093 157.795L30.7436 157.717C30.438 157.897 30.1553 158.108 29.8984 158.344L29.9412 158.386Z" fill="#141416"/>
<path d="M32.1628 165.469C31.899 165.724 31.6442 165.995 31.4062 166.274C31.9936 166.509 32.6386 166.64 33.3145 166.64C35.8738 166.64 37.9801 164.774 38.2598 162.375C35.9474 162.781 33.8391 163.85 32.1638 165.468L32.1628 165.469Z" fill="#141416"/>
<path d="M31.7497 160.457C30.807 160.003 30.0256 159.481 29.4253 158.907L29.3985 158.881C28.8141 159.606 28.4418 160.497 28.3672 161.468H34.5459C33.5236 161.198 32.5759 160.856 31.7487 160.456L31.7497 160.457Z" fill="#141416"/>
</g>
<g clip-path="url(#clip5_4287_9340)">
<path d="M39.268 148.308C39.268 145.025 36.6065 142.363 33.3235 142.363C30.0404 142.363 27.3789 145.025 27.3789 148.308C27.3789 151.591 30.0404 154.252 33.3235 154.252C36.6065 154.252 39.268 151.591 39.268 148.308Z" fill="url(#paint21_linear_4287_9340)"/>
<path d="M34.3321 149.478C32.4597 150.023 30.9108 150.817 29.9412 151.749L29.8984 151.79C30.1563 152.027 30.439 152.238 30.7446 152.418L30.8103 152.34C31.075 152.027 31.3587 151.724 31.6544 151.438C32.4478 150.672 33.3556 150.009 34.3331 149.477L34.3321 149.478Z" fill="#141416"/>
<path d="M28.3672 148.664C28.4418 149.636 28.8141 150.527 29.3985 151.252L29.4253 151.226C30.0256 150.652 30.807 150.13 31.7497 149.675C32.5759 149.276 33.5245 148.934 34.5469 148.664H28.3672Z" fill="#141416"/>
<path d="M32.1628 144.675C33.8381 146.292 35.9464 147.362 38.2588 147.768C37.9801 145.37 35.8738 143.504 33.3145 143.504C32.6386 143.504 31.9946 143.635 31.4062 143.87C31.6452 144.149 31.9 144.42 32.1628 144.675Z" fill="#141416"/>
<path d="M29.9412 144.874C30.9108 145.806 32.4597 146.6 34.3321 147.146C33.3546 146.613 32.4467 145.951 31.6534 145.185C31.3587 144.9 31.075 144.597 30.8093 144.283L30.7436 144.205C30.438 144.385 30.1553 144.596 29.8984 144.833L29.9412 144.874Z" fill="#141416"/>
<path d="M32.1628 151.934C31.899 152.189 31.6442 152.46 31.4062 152.738C31.9936 152.974 32.6386 153.105 33.3145 153.105C35.8738 153.105 37.9801 151.239 38.2598 148.84C35.9474 149.245 33.8391 150.315 32.1638 151.933L32.1628 151.934Z" fill="#141416"/>
<path d="M31.7497 146.942C30.807 146.487 30.0256 145.965 29.4253 145.391L29.3985 145.365C28.8141 146.09 28.4418 146.981 28.3672 147.953H34.5459C33.5236 147.683 32.5759 147.34 31.7487 146.941L31.7497 146.942Z" fill="#141416"/>
</g>
<g clip-path="url(#clip6_4287_9340)">
<path d="M39.268 134.78C39.268 131.497 36.6065 128.836 33.3235 128.836C30.0404 128.836 27.3789 131.497 27.3789 134.78C27.3789 138.063 30.0404 140.725 33.3235 140.725C36.6065 140.725 39.268 138.063 39.268 134.78Z" fill="url(#paint22_linear_4287_9340)"/>
<path d="M34.3321 135.944C32.4597 136.489 30.9108 137.284 29.9412 138.216L29.8984 138.257C30.1563 138.493 30.439 138.705 30.7446 138.885L30.8103 138.807C31.075 138.493 31.3587 138.191 31.6544 137.905C32.4478 137.139 33.3556 136.476 34.3331 135.943L34.3321 135.944Z" fill="#141416"/>
<path d="M28.3672 135.143C28.4418 136.114 28.8141 137.005 29.3985 137.73L29.4253 137.704C30.0256 137.13 30.807 136.608 31.7497 136.154C32.5759 135.755 33.5245 135.413 34.5469 135.143H28.3672Z" fill="#141416"/>
<path d="M32.1628 131.147C33.8381 132.765 35.9464 133.835 38.2588 134.24C37.9801 131.842 35.8738 129.977 33.3145 129.977C32.6386 129.977 31.9946 130.107 31.4062 130.343C31.6452 130.622 31.9 130.893 32.1628 131.147Z" fill="#141416"/>
<path d="M29.9412 131.341C30.9108 132.273 32.4597 133.067 34.3321 133.613C33.3546 133.08 32.4467 132.417 31.6534 131.651C31.3587 131.367 31.075 131.064 30.8093 130.75L30.7436 130.672C30.438 130.852 30.1553 131.063 29.8984 131.3L29.9412 131.341Z" fill="#141416"/>
<path d="M32.1628 138.424C31.899 138.679 31.6442 138.95 31.4062 139.229C31.9936 139.464 32.6386 139.595 33.3145 139.595C35.8738 139.595 37.9801 137.729 38.2598 135.33C35.9474 135.736 33.8391 136.806 32.1638 138.423L32.1628 138.424Z" fill="#141416"/>
<path d="M31.7497 133.412C30.807 132.958 30.0256 132.436 29.4253 131.862L29.3985 131.836C28.8141 132.561 28.4418 133.452 28.3672 134.424H34.5459C33.5236 134.153 32.5759 133.811 31.7487 133.411L31.7497 133.412Z" fill="#141416"/>
</g>
<g clip-path="url(#clip7_4287_9340)">
<path d="M39.268 203.433C39.268 200.15 36.6065 197.488 33.3235 197.488C30.0404 197.488 27.3789 200.15 27.3789 203.433C27.3789 206.716 30.0404 209.377 33.3235 209.377C36.6065 209.377 39.268 206.716 39.268 203.433Z" fill="url(#paint23_linear_4287_9340)"/>
<path d="M34.3321 204.597C32.4597 205.142 30.9108 205.937 29.9412 206.868L29.8984 206.909C30.1563 207.146 30.439 207.357 30.7446 207.537L30.8103 207.459C31.075 207.146 31.3587 206.843 31.6544 206.558C32.4478 205.791 33.3556 205.128 34.3331 204.596L34.3321 204.597Z" fill="#141416"/>
<path d="M28.3672 203.795C28.4418 204.767 28.8141 205.658 29.3985 206.383L29.4253 206.357C30.0256 205.783 30.807 205.261 31.7497 204.806C32.5759 204.407 33.5245 204.065 34.5469 203.795H28.3672Z" fill="#141416"/>
<path d="M32.1628 199.798C33.8381 201.415 35.9464 202.485 38.2588 202.891C37.9801 200.493 35.8738 198.627 33.3145 198.627C32.6386 198.627 31.9946 198.758 31.4062 198.993C31.6452 199.272 31.9 199.543 32.1628 199.798Z" fill="#141416"/>
<path d="M29.9412 199.993C30.9108 200.926 32.4597 201.72 34.3321 202.265C33.3546 201.732 32.4467 201.07 31.6534 200.304C31.3587 200.019 31.075 199.716 30.8093 199.402L30.7436 199.324C30.438 199.504 30.1553 199.715 29.8984 199.952L29.9412 199.993Z" fill="#141416"/>
<path d="M32.1628 207.075C31.899 207.329 31.6442 207.6 31.4062 207.879C31.9936 208.115 32.6386 208.245 33.3145 208.245C35.8738 208.245 37.9801 206.38 38.2598 203.98C35.9474 204.386 33.8391 205.456 32.1638 207.074L32.1628 207.075Z" fill="#141416"/>
<path d="M31.7497 202.061C30.807 201.606 30.0256 201.084 29.4253 200.51L29.3985 200.484C28.8141 201.209 28.4418 202.1 28.3672 203.072H34.5459C33.5236 202.802 32.5759 202.46 31.7487 202.06L31.7497 202.061Z" fill="#141416"/>
</g>
<g clip-path="url(#clip8_4287_9340)">
<path d="M41.2367 217.29C41.2367 214.007 38.5753 211.346 35.2922 211.346C32.0091 211.346 29.3477 214.007 29.3477 217.29C29.3477 220.573 32.0091 223.234 35.2922 223.234C38.5753 223.234 41.2367 220.573 41.2367 217.29Z" fill="url(#paint24_linear_4287_9340)"/>
<path d="M36.3048 218.458C34.4324 219.003 32.8834 219.798 31.9139 220.729L31.8711 220.771C32.1289 221.007 32.4116 221.219 32.7172 221.398L32.7829 221.32C33.0477 221.007 33.3314 220.704 33.627 220.419C34.4204 219.653 35.3282 218.99 36.3058 218.457L36.3048 218.458Z" fill="#141416"/>
<path d="M30.3398 217.656C30.4145 218.628 30.7868 219.519 31.3711 220.244L31.398 220.218C31.9982 219.644 32.7797 219.122 33.7223 218.667C34.5486 218.269 35.4972 217.926 36.5195 217.656H30.3398Z" fill="#141416"/>
<path d="M34.1276 213.659C35.8029 215.277 37.9113 216.347 40.2237 216.752C39.945 214.354 37.8386 212.488 35.2793 212.488C34.6034 212.488 33.9594 212.619 33.3711 212.854C33.61 213.133 33.8648 213.404 34.1276 213.659Z" fill="#141416"/>
<path d="M31.9139 213.856C32.8834 214.789 34.4324 215.583 36.3048 216.129C35.3272 215.595 34.4194 214.933 33.626 214.167C33.3314 213.882 33.0477 213.58 32.7819 213.265L32.7162 213.188C32.4106 213.367 32.1279 213.579 31.8711 213.815L31.9139 213.856Z" fill="#141416"/>
<path d="M34.1276 220.936C33.8638 221.191 33.609 221.462 33.3711 221.74C33.9584 221.976 34.6034 222.107 35.2793 222.107C37.8386 222.107 39.945 220.241 40.2247 217.842C37.9123 218.247 35.8039 219.317 34.1286 220.935L34.1276 220.936Z" fill="#141416"/>
<path d="M33.7223 215.924C32.7797 215.469 31.9982 214.947 31.398 214.374L31.3711 214.348C30.7868 215.072 30.4145 215.963 30.3398 216.935H36.5185C35.4962 216.665 34.5486 216.323 33.7213 215.923L33.7223 215.924Z" fill="#141416"/>
</g>
<g clip-path="url(#clip9_4287_9340)">
<path d="M54.8149 219.474C54.8149 216.191 52.1534 213.529 48.8703 213.529C45.5872 213.529 42.9258 216.191 42.9258 219.474C42.9258 222.757 45.5872 225.418 48.8703 225.418C52.1534 225.418 54.8149 222.757 54.8149 219.474Z" fill="url(#paint25_linear_4287_9340)"/>
<path d="M49.8868 220.632C48.0144 221.177 46.4655 221.972 45.4959 222.903L45.4531 222.944C45.7109 223.181 45.9936 223.392 46.2992 223.572L46.3649 223.494C46.6297 223.181 46.9134 222.878 47.2091 222.593C48.0025 221.827 48.9103 221.163 49.8878 220.631L49.8868 220.632Z" fill="#141416"/>
<path d="M43.918 219.818C43.9926 220.79 44.3649 221.681 44.9492 222.406L44.9761 222.38C45.5764 221.806 46.3578 221.284 47.3005 220.83C48.1267 220.431 49.0753 220.088 50.0976 219.818H43.918Z" fill="#141416"/>
<path d="M47.7331 215.821C49.4084 217.439 51.5168 218.509 53.8291 218.914C53.5504 216.516 51.4441 214.65 48.8848 214.65C48.2089 214.65 47.5649 214.781 46.9766 215.017C47.2155 215.295 47.4703 215.566 47.7331 215.821Z" fill="#141416"/>
<path d="M45.4959 216.028C46.4655 216.961 48.0144 217.755 49.8868 218.301C48.9093 217.767 48.0014 217.105 47.2081 216.339C46.9134 216.054 46.6297 215.752 46.3639 215.437L46.2982 215.359C45.9926 215.539 45.7099 215.751 45.4531 215.987L45.4959 216.028Z" fill="#141416"/>
<path d="M47.7331 223.098C47.4693 223.353 47.2145 223.624 46.9766 223.903C47.5639 224.138 48.2089 224.269 48.8848 224.269C51.4441 224.269 53.5504 222.403 53.8302 220.004C51.5177 220.41 49.4094 221.479 47.7341 223.097L47.7331 223.098Z" fill="#141416"/>
<path d="M47.3005 218.092C46.3578 217.637 45.5764 217.115 44.9761 216.542L44.9492 216.516C44.3649 217.24 43.9926 218.131 43.918 219.103H50.0967C49.0743 218.833 48.1267 218.491 47.2995 218.091L47.3005 218.092Z" fill="#141416"/>
</g>
<g clip-path="url(#clip10_4287_9340)">
<path d="M68.4907 219.474C68.4907 216.191 65.8292 213.529 62.5461 213.529C59.263 213.529 56.6016 216.191 56.6016 219.474C56.6016 222.757 59.263 225.418 62.5461 225.418C65.8292 225.418 68.4907 222.757 68.4907 219.474Z" fill="url(#paint26_linear_4287_9340)"/>
<path d="M63.5665 220.632C61.6941 221.177 60.1452 221.972 59.1756 222.903L59.1328 222.944C59.3906 223.181 59.6733 223.392 59.9789 223.572L60.0446 223.494C60.3094 223.181 60.5931 222.878 60.8888 222.593C61.6821 221.827 62.5899 221.163 63.5675 220.631L63.5665 220.632Z" fill="#141416"/>
<path d="M57.5898 219.818C57.6645 220.79 58.0368 221.681 58.6211 222.406L58.648 222.38C59.2482 221.806 60.0297 221.284 60.9723 220.83C61.7986 220.431 62.7472 220.088 63.7695 219.818H57.5898Z" fill="#141416"/>
<path d="M61.4128 215.821C63.0881 217.439 65.1964 218.509 67.5088 218.914C67.2301 216.516 65.1238 214.65 62.5645 214.65C61.8886 214.65 61.2446 214.781 60.6562 215.017C60.8952 215.295 61.15 215.566 61.4128 215.821Z" fill="#141416"/>
<path d="M59.1756 216.028C60.1452 216.961 61.6941 217.755 63.5665 218.301C62.589 217.767 61.6811 217.105 60.8878 216.339C60.5931 216.054 60.3094 215.752 60.0436 215.437L59.9779 215.359C59.6723 215.539 59.3896 215.751 59.1328 215.987L59.1756 216.028Z" fill="#141416"/>
<path d="M61.4128 223.098C61.149 223.353 60.8942 223.624 60.6562 223.903C61.2436 224.138 61.8886 224.269 62.5645 224.269C65.1238 224.269 67.2301 222.403 67.5098 220.004C65.1974 220.41 63.0891 221.479 61.4138 223.097L61.4128 223.098Z" fill="#141416"/>
<path d="M60.9723 218.092C60.0297 217.637 59.2482 217.115 58.648 216.542L58.6211 216.516C58.0368 217.24 57.6645 218.131 57.5898 219.103H63.7685C62.7462 218.833 61.7986 218.491 60.9713 218.091L60.9723 218.092Z" fill="#141416"/>
</g>
<g clip-path="url(#clip11_4287_9340)">
<path d="M83.1625 219.474C83.1625 216.191 80.5011 213.529 77.218 213.529C73.9349 213.529 71.2734 216.191 71.2734 219.474C71.2734 222.757 73.9349 225.418 77.218 225.418C80.5011 225.418 83.1625 222.757 83.1625 219.474Z" fill="url(#paint27_linear_4287_9340)"/>
<path d="M78.2305 220.632C76.3581 221.177 74.8092 221.972 73.8397 222.903L73.7969 222.944C74.0547 223.181 74.3374 223.392 74.643 223.572L74.7087 223.494C74.9735 223.181 75.2572 222.878 75.5528 222.593C76.3462 221.827 77.254 221.163 78.2316 220.631L78.2305 220.632Z" fill="#141416"/>
<path d="M72.2617 219.818C72.3364 220.79 72.7087 221.681 73.293 222.406L73.3199 222.38C73.9201 221.806 74.7015 221.284 75.6442 220.83C76.4704 220.431 77.4191 220.088 78.4414 219.818H72.2617Z" fill="#141416"/>
<path d="M76.0768 215.821C77.7521 217.439 79.8605 218.509 82.1729 218.914C81.8942 216.516 79.7878 214.65 77.2286 214.65C76.5526 214.65 75.9086 214.781 75.3203 215.017C75.5592 215.295 75.814 215.566 76.0768 215.821Z" fill="#141416"/>
<path d="M73.8397 216.028C74.8092 216.961 76.3581 217.755 78.2305 218.301C77.253 217.767 76.3452 217.105 75.5518 216.339C75.2572 216.054 74.9735 215.752 74.7077 215.437L74.642 215.359C74.3364 215.539 74.0537 215.751 73.7969 215.987L73.8397 216.028Z" fill="#141416"/>
<path d="M76.0768 223.098C75.8131 223.353 75.5582 223.624 75.3203 223.903C75.9076 224.138 76.5526 224.269 77.2286 224.269C79.7878 224.269 81.8942 222.403 82.1739 220.004C79.8615 220.41 77.7532 221.479 76.0778 223.097L76.0768 223.098Z" fill="#141416"/>
<path d="M75.6442 218.092C74.7015 217.637 73.9201 217.115 73.3199 216.542L73.293 216.516C72.7087 217.24 72.3364 218.131 72.2617 219.103H78.4404C77.4181 218.833 76.4704 218.491 75.6432 218.091L75.6442 218.092Z" fill="#141416"/>
</g>
<g clip-path="url(#clip12_4287_9340)">
<path d="M96.8344 219.474C96.8344 216.191 94.1729 213.529 90.8899 213.529C87.6068 213.529 84.9453 216.191 84.9453 219.474C84.9453 222.757 87.6068 225.418 90.8899 225.418C94.1729 225.418 96.8344 222.757 96.8344 219.474Z" fill="url(#paint28_linear_4287_9340)"/>
<path d="M91.9102 220.632C90.0378 221.177 88.4889 221.972 87.5194 222.903L87.4766 222.944C87.7344 223.181 88.0171 223.392 88.3227 223.572L88.3884 223.494C88.6532 223.181 88.9369 222.878 89.2325 222.593C90.0259 221.827 90.9337 221.163 91.9112 220.631L91.9102 220.632Z" fill="#141416"/>
<path d="M85.9375 219.818C86.0122 220.79 86.3845 221.681 86.9688 222.406L86.9956 222.38C87.5959 221.806 88.3773 221.284 89.32 220.83C90.1462 220.431 91.0948 220.088 92.1172 219.818H85.9375Z" fill="#141416"/>
<path d="M89.7487 215.821C91.424 217.439 93.5324 218.509 95.8448 218.914C95.5661 216.516 93.4597 214.65 90.9004 214.65C90.2245 214.65 89.5805 214.781 88.9922 215.017C89.2311 215.295 89.4859 215.566 89.7487 215.821Z" fill="#141416"/>
<path d="M87.5194 216.028C88.4889 216.961 90.0378 217.755 91.9102 218.301C90.9327 217.767 90.0249 217.105 89.2315 216.339C88.9369 216.054 88.6532 215.752 88.3874 215.437L88.3217 215.359C88.0161 215.539 87.7334 215.751 87.4766 215.987L87.5194 216.028Z" fill="#141416"/>
<path d="M89.7487 223.098C89.4849 223.353 89.2301 223.624 88.9922 223.903C89.5795 224.138 90.2245 224.269 90.9004 224.269C93.4597 224.269 95.5661 222.403 95.8458 220.004C93.5334 220.41 91.425 221.479 89.7497 223.097L89.7487 223.098Z" fill="#141416"/>
<path d="M89.32 218.092C88.3773 217.637 87.5959 217.115 86.9956 216.542L86.9688 216.516C86.3844 217.24 86.0122 218.131 85.9375 219.103H92.1162C91.0939 218.833 90.1462 218.491 89.319 218.091L89.32 218.092Z" fill="#141416"/>
</g>
<g clip-path="url(#clip13_4287_9340)">
<path d="M110.6 219.474C110.6 216.191 107.939 213.529 104.655 213.529C101.372 213.529 98.7109 216.191 98.7109 219.474C98.7109 222.757 101.372 225.418 104.655 225.418C107.939 225.418 110.6 222.757 110.6 219.474Z" fill="url(#paint29_linear_4287_9340)"/>
<path d="M105.664 220.632C103.792 221.177 102.243 221.972 101.273 222.903L101.23 222.944C101.488 223.181 101.771 223.392 102.077 223.572L102.142 223.494C102.407 223.181 102.691 222.878 102.986 222.593C103.78 221.827 104.688 221.163 105.665 220.631L105.664 220.632Z" fill="#141416"/>
<path d="M99.7031 219.818C99.7778 220.79 100.15 221.681 100.734 222.406L100.761 222.38C101.362 221.806 102.143 221.284 103.086 220.83C103.912 220.431 104.86 220.088 105.883 219.818H99.7031Z" fill="#141416"/>
<path d="M103.514 215.821C105.19 217.439 107.298 218.509 109.61 218.914C109.332 216.516 107.225 214.65 104.666 214.65C103.99 214.65 103.346 214.781 102.758 215.017C102.997 215.295 103.252 215.566 103.514 215.821Z" fill="#141416"/>
<path d="M101.273 216.028C102.243 216.961 103.792 217.755 105.664 218.301C104.687 217.767 103.779 217.105 102.985 216.339C102.691 216.054 102.407 215.752 102.141 215.437L102.076 215.359C101.77 215.539 101.487 215.751 101.23 215.987L101.273 216.028Z" fill="#141416"/>
<path d="M103.514 223.098C103.251 223.353 102.996 223.624 102.758 223.903C103.345 224.138 103.99 224.269 104.666 224.269C107.225 224.269 109.332 222.403 109.611 220.004C107.299 220.41 105.191 221.479 103.515 223.097L103.514 223.098Z" fill="#141416"/>
<path d="M103.086 218.092C102.143 217.637 101.362 217.115 100.761 216.542L100.734 216.516C100.15 217.24 99.7778 218.131 99.7031 219.103H105.882C104.859 218.833 103.912 218.491 103.085 218.091L103.086 218.092Z" fill="#141416"/>
</g>
<g clip-path="url(#clip14_4287_9340)">
<path d="M124.366 219.474C124.366 216.191 121.704 213.529 118.421 213.529C115.138 213.529 112.477 216.191 112.477 219.474C112.477 222.757 115.138 225.418 118.421 225.418C121.704 225.418 124.366 222.757 124.366 219.474Z" fill="url(#paint30_linear_4287_9340)"/>
<path d="M119.438 220.632C117.565 221.177 116.016 221.972 115.047 222.903L115.004 222.944C115.262 223.181 115.544 223.392 115.85 223.572L115.916 223.494C116.181 223.181 116.464 222.878 116.76 222.593C117.553 221.827 118.461 221.163 119.439 220.631L119.438 220.632Z" fill="#141416"/>
<path d="M113.469 219.818C113.543 220.79 113.916 221.681 114.5 222.406L114.527 222.38C115.127 221.806 115.909 221.284 116.851 220.83C117.677 220.431 118.626 220.088 119.648 219.818H113.469Z" fill="#141416"/>
<path d="M117.28 215.821C118.955 217.439 121.064 218.509 123.376 218.914C123.097 216.516 120.991 214.65 118.432 214.65C117.756 214.65 117.112 214.781 116.523 215.017C116.762 215.295 117.017 215.566 117.28 215.821Z" fill="#141416"/>
<path d="M115.047 216.028C116.016 216.961 117.565 217.755 119.438 218.301C118.46 217.767 117.552 217.105 116.759 216.339C116.464 216.054 116.181 215.752 115.915 215.437L115.849 215.359C115.543 215.539 115.261 215.751 115.004 215.987L115.047 216.028Z" fill="#141416"/>
<path d="M117.28 223.098C117.016 223.353 116.761 223.624 116.523 223.903C117.111 224.138 117.756 224.269 118.432 224.269C120.991 224.269 123.097 222.403 123.377 220.004C121.065 220.41 118.956 221.479 117.281 223.097L117.28 223.098Z" fill="#141416"/>
<path d="M116.851 218.092C115.909 217.637 115.127 217.115 114.527 216.542L114.5 216.516C113.916 217.24 113.543 218.131 113.469 219.103H119.647C118.625 218.833 117.677 218.491 116.85 218.091L116.851 218.092Z" fill="#141416"/>
</g>
<g clip-path="url(#clip15_4287_9340)">
<path d="M278.202 219.474C278.202 216.191 275.54 213.529 272.257 213.529C268.974 213.529 266.312 216.191 266.312 219.474C266.312 222.757 268.974 225.418 272.257 225.418C275.54 225.418 278.202 222.757 278.202 219.474Z" fill="url(#paint31_linear_4287_9340)"/>
<path d="M273.274 220.632C271.401 221.177 269.852 221.972 268.883 222.903L268.84 222.944C269.098 223.181 269.38 223.392 269.686 223.572L269.752 223.494C270.016 223.181 270.3 222.878 270.596 222.593C271.389 221.827 272.297 221.163 273.275 220.631L273.274 220.632Z" fill="#141416"/>
<path d="M267.297 219.818C267.372 220.79 267.744 221.681 268.328 222.406L268.355 222.38C268.955 221.806 269.737 221.284 270.679 220.83C271.506 220.431 272.454 220.088 273.477 219.818H267.297Z" fill="#141416"/>
<path d="M271.116 215.821C272.791 217.439 274.9 218.509 277.212 218.914C276.933 216.516 274.827 214.65 272.268 214.65C271.592 214.65 270.948 214.781 270.359 215.017C270.598 215.295 270.853 215.566 271.116 215.821Z" fill="#141416"/>
<path d="M268.883 216.028C269.852 216.961 271.401 217.755 273.274 218.301C272.296 217.767 271.388 217.105 270.595 216.339C270.3 216.054 270.016 215.752 269.751 215.437L269.685 215.359C269.379 215.539 269.097 215.751 268.84 215.987L268.883 216.028Z" fill="#141416"/>
<path d="M271.116 223.098C270.852 223.353 270.597 223.624 270.359 223.903C270.947 224.138 271.592 224.269 272.268 224.269C274.827 224.269 276.933 222.403 277.213 220.004C274.901 220.41 272.792 221.479 271.117 223.097L271.116 223.098Z" fill="#141416"/>
<path d="M270.679 218.092C269.737 217.637 268.955 217.115 268.355 216.542L268.328 216.516C267.744 217.24 267.372 218.131 267.297 219.103H273.476C272.453 218.833 271.506 218.491 270.678 218.091L270.679 218.092Z" fill="#141416"/>
</g>
<g clip-path="url(#clip16_4287_9340)">
<path d="M343.432 167.292C343.432 164.009 340.771 161.348 337.488 161.348C334.204 161.348 331.543 164.009 331.543 167.292C331.543 170.575 334.204 173.236 337.488 173.236C340.771 173.236 343.432 170.575 343.432 167.292Z" fill="url(#paint32_linear_4287_9340)"/>
<path d="M338.496 168.46C336.624 169.005 335.075 169.8 334.105 170.731L334.062 170.773C334.32 171.009 334.603 171.221 334.909 171.4L334.974 171.322C335.239 171.009 335.523 170.706 335.818 170.421C336.612 169.655 337.52 168.991 338.497 168.459L338.496 168.46Z" fill="#141416"/>
<path d="M332.523 167.658C332.598 168.63 332.97 169.521 333.555 170.246L333.582 170.22C334.182 169.646 334.963 169.124 335.906 168.669C336.732 168.271 337.681 167.928 338.703 167.658H332.523Z" fill="#141416"/>
<path d="M336.339 163.665C338.014 165.283 340.122 166.352 342.435 166.758C342.156 164.36 340.05 162.494 337.49 162.494C336.814 162.494 336.17 162.625 335.582 162.86C335.821 163.139 336.076 163.41 336.339 163.665Z" fill="#141416"/>
<path d="M334.105 163.858C335.075 164.791 336.624 165.585 338.496 166.131C337.519 165.597 336.611 164.935 335.817 164.169C335.523 163.884 335.239 163.582 334.973 163.267L334.908 163.189C334.602 163.369 334.319 163.581 334.062 163.817L334.105 163.858Z" fill="#141416"/>
<path d="M336.339 170.942C336.075 171.196 335.82 171.468 335.582 171.746C336.169 171.982 336.814 172.113 337.49 172.113C340.05 172.113 342.156 170.247 342.436 167.848C340.123 168.253 338.015 169.323 336.34 170.941L336.339 170.942Z" fill="#141416"/>
<path d="M335.906 165.926C334.963 165.471 334.182 164.949 333.582 164.376L333.555 164.35C332.97 165.074 332.598 165.965 332.523 166.937H338.702C337.68 166.667 336.732 166.325 335.905 165.925L335.906 165.926Z" fill="#141416"/>
</g>
<g clip-path="url(#clip17_4287_9340)">
<path d="M138.123 219.474C138.123 216.191 135.462 213.529 132.179 213.529C128.896 213.529 126.234 216.191 126.234 219.474C126.234 222.757 128.896 225.418 132.179 225.418C135.462 225.418 138.123 222.757 138.123 219.474Z" fill="url(#paint33_linear_4287_9340)"/>
<path d="M133.191 220.632C131.319 221.177 129.77 221.972 128.801 222.903L128.758 222.944C129.016 223.181 129.298 223.392 129.604 223.572L129.67 223.494C129.934 223.181 130.218 222.878 130.514 222.593C131.307 221.827 132.215 221.163 133.192 220.631L133.191 220.632Z" fill="#141416"/>
<path d="M127.227 219.818C127.301 220.79 127.674 221.681 128.258 222.406L128.285 222.38C128.885 221.806 129.666 221.284 130.609 220.83C131.435 220.431 132.384 220.088 133.406 219.818H127.227Z" fill="#141416"/>
<path d="M131.038 215.821C132.713 217.439 134.821 218.509 137.134 218.914C136.855 216.516 134.749 214.65 132.189 214.65C131.514 214.65 130.87 214.781 130.281 215.017C130.52 215.295 130.775 215.566 131.038 215.821Z" fill="#141416"/>
<path d="M128.801 216.028C129.77 216.961 131.319 217.755 133.191 218.301C132.214 217.767 131.306 217.105 130.513 216.339C130.218 216.054 129.934 215.752 129.669 215.437L129.603 215.359C129.297 215.539 129.015 215.751 128.758 215.987L128.801 216.028Z" fill="#141416"/>
<path d="M131.038 223.098C130.774 223.353 130.519 223.624 130.281 223.903C130.869 224.138 131.514 224.269 132.189 224.269C134.749 224.269 136.855 222.403 137.135 220.004C134.822 220.41 132.714 221.479 131.039 223.097L131.038 223.098Z" fill="#141416"/>
<path d="M130.609 218.092C129.666 217.637 128.885 217.115 128.285 216.542L128.258 216.516C127.674 217.24 127.301 218.131 127.227 219.103H133.405C132.383 218.833 131.435 218.491 130.608 218.091L130.609 218.092Z" fill="#141416"/>
</g>
<rect x="133.384" y="192.722" width="107.276" height="53.9672" rx="9.08171" fill="url(#paint34_linear_4287_9340)"/>
<rect x="133.384" y="192.722" width="107.276" height="53.9672" rx="9.08171" fill="#141416" fill-opacity="0.8"/>
<rect x="133.384" y="192.722" width="107.276" height="53.9672" rx="9.08171" stroke="url(#paint35_linear_4287_9340)" stroke-width="1.65122"/>
<path d="M144.753 232.705V206.698H160.004V209.819H147.874V217.213H158.221V220.333H147.874V232.705H144.753ZM169.036 233.188C167.327 233.188 165.766 232.748 164.354 231.869C162.955 230.99 161.834 229.813 160.992 228.34C160.162 226.854 159.748 225.213 159.748 223.417C159.748 222.055 159.989 220.785 160.472 219.609C160.955 218.42 161.618 217.38 162.46 216.488C163.314 215.584 164.305 214.878 165.432 214.37C166.559 213.863 167.76 213.609 169.036 213.609C170.435 213.609 171.717 213.894 172.881 214.463C174.057 215.021 175.061 215.801 175.89 216.804C176.732 217.807 177.358 218.971 177.767 220.296C178.188 221.621 178.342 223.039 178.231 224.55H163.073C163.221 225.603 163.568 226.544 164.113 227.374C164.658 228.191 165.351 228.841 166.194 229.324C167.048 229.807 167.995 230.055 169.036 230.067C170.15 230.067 171.16 229.782 172.064 229.213C172.968 228.631 173.698 227.838 174.256 226.835L177.432 227.578C176.689 229.225 175.568 230.575 174.07 231.628C172.571 232.668 170.893 233.188 169.036 233.188ZM162.98 222.098H175.092C174.992 221.058 174.658 220.11 174.088 219.256C173.519 218.389 172.794 217.695 171.915 217.175C171.036 216.655 170.076 216.395 169.036 216.395C167.995 216.395 167.042 216.649 166.175 217.157C165.308 217.665 164.59 218.352 164.02 219.219C163.463 220.073 163.116 221.033 162.98 222.098ZM189.426 233.188C187.717 233.188 186.157 232.748 184.745 231.869C183.345 230.99 182.225 229.813 181.383 228.34C180.553 226.854 180.138 225.213 180.138 223.417C180.138 222.055 180.379 220.785 180.862 219.609C181.345 218.42 182.008 217.38 182.85 216.488C183.705 215.584 184.695 214.878 185.822 214.37C186.949 213.863 188.15 213.609 189.426 213.609C190.825 213.609 192.107 213.894 193.271 214.463C194.448 215.021 195.451 215.801 196.281 216.804C197.123 217.807 197.748 218.971 198.157 220.296C198.578 221.621 198.733 223.039 198.621 224.55H183.463C183.612 225.603 183.958 226.544 184.503 227.374C185.048 228.191 185.742 228.841 186.584 229.324C187.438 229.807 188.386 230.055 189.426 230.067C190.541 230.067 191.55 229.782 192.454 229.213C193.358 228.631 194.089 227.838 194.646 226.835L197.822 227.578C197.079 229.225 195.959 230.575 194.46 231.628C192.962 232.668 191.284 233.188 189.426 233.188ZM183.37 222.098H195.482C195.383 221.058 195.048 220.11 194.479 219.256C193.909 218.389 193.185 217.695 192.305 217.175C191.426 216.655 190.466 216.395 189.426 216.395C188.386 216.395 187.432 216.649 186.565 217.157C185.698 217.665 184.98 218.352 184.41 219.219C183.853 220.073 183.506 221.033 183.37 222.098ZM200.373 232.705L205.407 206.698H207.803L214.825 225.163L221.828 206.698H224.225L229.278 232.705H226.101L222.441 213.832L215.847 231.293H213.785L207.19 213.832L203.549 232.705H200.373Z" fill="#F5F5F5"/>
<rect x="-21.4114" y="98.1862" width="108.433" height="32.2844" rx="5.50202" fill="url(#paint36_linear_4287_9340)"/>
<rect x="-21.4114" y="98.1862" width="108.433" height="32.2844" rx="5.50202" fill="#141416" fill-opacity="0.8"/>
<rect x="-21.4114" y="98.1862" width="108.433" height="32.2844" rx="5.50202" stroke="url(#paint37_linear_4287_9340)" stroke-width="0.82561"/>
<path d="M-12.418 121.759C-12.418 119.479 -9.46085 117.631 -5.81305 117.631C-2.16526 117.631 0.791861 119.479 0.791861 121.759" stroke="#F5F5F5" stroke-width="1.65123" stroke-linecap="round" stroke-linejoin="round"/>
<path d="M6.69854 121.328V105.802H12.0552C12.8241 105.802 13.5228 105.961 14.1512 106.279C14.7871 106.589 15.2898 107.044 15.6595 107.643C16.0292 108.242 16.214 108.959 16.214 109.794C16.214 110.245 16.1364 110.681 15.9811 111.103C15.8332 111.517 15.6262 111.875 15.3601 112.179C15.1013 112.474 14.8055 112.674 14.4728 112.778C14.9386 112.896 15.3342 113.107 15.6595 113.41C15.9848 113.705 16.2473 114.053 16.4469 114.452C16.6539 114.851 16.8018 115.269 16.8905 115.705C16.9792 116.142 17.0236 116.563 17.0236 116.97C17.0236 117.827 16.8277 118.585 16.4358 119.243C16.0514 119.894 15.5338 120.404 14.8832 120.774C14.2325 121.143 13.5154 121.328 12.7317 121.328H6.69854ZM8.56171 119.687H12.5653C13.0755 119.687 13.5376 119.557 13.9516 119.299C14.373 119.032 14.7094 118.67 14.9608 118.212C15.2122 117.753 15.3379 117.236 15.3379 116.659C15.3379 116.149 15.2122 115.668 14.9608 115.217C14.7094 114.759 14.373 114.389 13.9516 114.108C13.5376 113.827 13.0755 113.687 12.5653 113.687H8.56171V119.687ZM8.56171 112.079H11.8777C12.5579 112.079 13.1383 111.879 13.6189 111.48C14.1069 111.073 14.3508 110.508 14.3508 109.783C14.3508 108.999 14.1069 108.415 13.6189 108.031C13.1383 107.639 12.5579 107.443 11.8777 107.443H8.56171V112.079ZM18.5366 117.114V110.238H20.3997V116.703C20.3997 117.265 20.5365 117.776 20.8101 118.234C21.0836 118.692 21.4496 119.058 21.908 119.332C22.3738 119.598 22.884 119.731 23.4385 119.731C24.0004 119.731 24.5068 119.598 24.9578 119.332C25.4162 119.058 25.7822 118.692 26.0558 118.234C26.3293 117.776 26.4661 117.265 26.4661 116.703V110.238H28.3293L28.3404 121.328H26.4772L26.4661 119.92C26.0743 120.437 25.5789 120.851 24.98 121.162C24.3811 121.465 23.7342 121.616 23.0392 121.616C22.2111 121.616 21.4533 121.417 20.7657 121.018C20.0855 120.611 19.5421 120.068 19.1354 119.387C18.7362 118.707 18.5366 117.949 18.5366 117.114ZM30.5687 110.238H32.4318V121.328H30.5687V110.238ZM31.5224 108.43C31.2267 108.43 30.979 108.334 30.7794 108.142C30.5797 107.95 30.4799 107.709 30.4799 107.421C30.4799 107.133 30.5797 106.892 30.7794 106.7C30.979 106.508 31.223 106.412 31.5113 106.412C31.7997 106.412 32.0437 106.508 32.2433 106.7C32.4429 106.892 32.5427 107.133 32.5427 107.421C32.5427 107.709 32.4429 107.95 32.2433 108.142C32.0511 108.334 31.8108 108.43 31.5224 108.43ZM35.1607 121.328V104.693H37.0239V121.328H35.1607ZM48.5072 104.693H50.3704V121.328H48.5072V119.443C48.1301 120.093 47.6237 120.618 46.9878 121.018C46.352 121.417 45.6052 121.616 44.7476 121.616C43.9417 121.616 43.1876 121.465 42.4852 121.162C41.7828 120.859 41.1617 120.441 40.622 119.909C40.0897 119.369 39.6719 118.748 39.3688 118.045C39.0657 117.343 38.9141 116.589 38.9141 115.783C38.9141 114.977 39.0657 114.223 39.3688 113.521C39.6719 112.811 40.0897 112.19 40.622 111.657C41.1617 111.118 41.7828 110.696 42.4852 110.393C43.1876 110.09 43.9417 109.938 44.7476 109.938C45.6052 109.938 46.352 110.138 46.9878 110.537C47.6237 110.937 48.1301 111.461 48.5072 112.112V104.693ZM44.7698 119.809C45.5017 119.809 46.1339 119.631 46.6662 119.276C47.2059 118.914 47.62 118.426 47.9083 117.813C48.2041 117.199 48.3519 116.522 48.3519 115.783C48.3519 115.029 48.2041 114.349 47.9083 113.742C47.6126 113.129 47.1949 112.644 46.6551 112.29C46.1228 111.927 45.4943 111.746 44.7698 111.746C44.0378 111.746 43.3724 111.927 42.7735 112.29C42.182 112.652 41.7089 113.14 41.354 113.753C40.9991 114.36 40.8216 115.036 40.8216 115.783C40.8216 116.53 41.0028 117.21 41.3651 117.824C41.7273 118.43 42.2079 118.914 42.8068 119.276C43.4057 119.631 44.06 119.809 44.7698 119.809ZM57.8023 121.616C56.7819 121.616 55.8504 121.354 55.0075 120.829C54.172 120.304 53.5029 119.602 53.0002 118.722C52.5048 117.835 52.2571 116.855 52.2571 115.783C52.2571 114.97 52.4013 114.212 52.6896 113.509C52.978 112.8 53.3735 112.179 53.8763 111.646C54.3864 111.107 54.9779 110.685 55.6507 110.382C56.3235 110.079 57.0407 109.927 57.8023 109.927C58.6377 109.927 59.403 110.097 60.0979 110.437C60.8003 110.77 61.3992 111.236 61.8946 111.835C62.3973 112.434 62.7707 113.129 63.0147 113.92C63.2661 114.711 63.3585 115.557 63.2919 116.459H54.2423C54.331 117.088 54.538 117.65 54.8633 118.145C55.1886 118.633 55.6027 119.021 56.1054 119.31C56.6156 119.598 57.1812 119.746 57.8023 119.753C58.4677 119.753 59.0702 119.583 59.61 119.243C60.1497 118.896 60.5859 118.422 60.9186 117.824L62.8151 118.267C62.3715 119.251 61.7023 120.056 60.8077 120.685C59.9131 121.306 58.9113 121.616 57.8023 121.616ZM54.1868 114.996H61.4177C61.3585 114.375 61.1589 113.809 60.8188 113.299C60.4787 112.781 60.0462 112.367 59.5212 112.057C58.9963 111.746 58.4233 111.591 57.8023 111.591C57.1812 111.591 56.6119 111.742 56.0943 112.046C55.5768 112.349 55.148 112.759 54.8079 113.277C54.4752 113.787 54.2681 114.36 54.1868 114.996ZM65.1608 121.328V110.238H67.024V111.624C67.4159 111.107 67.9112 110.696 68.5101 110.393C69.109 110.083 69.7596 109.927 70.462 109.927C70.8908 109.927 71.3049 109.983 71.7041 110.094L70.95 111.957C70.6468 111.861 70.3511 111.813 70.0627 111.813C69.5082 111.813 68.9981 111.949 68.5323 112.223C68.0739 112.489 67.7079 112.851 67.4343 113.31C67.1608 113.768 67.024 114.278 67.024 114.84V121.328H65.1608ZM76.4495 121.539C75.8507 121.517 75.2666 121.406 74.6973 121.206C74.1354 120.999 73.64 120.722 73.2112 120.374C72.7897 120.019 72.4829 119.613 72.2907 119.154L73.8877 118.467C73.9986 118.718 74.1982 118.955 74.4866 119.177C74.7749 119.398 75.1076 119.576 75.4847 119.709C75.8618 119.842 76.2425 119.909 76.627 119.909C77.0336 119.909 77.4144 119.846 77.7693 119.72C78.1242 119.594 78.4125 119.41 78.6343 119.166C78.8635 118.914 78.9781 118.615 78.9781 118.267C78.9781 117.898 78.8524 117.609 78.6011 117.402C78.3571 117.188 78.0465 117.021 77.6695 116.903C77.2998 116.777 76.9227 116.659 76.5383 116.548C75.7767 116.356 75.0965 116.127 74.4977 115.861C73.8988 115.587 73.4256 115.243 73.0781 114.829C72.738 114.408 72.5679 113.872 72.5679 113.221C72.5679 112.534 72.7565 111.938 73.1335 111.436C73.518 110.933 74.0208 110.545 74.6418 110.271C75.2629 109.998 75.9283 109.861 76.6381 109.861C77.5327 109.861 78.3497 110.053 79.089 110.437C79.8284 110.822 80.3792 111.343 80.7415 112.001L79.2443 112.877C79.1186 112.611 78.9264 112.378 78.6676 112.179C78.4088 111.972 78.1131 111.809 77.7804 111.691C77.4477 111.572 77.1076 111.51 76.7601 111.502C76.3312 111.487 75.9283 111.543 75.5512 111.668C75.1816 111.794 74.8821 111.986 74.6529 112.245C74.4311 112.497 74.3202 112.811 74.3202 113.188C74.3202 113.558 74.4385 113.838 74.6751 114.031C74.9191 114.223 75.2333 114.378 75.6178 114.497C76.0096 114.607 76.4348 114.737 76.8932 114.885C77.566 115.099 78.1944 115.347 78.7785 115.628C79.3626 115.909 79.8321 116.26 80.187 116.681C80.5493 117.103 80.7267 117.624 80.7193 118.245C80.7193 118.925 80.516 119.52 80.1093 120.031C79.7027 120.533 79.1741 120.918 78.5234 121.184C77.8802 121.45 77.1889 121.568 76.4495 121.539Z" fill="#F5F5F5"/>
</g>
</g>
<rect x="0.5" y="0.568359" width="377" height="485.864" rx="31.5" stroke="url(#paint38_linear_4287_9340)"/>
</g>
<defs>
<filter id="filter0_b_4287_9340" x="-72.3478" y="-72.2795" width="522.696" height="631.559" filterUnits="userSpaceOnUse" color-interpolation-filters="sRGB">
<feFlood flood-opacity="0" result="BackgroundImageFix"/>
<feGaussianBlur in="BackgroundImageFix" stdDeviation="36.1739"/>
<feComposite in2="SourceAlpha" operator="in" result="effect1_backgroundBlur_4287_9340"/>
<feBlend mode="normal" in="SourceGraphic" in2="effect1_backgroundBlur_4287_9340" result="shape"/>
</filter>
<linearGradient id="paint0_linear_4287_9340" x1="339.828" y1="181.654" x2="30.5161" y2="181.654" gradientUnits="userSpaceOnUse">
<stop stop-color="#102D3C"/>
<stop offset="0.161465" stop-color="#214E81"/>
<stop offset="0.363625" stop-color="#506179"/>
<stop offset="0.651499" stop-color="#ED5409"/>
<stop offset="1" stop-color="#FFCB67"/>
</linearGradient>
<linearGradient id="paint1_linear_4287_9340" x1="224.05" y1="209.224" x2="145.301" y2="209.224" gradientUnits="userSpaceOnUse">
<stop stop-color="#102D3C"/>
<stop offset="0.161465" stop-color="#214E81"/>
<stop offset="0.363625" stop-color="#506179"/>
<stop offset="0.651499" stop-color="#ED5409"/>
<stop offset="1" stop-color="#FFCB67"/>
</linearGradient>
<linearGradient id="paint2_linear_4287_9340" x1="263.049" y1="199.465" x2="107.129" y2="199.465" gradientUnits="userSpaceOnUse">
<stop stop-color="#102D3C"/>
<stop offset="0.161465" stop-color="#214E81"/>
<stop offset="0.363625" stop-color="#506179"/>
<stop offset="0.651499" stop-color="#ED5409"/>
<stop offset="1" stop-color="#FFCB67"/>
</linearGradient>
<linearGradient id="paint3_linear_4287_9340" x1="339.473" y1="181.321" x2="30.1409" y2="181.321" gradientUnits="userSpaceOnUse">
<stop stop-color="#102D3C"/>
<stop offset="0.161465" stop-color="#214E81"/>
<stop offset="0.363625" stop-color="#506179"/>
<stop offset="0.651499" stop-color="#ED5409"/>
<stop offset="1" stop-color="#FFCB67"/>
</linearGradient>
<linearGradient id="paint4_linear_4287_9340" x1="339.473" y1="181.321" x2="30.1409" y2="181.321" gradientUnits="userSpaceOnUse">
<stop stop-color="#102D3C"/>
<stop offset="0.161465" stop-color="#214E81"/>
<stop offset="0.363625" stop-color="#506179"/>
<stop offset="0.651499" stop-color="#ED5409"/>
<stop offset="1" stop-color="#FFCB67"/>
</linearGradient>
<linearGradient id="paint5_linear_4287_9340" x1="41.2366" y1="64.2891" x2="25.0434" y2="64.2891" gradientUnits="userSpaceOnUse">
<stop stop-color="#102D3C"/>
<stop offset="0.161465" stop-color="#214E81"/>
<stop offset="0.363625" stop-color="#506179"/>
<stop offset="0.651499" stop-color="#ED5409"/>
<stop offset="1" stop-color="#FFCB67"/>
</linearGradient>
<linearGradient id="paint6_linear_4287_9340" x1="345.147" y1="64.2891" x2="328.954" y2="64.2891" gradientUnits="userSpaceOnUse">
<stop stop-color="#102D3C"/>
<stop offset="0.161465" stop-color="#214E81"/>
<stop offset="0.363625" stop-color="#506179"/>
<stop offset="0.651499" stop-color="#ED5409"/>
<stop offset="1" stop-color="#FFCB67"/>
</linearGradient>
<linearGradient id="paint7_linear_4287_9340" x1="41.2366" y1="369.023" x2="25.0434" y2="369.023" gradientUnits="userSpaceOnUse">
<stop stop-color="#102D3C"/>
<stop offset="0.161465" stop-color="#214E81"/>
<stop offset="0.363625" stop-color="#506179"/>
<stop offset="0.651499" stop-color="#ED5409"/>
<stop offset="1" stop-color="#FFCB67"/>
</linearGradient>
<linearGradient id="paint8_linear_4287_9340" x1="344.319" y1="369.023" x2="328.125" y2="369.023" gradientUnits="userSpaceOnUse">
<stop stop-color="#102D3C"/>
<stop offset="0.161465" stop-color="#214E81"/>
<stop offset="0.363625" stop-color="#506179"/>
<stop offset="0.651499" stop-color="#ED5409"/>
<stop offset="1" stop-color="#FFCB67"/>
</linearGradient>
<linearGradient id="paint9_linear_4287_9340" x1="344.319" y1="218.389" x2="328.125" y2="218.389" gradientUnits="userSpaceOnUse">
<stop stop-color="#102D3C"/>
<stop offset="0.161465" stop-color="#214E81"/>
<stop offset="0.363625" stop-color="#506179"/>
<stop offset="0.651499" stop-color="#ED5409"/>
<stop offset="1" stop-color="#FFCB67"/>
</linearGradient>
<linearGradient id="paint10_linear_4287_9340" x1="-12.7625" y1="31.7195" x2="133.366" y2="220.374" gradientUnits="userSpaceOnUse">
<stop stop-color="#102D3C" stop-opacity="0"/>
<stop offset="0.161465" stop-color="#214E81" stop-opacity="0.7"/>
<stop offset="0.363625" stop-color="#506179"/>
<stop offset="0.651499" stop-color="#ED5409"/>
<stop offset="1" stop-color="#FFCB67"/>
</linearGradient>
<linearGradient id="paint11_linear_4287_9340" x1="7.27511" y1="287.069" x2="-12.9524" y2="287.069" gradientUnits="userSpaceOnUse">
<stop stop-color="#102D3C"/>
<stop offset="0.161465" stop-color="#214E81"/>
<stop offset="0.363625" stop-color="#506179"/>
<stop offset="0.651499" stop-color="#ED5409"/>
<stop offset="1" stop-color="#FFCB67"/>
</linearGradient>
<linearGradient id="paint12_linear_4287_9340" x1="-2.4374" y1="321.514" x2="-3.26293" y2="267.025" gradientUnits="userSpaceOnUse">
<stop stop-color="#102D3C"/>
<stop offset="0.161465" stop-color="#214E81"/>
<stop offset="0.363625" stop-color="#506179"/>
<stop offset="0.651499" stop-color="#ED5409"/>
<stop offset="1" stop-color="#FFCB67"/>
</linearGradient>
<linearGradient id="paint13_linear_4287_9340" x1="387.079" y1="325.87" x2="366.852" y2="325.87" gradientUnits="userSpaceOnUse">
<stop stop-color="#102D3C"/>
<stop offset="0.161465" stop-color="#214E81"/>
<stop offset="0.363625" stop-color="#506179"/>
<stop offset="0.651499" stop-color="#ED5409"/>
<stop offset="1" stop-color="#FFCB67"/>
</linearGradient>
<linearGradient id="paint14_linear_4287_9340" x1="377.367" y1="360.317" x2="376.541" y2="305.826" gradientUnits="userSpaceOnUse">
<stop stop-color="#102D3C"/>
<stop offset="0.161465" stop-color="#214E81"/>
<stop offset="0.363625" stop-color="#506179"/>
<stop offset="0.651499" stop-color="#ED5409"/>
<stop offset="1" stop-color="#FFCB67"/>
</linearGradient>
<linearGradient id="paint15_linear_4287_9340" x1="125.213" y1="319.171" x2="246.022" y2="319.171" gradientUnits="userSpaceOnUse">
<stop stop-color="#102D3C"/>
<stop offset="0.161465" stop-color="#214E81"/>
<stop offset="0.363625" stop-color="#506179"/>
<stop offset="0.651499" stop-color="#ED5409"/>
<stop offset="1" stop-color="#FFCB67"/>
</linearGradient>
<linearGradient id="paint16_linear_4287_9340" x1="126.375" y1="331.617" x2="244.748" y2="331.329" gradientUnits="userSpaceOnUse">
<stop stop-color="#102D3C"/>
<stop offset="0.161465" stop-color="#214E81"/>
<stop offset="0.363625" stop-color="#506179"/>
<stop offset="0.651499" stop-color="#ED5409"/>
<stop offset="1" stop-color="#FFCB67"/>
</linearGradient>
<linearGradient id="paint17_linear_4287_9340" x1="164.413" y1="323.572" x2="135.645" y2="323.572" gradientUnits="userSpaceOnUse">
<stop stop-color="#FFCB67"/>
<stop offset="0.348501" stop-color="#ED5409"/>
<stop offset="0.636375" stop-color="#506179"/>
<stop offset="0.838535" stop-color="#214E81"/>
<stop offset="1" stop-color="#102D3C"/>
</linearGradient>
<linearGradient id="paint18_linear_4287_9340" x1="39.3987" y1="188.106" x2="27.2621" y2="188.106" gradientUnits="userSpaceOnUse">
<stop stop-color="#1A3746"/>
<stop offset="0.242213" stop-color="#2B588B"/>
<stop offset="0.367213" stop-color="#5A6B83"/>
<stop offset="0.742213" stop-color="#ED5409"/>
<stop offset="1" stop-color="#FFCB67"/>
</linearGradient>
<linearGradient id="paint19_linear_4287_9340" x1="39.3987" y1="174.235" x2="27.2621" y2="174.235" gradientUnits="userSpaceOnUse">
<stop stop-color="#1A3746"/>
<stop offset="0.242213" stop-color="#2B588B"/>
<stop offset="0.367213" stop-color="#5A6B83"/>
<stop offset="0.742213" stop-color="#ED5409"/>
<stop offset="1" stop-color="#FFCB67"/>
</linearGradient>
<linearGradient id="paint20_linear_4287_9340" x1="39.3987" y1="160.364" x2="27.2621" y2="160.364" gradientUnits="userSpaceOnUse">
<stop stop-color="#1A3746"/>
<stop offset="0.242213" stop-color="#2B588B"/>
<stop offset="0.367213" stop-color="#5A6B83"/>
<stop offset="0.742213" stop-color="#ED5409"/>
<stop offset="1" stop-color="#FFCB67"/>
</linearGradient>
<linearGradient id="paint21_linear_4287_9340" x1="39.3987" y1="146.849" x2="27.2621" y2="146.849" gradientUnits="userSpaceOnUse">
<stop stop-color="#1A3746"/>
<stop offset="0.242213" stop-color="#2B588B"/>
<stop offset="0.367213" stop-color="#5A6B83"/>
<stop offset="0.742213" stop-color="#ED5409"/>
<stop offset="1" stop-color="#FFCB67"/>
</linearGradient>
<linearGradient id="paint22_linear_4287_9340" x1="39.3987" y1="133.321" x2="27.2621" y2="133.321" gradientUnits="userSpaceOnUse">
<stop stop-color="#1A3746"/>
<stop offset="0.242213" stop-color="#2B588B"/>
<stop offset="0.367213" stop-color="#5A6B83"/>
<stop offset="0.742213" stop-color="#ED5409"/>
<stop offset="1" stop-color="#FFCB67"/>
</linearGradient>
<linearGradient id="paint23_linear_4287_9340" x1="39.3987" y1="201.974" x2="27.2621" y2="201.974" gradientUnits="userSpaceOnUse">
<stop stop-color="#1A3746"/>
<stop offset="0.242213" stop-color="#2B588B"/>
<stop offset="0.367213" stop-color="#5A6B83"/>
<stop offset="0.742213" stop-color="#ED5409"/>
<stop offset="1" stop-color="#FFCB67"/>
</linearGradient>
<linearGradient id="paint24_linear_4287_9340" x1="41.3674" y1="215.831" x2="29.2309" y2="215.831" gradientUnits="userSpaceOnUse">
<stop stop-color="#1A3746"/>
<stop offset="0.242213" stop-color="#2B588B"/>
<stop offset="0.367213" stop-color="#5A6B83"/>
<stop offset="0.742213" stop-color="#ED5409"/>
<stop offset="1" stop-color="#FFCB67"/>
</linearGradient>
<linearGradient id="paint25_linear_4287_9340" x1="54.9456" y1="218.015" x2="42.809" y2="218.015" gradientUnits="userSpaceOnUse">
<stop stop-color="#1A3746"/>
<stop offset="0.242213" stop-color="#2B588B"/>
<stop offset="0.367213" stop-color="#5A6B83"/>
<stop offset="0.742213" stop-color="#ED5409"/>
<stop offset="1" stop-color="#FFCB67"/>
</linearGradient>
<linearGradient id="paint26_linear_4287_9340" x1="68.6213" y1="218.015" x2="56.4848" y2="218.015" gradientUnits="userSpaceOnUse">
<stop stop-color="#1A3746"/>
<stop offset="0.242213" stop-color="#2B588B"/>
<stop offset="0.367213" stop-color="#5A6B83"/>
<stop offset="0.742213" stop-color="#ED5409"/>
<stop offset="1" stop-color="#FFCB67"/>
</linearGradient>
<linearGradient id="paint27_linear_4287_9340" x1="83.2932" y1="218.015" x2="71.1567" y2="218.015" gradientUnits="userSpaceOnUse">
<stop stop-color="#1A3746"/>
<stop offset="0.242213" stop-color="#2B588B"/>
<stop offset="0.367213" stop-color="#5A6B83"/>
<stop offset="0.742213" stop-color="#ED5409"/>
<stop offset="1" stop-color="#FFCB67"/>
</linearGradient>
<linearGradient id="paint28_linear_4287_9340" x1="96.9651" y1="218.015" x2="84.8285" y2="218.015" gradientUnits="userSpaceOnUse">
<stop stop-color="#1A3746"/>
<stop offset="0.242213" stop-color="#2B588B"/>
<stop offset="0.367213" stop-color="#5A6B83"/>
<stop offset="0.742213" stop-color="#ED5409"/>
<stop offset="1" stop-color="#FFCB67"/>
</linearGradient>
<linearGradient id="paint29_linear_4287_9340" x1="110.731" y1="218.015" x2="98.5942" y2="218.015" gradientUnits="userSpaceOnUse">
<stop stop-color="#1A3746"/>
<stop offset="0.242213" stop-color="#2B588B"/>
<stop offset="0.367213" stop-color="#5A6B83"/>
<stop offset="0.742213" stop-color="#ED5409"/>
<stop offset="1" stop-color="#FFCB67"/>
</linearGradient>
<linearGradient id="paint30_linear_4287_9340" x1="124.496" y1="218.015" x2="112.36" y2="218.015" gradientUnits="userSpaceOnUse">
<stop stop-color="#1A3746"/>
<stop offset="0.242213" stop-color="#2B588B"/>
<stop offset="0.367213" stop-color="#5A6B83"/>
<stop offset="0.742213" stop-color="#ED5409"/>
<stop offset="1" stop-color="#FFCB67"/>
</linearGradient>
<linearGradient id="paint31_linear_4287_9340" x1="278.332" y1="218.015" x2="266.196" y2="218.015" gradientUnits="userSpaceOnUse">
<stop stop-color="#1A3746"/>
<stop offset="0.242213" stop-color="#2B588B"/>
<stop offset="0.367213" stop-color="#5A6B83"/>
<stop offset="0.742213" stop-color="#ED5409"/>
<stop offset="1" stop-color="#FFCB67"/>
</linearGradient>
<linearGradient id="paint32_linear_4287_9340" x1="343.563" y1="165.833" x2="331.426" y2="165.833" gradientUnits="userSpaceOnUse">
<stop stop-color="#1A3746"/>
<stop offset="0.242213" stop-color="#2B588B"/>
<stop offset="0.367213" stop-color="#5A6B83"/>
<stop offset="0.742213" stop-color="#ED5409"/>
<stop offset="1" stop-color="#FFCB67"/>
</linearGradient>
<linearGradient id="paint33_linear_4287_9340" x1="138.254" y1="218.015" x2="126.118" y2="218.015" gradientUnits="userSpaceOnUse">
<stop stop-color="#1A3746"/>
<stop offset="0.242213" stop-color="#2B588B"/>
<stop offset="0.367213" stop-color="#5A6B83"/>
<stop offset="0.742213" stop-color="#ED5409"/>
<stop offset="1" stop-color="#FFCB67"/>
</linearGradient>
<linearGradient id="paint34_linear_4287_9340" x1="242.683" y1="212.88" x2="131.489" y2="212.88" gradientUnits="userSpaceOnUse">
<stop stop-color="#102D3C"/>
<stop offset="0.161465" stop-color="#214E81"/>
<stop offset="0.363625" stop-color="#506179"/>
<stop offset="0.651499" stop-color="#ED5409"/>
<stop offset="1" stop-color="#FFCB67"/>
</linearGradient>
<linearGradient id="paint35_linear_4287_9340" x1="242.683" y1="212.88" x2="131.489" y2="212.88" gradientUnits="userSpaceOnUse">
<stop stop-color="#102D3C"/>
<stop offset="0.161465" stop-color="#214E81"/>
<stop offset="0.363625" stop-color="#506179"/>
<stop offset="0.651499" stop-color="#ED5409"/>
<stop offset="1" stop-color="#FFCB67"/>
</linearGradient>
<linearGradient id="paint36_linear_4287_9340" x1="88.6354" y1="110.265" x2="-22.8973" y2="110.265" gradientUnits="userSpaceOnUse">
<stop stop-color="#102D3C"/>
<stop offset="0.161465" stop-color="#214E81"/>
<stop offset="0.363625" stop-color="#506179"/>
<stop offset="0.651499" stop-color="#ED5409"/>
<stop offset="1" stop-color="#FFCB67"/>
</linearGradient>
<linearGradient id="paint37_linear_4287_9340" x1="88.6354" y1="110.265" x2="-22.8973" y2="110.265" gradientUnits="userSpaceOnUse">
<stop stop-color="#102D3C"/>
<stop offset="0.161465" stop-color="#214E81"/>
<stop offset="0.363625" stop-color="#506179"/>
<stop offset="0.651499" stop-color="#ED5409"/>
<stop offset="1" stop-color="#FFCB67"/>
</linearGradient>
<linearGradient id="paint38_linear_4287_9340" x1="0.576224" y1="1.97016" x2="487.165" y2="232.709" gradientUnits="userSpaceOnUse">
<stop stop-color="#323232"/>
<stop offset="1" stop-color="#666666"/>
</linearGradient>
<clipPath id="clip0_4287_9340">
<rect y="0.0683594" width="378" height="486.864" rx="32" fill="white"/>
</clipPath>
<clipPath id="clip1_4287_9340">
<rect width="28.1816" height="28.1804" fill="white" transform="translate(135.91 311.566)"/>
</clipPath>
<clipPath id="clip2_4287_9340">
<rect width="11.8891" height="11.8886" fill="white" transform="translate(27.3789 183.621)"/>
</clipPath>
<clipPath id="clip3_4287_9340">
<rect width="11.8891" height="11.8886" fill="white" transform="translate(27.3789 169.748)"/>
</clipPath>
<clipPath id="clip4_4287_9340">
<rect width="11.8891" height="11.8886" fill="white" transform="translate(27.3789 155.879)"/>
</clipPath>
<clipPath id="clip5_4287_9340">
<rect width="11.8891" height="11.8886" fill="white" transform="translate(27.3789 142.363)"/>
</clipPath>
<clipPath id="clip6_4287_9340">
<rect width="11.8891" height="11.8886" fill="white" transform="translate(27.3789 128.836)"/>
</clipPath>
<clipPath id="clip7_4287_9340">
<rect width="11.8891" height="11.8886" fill="white" transform="translate(27.3789 197.488)"/>
</clipPath>
<clipPath id="clip8_4287_9340">
<rect width="11.8891" height="11.8886" fill="white" transform="translate(29.3477 211.346)"/>
</clipPath>
<clipPath id="clip9_4287_9340">
<rect width="11.8891" height="11.8886" fill="white" transform="translate(42.9258 213.529)"/>
</clipPath>
<clipPath id="clip10_4287_9340">
<rect width="11.8891" height="11.8886" fill="white" transform="translate(56.6016 213.529)"/>
</clipPath>
<clipPath id="clip11_4287_9340">
<rect width="11.8891" height="11.8886" fill="white" transform="translate(71.2734 213.529)"/>
</clipPath>
<clipPath id="clip12_4287_9340">
<rect width="11.8891" height="11.8886" fill="white" transform="translate(84.9453 213.529)"/>
</clipPath>
<clipPath id="clip13_4287_9340">
<rect width="11.8891" height="11.8886" fill="white" transform="translate(98.7109 213.529)"/>
</clipPath>
<clipPath id="clip14_4287_9340">
<rect width="11.8891" height="11.8886" fill="white" transform="translate(112.477 213.529)"/>
</clipPath>
<clipPath id="clip15_4287_9340">
<rect width="11.8891" height="11.8886" fill="white" transform="translate(266.316 213.529)"/>
</clipPath>
<clipPath id="clip16_4287_9340">
<rect width="11.8891" height="11.8886" fill="white" transform="translate(331.543 161.348)"/>
</clipPath>
<clipPath id="clip17_4287_9340">
<rect width="11.8891" height="11.8886" fill="white" transform="translate(126.238 213.529)"/>
</clipPath>
</defs>
</svg>
